<?xml version="1.0" encoding="UTF-8"?>
<svg id="Laag_1" data-name="Laag 1" xmlns="http://www.w3.org/2000/svg" xmlns:xlink="http://www.w3.org/1999/xlink" viewBox="0 0 135.99 220.94">
  <defs>
    <style>
      .cls-1 {
        fill: none;
      }

      .cls-2 {
        fill: #21b501;
      }

      .cls-3 {
        fill: #dbbb00;
      }

      .cls-4, .cls-5 {
        fill: #233260;
      }

      .cls-6 {
        clip-path: url(#clippath);
      }

      .cls-5 {
        stroke: #233260;
        stroke-miterlimit: 10;
        stroke-width: 4px;
      }
    </style>
    <clipPath id="clippath">
      <path class="cls-1" d="M67.61,8.61c-32.58,0-58.98,26.41-58.98,58.98v144.38h117.97V67.59c0-32.58-26.41-58.98-58.98-58.98Z"/>
    </clipPath>
  </defs>
  <path class="cls-3" d="M135.99,220.94H0V65.64C0,48.08,7.09,31.58,19.97,19.18,32.8,6.81,49.86,0,68,0s35.19,6.81,48.03,19.18c12.87,12.4,19.97,28.9,19.97,46.46v155.3ZM7.41,213.53h121.17V65.64c0-32.11-27.18-58.23-60.59-58.23S7.41,33.53,7.41,65.64v147.89Z"/>
  <path class="cls-4" d="M67.61,3.65C32.1,3.65,3.32,31.38,3.32,65.58v151.6h128.58V65.58c0-34.2-28.78-61.93-64.29-61.93Z"/>
  <g class="cls-6">
    <path class="cls-2" d="M67.61,8.61c-32.58,0-58.98,26.41-58.98,58.98v144.38h117.97V67.59c0-32.58-26.41-58.98-58.98-58.98Z"/>
    <path class="cls-3" d="M130.3,186.72l-125.38-.25v-118.88c0-16.74,6.52-32.49,18.36-44.33,11.84-11.84,27.58-18.36,44.33-18.36s32.49,6.52,44.33,18.36c11.84,11.84,18.36,27.58,18.36,44.33v119.13ZM12.33,179.08l110.56.22v-111.7c0-30.48-24.8-55.28-55.28-55.28S12.33,37.11,12.33,67.59v111.48Z"/>
    <path class="cls-4" d="M132.53,138.09l-37-36.91c-7.84,6.52-17.68,10.09-27.92,10.09s-20.09-3.57-27.93-10.09L5.69,135.09l-5.27-5.28,33.96-33.87c-5.91-6.93-9.52-15.56-10.29-24.62H5.52v-7.46h18.57c.78-9.21,4.48-17.94,10.55-24.92l-17.35-17.35,5.27-5.27,17.43,17.43c6.79-5.55,15.16-8.94,23.89-9.68V-1.19h7.46v25.26c8.97.77,17.52,4.31,24.41,10.11l17.86-17.86,5.27,5.27-17.86,17.86c5.8,6.89,9.35,15.44,10.11,24.41h19.88v7.46h-19.88c-.77,9.07-4.38,17.69-10.3,24.63l36.96,36.87-5.27,5.28ZM95.68,96.11l36.84,36.75.03-.03-36.84-36.75,1.21-1.31c6.43-6.93,10.2-15.95,10.61-25.38l.08-1.77h19.68v-.05h-19.68l-.08-1.77c-.41-9.33-4.12-18.27-10.43-25.18l-1.2-1.31,17.72-17.72-.03-.03-17.72,17.72-1.31-1.2c-6.9-6.31-15.84-10.02-25.18-10.43l-1.77-.08V2.51h-.05v25.06l-1.77.08c-9.1.4-17.87,3.95-24.7,10l-1.31,1.16-17.25-17.25-.03.03,17.25,17.25-1.24,1.31c-6.58,6.97-10.44,16.08-10.86,25.65l-.08,1.77H9.22v.05h18.37l.08,1.77c.42,9.43,4.18,18.44,10.61,25.37l1.21,1.31L5.66,129.82l.03.03,33.84-33.75,1.3,1.18c7.35,6.64,16.86,10.29,26.77,10.29s19.42-3.65,26.77-10.29l1.31-1.18Z"/>
    <rect class="cls-3" x="65.73" y=".66" width="3.75" height="66.93"/>
    <g>
      <rect class="cls-3" x="43.01" y="10.46" width="3.75" height="66.93" transform="translate(-17.91 44.61) rotate(-45)"/>
      <rect class="cls-3" x="57.81" y="42.05" width="66.93" height="3.75" transform="translate(-4.33 77.4) rotate(-45)"/>
    </g>
    <g>
      <rect class="cls-3" x="98.62" y="53.75" width="3.75" height="94.23" transform="translate(-41.89 100.77) rotate(-45.07)"/>
      <rect class="cls-3" x="-8.77" y="97.49" width="89.99" height="3.75" transform="translate(-59.6 54.6) rotate(-44.93)"/>
    </g>
    <rect class="cls-3" x="7.37" y="65.71" width="121.79" height="3.75"/>
    <path class="cls-3" d="M109.44,67.59c0,23.1-18.73,41.83-41.83,41.83s-41.83-18.73-41.83-41.83,18.73-41.83,41.83-41.83,41.83,18.73,41.83,41.83Z"/>
  </g>
  <rect class="cls-4" x="3.32" y="182.92" width="128.58" height="34.26"/>
  <g>
    <path class="cls-2" d="M52.64,190.07c-.81,0-1.44.23-1.89.69-.46.46-.68,1.09-.68,1.9s.22,1.51.67,2.01c.45.5,1.05.75,1.8.75.58,0,1.07-.14,1.48-.42.41-.28.68-.66.82-1.16h-2.37v-1.51h4.78v4.95h-1.87v-.99c-.71.76-1.71,1.14-2.99,1.14-1.35,0-2.46-.43-3.32-1.3-.86-.87-1.29-2.03-1.29-3.48,0-1.39.43-2.51,1.33-3.37.89-.86,2-1.28,3.33-1.25,1.3,0,2.31.43,3.02,1.3v-1.14h1.79v3.61h-2.21c-.14-.54-.43-.96-.86-1.27-.44-.31-.95-.46-1.54-.46Z"/>
    <path class="cls-2" d="M66.01,188.19v3.21h-1.81v-1.39h-3.05v1.95h1.11v-.61h1.43v2.78h-1.43v-.61h-1.11v1.95h3.05v-1.39h1.81v3.21h-7.98v-1.82h.91v-5.46h-.91v-1.82h7.98Z"/>
    <path class="cls-2" d="M79.37,190.01h-.91v5.46h.91v1.82h-4.07v-1.82h1v-4.28l-2.21,6.1h-2.07l-2.22-6.11v4.29h1v1.82h-4.07v-1.82h.91v-5.46h-.91v-1.82h3.95l2.37,6.45,2.38-6.45h3.94v1.82Z"/>
    <path class="cls-2" d="M82.42,190.79c0,.19.07.35.2.47s.32.23.57.3c.25.07.5.13.76.18.26.04.57.1.95.16s.69.12.94.19c1.49.34,2.24,1.17,2.24,2.5,0,.88-.31,1.57-.94,2.08s-1.5.77-2.63.77-2-.35-2.56-1.04v.9h-1.79v-3.22h1.87c.23,1.03.94,1.55,2.16,1.55.53,0,.94-.08,1.25-.25.3-.17.46-.41.46-.72,0-.22-.1-.41-.31-.55s-.48-.24-.81-.3-.7-.12-1.1-.17c-.4-.05-.81-.13-1.21-.24-.4-.11-.77-.25-1.1-.43-.33-.18-.6-.45-.81-.81s-.31-.8-.31-1.32c0-.88.3-1.57.91-2.06s1.44-.73,2.51-.73c1.14,0,2,.31,2.56.94v-.78h1.79v3.21h-1.91c-.1-.53-.32-.92-.65-1.17-.33-.25-.8-.38-1.42-.38-1.07,0-1.6.31-1.6.94Z"/>
    <path class="cls-2" d="M60.94,207.17h.01c1.04.34,1.56,1.03,1.56,2.07,0,.85-.28,1.51-.85,1.98-.57.47-1.43.7-2.58.7h-4.99v-1.82h.91v-5.46h-.91v-1.82h4.84c1.09,0,1.93.2,2.5.61.58.41.86.99.86,1.75,0,.92-.45,1.58-1.35,1.99ZM57.21,204.63v1.79h1.74c.36,0,.65-.08.85-.25.2-.16.31-.39.31-.68s-.1-.49-.31-.64c-.2-.15-.49-.23-.85-.23h-1.74ZM59.09,210.09c.36,0,.65-.09.86-.28.21-.19.32-.44.32-.75,0-.29-.1-.53-.31-.7-.21-.17-.5-.25-.87-.25h-1.88v1.98h1.88Z"/>
    <path class="cls-2" d="M71.75,210.09h.73v1.82h-4.08v-1.82h1.09l-.23-.7h-3.16l-.25.7h1.1v1.82h-4.09v-1.82h.73l2.7-7.32h2.76l2.7,7.32ZM66.65,207.78h2.07l-1.04-3.06-1.03,3.06Z"/>
    <path class="cls-2" d="M81.02,210.25c.16,0,.33-.03.53-.08v1.75c-.38.09-.75.13-1.1.13-1.14,0-1.99-.56-2.54-1.68l-.75-1.57h-1.01v1.29h.84v1.82h-3.95v-1.82h.9v-5.46h-.9v-1.82h4.32c1.2,0,2.14.27,2.81.8.67.53,1.01,1.27,1.01,2.22,0,1.3-.61,2.18-1.83,2.65l.44.91c.27.57.68.86,1.24.86ZM76.15,204.63v2.48h1.25c.49,0,.86-.11,1.12-.34s.4-.54.4-.94-.13-.68-.39-.89c-.26-.21-.64-.32-1.13-.32h-1.25Z"/>
  </g>
  <g>
    <path class="cls-2" d="M63.23,46.6c.1.24.34.38.58.38.09,0,.17-.02.26-.05.32-.14.46-.51.32-.83l-2.54-5.75c-.14-.32-.51-.46-.83-.32-.32.14-.46.52-.32.83l2.54,5.75Z"/>
    <path class="cls-2" d="M72.01,46.92c.08.04.17.05.26.05.24,0,.47-.14.58-.38l2.54-5.75c.14-.32,0-.69-.32-.83-.32-.14-.69,0-.83.32l-2.54,5.75c-.14.32,0,.69.32.83Z"/>
    <path class="cls-2" d="M51.02,45.57l4.69,4.19c.12.11.27.16.42.16.17,0,.35-.07.47-.21.23-.26.21-.66-.05-.89l-4.69-4.19c-.26-.23-.66-.21-.89.05-.23.26-.21.66.05.89Z"/>
    <path class="cls-2" d="M79.94,49.92c.15,0,.3-.05.42-.16l4.69-4.19c.26-.23.28-.63.05-.89s-.63-.28-.89-.05l-4.69,4.19c-.26.23-.28.63-.05.89.13.14.3.21.47.21Z"/>
  </g>
  <path class="cls-2" d="M85.87,62.33s0-.02,0-.03c0-.1-.03-.19-.06-.27-.07-.26-.18-.5-.37-.69l-10.04-10.04c-.25-.25-.54-.45-.86-.6h0c-.41-.2-.87-.32-1.34-.33l-11.02-.15c-.38,0-.76.08-1.11.21h0s0,0-.02,0c-.07.02-.13.06-.19.09,0,0-.02,0-.02.01-.32.15-.63.35-.88.61l-10.08,10.08c-.23.23-.34.52-.39.81-.03.08-.05.16-.05.25s.02.17.05.25c.05.29.16.58.39.81l16.72,16.72c.21.21.49.33.78.39.08.03.16.06.25.06,0,0,.02,0,.03,0,0,0,0,0,0,0,.01,0,.02,0,.03,0,.02,0,.04,0,.06,0,0,0,0,0,0,0,.02,0,.03,0,.05,0,.1,0,.19-.03.28-.07.23-.07.46-.18.63-.35l16.71-16.61c.29-.28.44-.66.45-1.06,0-.03-.01-.05-.02-.08Z"/>
  <path class="cls-5" d="M76.18,117.87c-1.78-2.1-2.1-2.48-2.55-11.93-.17-3.47-.24-6.01-.29-7.86-.11-3.82-.14-8.97-.79-9.99-1.1-1.72-2.49-1.72-3.33-1.72h-2.76c-.83,0-2.23,0-3.33,1.72-.65,1.01-.68,6.17-.79,9.99-.05,1.85-.12,4.38-.29,7.86-.45,9.45-.77,9.83-2.55,11.93-2.65,3.13-5.69,7.17-5.69,10.61v53.56h28.05v-53.56c0-3.44-3.04-7.48-5.69-10.61Z"/>
  <g>
    <path class="cls-4" d="M54.71,181.3v-52.81c0-3.24,3.15-7.33,5.51-10.13,1.92-2.27,2.26-2.67,2.73-12.38.18-3.85.25-7.16.31-9.81.11-5.1.17-6.9.65-7.67.88-1.38,1.88-1.38,2.69-1.38h2.76c.81,0,1.82,0,2.69,1.38.49.76.55,2.57.65,7.68.05,2.65.12,5.95.31,9.8.46,9.7.81,10.11,2.73,12.38,2.37,2.8,5.51,6.89,5.51,10.13v52.81h-26.55Z"/>
    <path class="cls-3" d="M69.37,87.88c.75,0,1.4,0,2.06,1.03.66,1.03.37,7.28.84,17.11.47,9.83.84,10.39,2.9,12.83s5.34,6.55,5.34,9.64v52.06h-25.05v-52.06c0-3.09,3.28-7.21,5.34-9.64,2.06-2.43,2.43-3,2.9-12.83.47-9.83.19-16.08.84-17.11.66-1.03,1.31-1.03,2.06-1.03h2.76M69.37,86.38h-2.76c-.83,0-2.23,0-3.33,1.72-.6.94-.66,2.68-.77,8.06-.05,2.65-.12,5.94-.31,9.78-.45,9.45-.77,9.83-2.55,11.93-2.65,3.13-5.69,7.17-5.69,10.61v53.56h28.05v-53.56c0-3.44-3.04-7.48-5.69-10.61-1.78-2.1-2.1-2.48-2.55-11.93-.18-3.84-.25-7.13-.31-9.78-.11-5.38-.17-7.12-.77-8.06-1.1-1.72-2.49-1.72-3.33-1.72h0Z"/>
  </g>
  <polygon class="cls-1" points="68.97 149.27 68.97 149.28 68.97 149.27 68.97 149.27"/>
  <path class="cls-3" d="M78.26,142.95c-.71-4.99-3.06-11.82-3.06-11.82h-7.23s0,0,0,0h-7.23s-2.34,6.83-3.06,11.82c-.24,1.66.13,3.17.78,4.48h19.03c.65-1.31,1.01-2.82.78-4.48Z"/>
  <path class="cls-3" d="M68.61,169.04c-.1-5.4,0-12.53.2-13.45.1-.43.61-.98,1.29-1.53h-4.22c.68.54,1.2,1.09,1.29,1.53.2.92.31,8.05.2,13.45-.1,5.4-2.14,7.44-2.95,7.95s-5.81,1.02-5.81,1.02v.92h9.37s0,0,0,0h9.37v-.92s-4.99-.51-5.81-1.02c-.82-.51-2.85-2.55-2.95-7.95Z"/>
  <path class="cls-2" d="M72.68,152.43c1.09-.54,3.53-2.36,4.83-4.99h-19.03c1.3,2.63,3.74,4.45,4.83,4.99.86.43,1.82,1.03,2.58,1.63h4.22c.76-.6,1.72-1.2,2.58-1.63ZM68,149.27h0s0,.01,0,.01h0Z"/>
  <rect class="cls-3" x="11.88" y="178.84" width="112.18" height="4.08"/>
  <path class="cls-4" d="M86.19,62.3s0-.02,0-.03c0-.1-.03-.19-.07-.27-.07-.26-.18-.5-.37-.69l-10.14-10.14c-.25-.25-.55-.45-.87-.6h0c-.42-.2-.88-.33-1.35-.33l-11.13-.15c-.39,0-.77.08-1.12.22h0s0,0-.02,0c-.07.02-.13.06-.19.09,0,0-.02,0-.02.01-.33.16-.64.36-.89.62l-10.18,10.18c-.23.23-.35.52-.4.82-.03.08-.05.16-.05.25s.02.18.06.26c.05.3.16.59.39.82l16.89,16.89c.22.22.49.33.78.39.08.03.16.06.25.06,0,0,.02,0,.03,0,0,0,0,0,0,0,.01,0,.02,0,.03,0,.02,0,.04,0,.06,0,0,0,0,0,0,0,.02,0,.03,0,.05,0,.1,0,.19-.03.28-.07.24-.07.46-.18.64-.36l16.89-16.78c.29-.29.45-.67.45-1.08,0-.03-.01-.05-.02-.08ZM84.29,61.63h-5.56l-2.99-8.56,8.56,8.56ZM77.39,61.63h-4.7l1.82-8.2,2.87,8.2ZM73.38,51.5c.09,0,.17.02.25.03l-1.9,8.55-3.04-8.64,4.69.06ZM70.94,61.63h-6.18l3.05-8.91,3.14,8.91ZM62.3,51.34h0l4.61.06-2.95,8.63-1.93-8.67c.09-.01.18-.03.27-.03ZM61.04,52.78l1.97,8.85h-5.07l3.1-8.85ZM59.51,53.3l-2.91,8.33h-5.41l8.33-8.33ZM51.18,62.9h5.37l7.96,13.33-13.33-13.33ZM58.03,62.9h5.26l3.12,14.03-8.38-14.03ZM67.85,77.54l-3.23-14.53h6.46l-3.23,14.53ZM72.41,62.9h4.91l-8,13.87,3.08-13.87ZM71.11,76.22l7.68-13.32h5.72l-13.41,13.32Z"/>
  <g>
    <path class="cls-2" d="M29.46,58.68l2.2.34-.19,1.24-.95-.15-.32,2.09,1.33.21.12-.76-.42-.06.15-.98,1.9.29-.15.98-.42-.06-.12.76,1.33.21.32-2.09-.95-.15.19-1.24,2.2.34-.84,5.46-1.25-.19.1-.62-3.74-.58-.1.62-1.25-.19.84-5.46Z"/>
    <path class="cls-2" d="M32.2,50.57l1.18.43-.22.59,4.73,1.73-.59,1.62-4.81,1.04,2.72,1,.25-.69,1.18.43-1,2.72-1.18-.43.22-.59-3.55-1.3-.22.59-1.18-.43.81-2.22,4.78-1.04-2.7-.99-.26.7-1.18-.43,1-2.73Z"/>
    <path class="cls-2" d="M40.53,47.46c.19.84.02,1.68-.51,2.52-.53.84-1.21,1.36-2.05,1.55-.84.19-1.68.02-2.53-.52-.81-.51-1.3-1.18-1.47-2-.17-.83,0-1.66.54-2.5.53-.85,1.21-1.37,2.03-1.57.82-.2,1.63-.04,2.44.46.85.53,1.37,1.22,1.55,2.06ZM38.82,49.23c.28-.45.36-.9.24-1.35-.13-.46-.44-.84-.92-1.14-.46-.29-.91-.38-1.35-.29-.44.1-.81.37-1.09.81-.28.45-.37.89-.25,1.33.1.43.38.79.84,1.08.49.31.96.42,1.42.34.46-.08.83-.34,1.11-.78Z"/>
    <path class="cls-2" d="M41.32,38.37l1.62,1.53-.85.9-.7-.66-.68.72,2.75,2.59.7-.75.92.86-2.46,2.61-.92-.86.7-.75-2.75-2.59-.68.72.7.66-.85.9-1.62-1.53,4.11-4.36Z"/>
    <path class="cls-2" d="M46.78,34.22l1.32,1.79-1.01.74-.57-.77-1.7,1.26.8,1.09.62-.45-.25-.34.8-.59,1.14,1.55-.8.59-.25-.34-.62.45.8,1.09,1.7-1.25-.57-.78,1.01-.74,1.32,1.79-4.45,3.28-.75-1.01.51-.37-2.24-3.04-.51.37-.75-1.01,4.45-3.28Z"/>
    <path class="cls-2" d="M51.53,33.2h-.01c-.47.23-.78.56-.92.98s-.09.88.14,1.38c.25.53.59.88,1.01,1.05.43.18.87.15,1.35-.07.38-.18.65-.43.82-.74.17-.31.21-.66.13-1.06l1.46-.69c.25.8.22,1.53-.09,2.19-.32.66-.88,1.19-1.7,1.58-.93.44-1.78.52-2.56.24-.78-.28-1.39-.89-1.83-1.82-.42-.89-.5-1.72-.23-2.48.28-.77.85-1.36,1.69-1.76.86-.41,1.63-.45,2.32-.14l-.33-.69,1.12-.53,1.13,2.38-1.41.67c-.24-.35-.54-.57-.91-.65-.37-.08-.76-.03-1.16.17Z"/>
    <path class="cls-2" d="M62.04,33.64l.49-.12.31,1.22-2.74.7-.31-1.22.73-.19-.28-.43-2.12.54-.05.51.74-.19.31,1.22-2.75.7-.31-1.22.49-.12.56-5.37,1.85-.47,3.07,4.45ZM58.22,32.97l1.39-.35-1.22-1.87-.17,2.23Z"/>
    <path class="cls-2" d="M72.23,28.32l-.03,1.26h-.63s-.1,5.03-.1,5.03l-1.73-.04-2.54-4.21-.06,2.9.74.02-.03,1.26-2.9-.06.03-1.26h.63s.08-3.77.08-3.77h-.63s.03-1.27.03-1.27l2.37.05,2.53,4.18.06-2.87-.75-.02.03-1.26,2.91.06Z"/>
    <path class="cls-2" d="M78.08,34.73l.49.11-.28,1.23-2.76-.62.28-1.23.74.17-.05-.51-2.13-.48-.27.44.75.17-.28,1.23-2.77-.62.28-1.23.49.11,2.94-4.53,1.86.42.71,5.35ZM74.98,32.4l1.4.31-.24-2.22-1.16,1.91Z"/>
    <path class="cls-2" d="M85.5,32.33l-.85,2.06-1.15-.47.37-.89-.92-.38-1.44,3.5.95.39-.48,1.17-3.31-1.36.48-1.17.95.39,1.44-3.5-.92-.38-.37.89-1.15-.47.85-2.06,5.54,2.28Z"/>
    <path class="cls-2" d="M92.49,36.8l-.7,1.05-.52-.35-1.25,1.86c-.52.78-1.13,1.24-1.81,1.38-.69.14-1.42-.05-2.2-.57-.78-.52-1.23-1.12-1.37-1.81s.06-1.42.59-2.21l1.25-1.86-.52-.35.7-1.05,2.35,1.57-.7,1.05-.55-.37-1.25,1.86c-.27.4-.37.77-.32,1.11s.26.63.62.87c.36.24.71.32,1.05.24s.63-.32.9-.72l1.25-1.86-.55-.37.7-1.05,2.35,1.57Z"/>
    <path class="cls-2" d="M93.75,45.25c.08.08.18.15.3.22l-.86.86c-.23-.15-.43-.3-.6-.48-.56-.56-.7-1.25-.41-2.06l.4-1.14-.5-.5-.63.63.41.42-.89.89-1.93-1.94.89-.89.44.44,2.68-2.67-.44-.44.89-.89,2.11,2.12c.59.59.92,1.18.98,1.77s-.13,1.12-.6,1.58c-.64.63-1.37.77-2.2.39l-.23.66c-.15.41-.09.75.18,1.02ZM94.13,40.11l-1.22,1.21.61.61c.24.24.48.37.71.39.24.02.46-.07.65-.26.19-.19.27-.39.25-.63s-.15-.47-.4-.71l-.61-.61Z"/>
    <path class="cls-2" d="M95.59,47.56l.38.5-1.01.76-1.68-2.23,1.01-.76.38.5,3.02-2.27-.38-.5,1.01-.76,1.68,2.23-1.01.76-.38-.5-3.02,2.27Z"/>
    <path class="cls-2" d="M99.9,48.21c-.12.06-.19.16-.22.28-.03.12-.03.27.01.45.04.18.09.35.15.52.06.17.14.38.23.63s.16.46.2.64c.3,1.01.05,1.75-.75,2.19-.53.3-1.05.34-1.57.14-.52-.2-.97-.65-1.35-1.33-.39-.69-.47-1.32-.24-1.9l-.54.3-.61-1.08,1.95-1.09.63,1.13c-.55.48-.62,1.09-.2,1.83.18.32.37.54.58.67.2.13.4.14.59.03.14-.08.21-.2.22-.37.01-.17-.02-.37-.09-.59s-.17-.46-.27-.72c-.11-.26-.19-.53-.26-.81-.07-.28-.11-.55-.12-.81,0-.26.07-.52.21-.76.15-.25.38-.46.69-.63.53-.3,1.05-.35,1.55-.15.5.2.93.62,1.29,1.27.39.69.49,1.31.3,1.86l.47-.26.61,1.08-1.94,1.09-.65-1.15c.28-.24.45-.5.49-.79.04-.28-.04-.61-.25-.98-.36-.64-.73-.86-1.11-.65Z"/>
    <path class="cls-2" d="M105.86,57.54l-2.1.72-.4-1.17.91-.31-.32-.94-3.57,1.23.33.97-1.19.41-1.16-3.39,1.19-.41.33.97,3.57-1.23-.32-.94-.91.31-.4-1.17,2.1-.72,1.95,5.67Z"/>
    <path class="cls-2" d="M101.97,64.75l.08.5-1.24.2-.45-2.79,1.24-.2.12.75.45-.24-.35-2.16-.51-.09.12.75-1.24.2-.45-2.8,1.24-.2.08.5,5.3,1.04.3,1.88-4.7,2.66ZM102.99,61l.23,1.41,1.97-1.05-2.2-.36Z"/>
  </g>
</svg>