<?xml version="1.0" encoding="UTF-8"?>
<svg id="Laag_1" data-name="Laag 1" xmlns="http://www.w3.org/2000/svg" xmlns:xlink="http://www.w3.org/1999/xlink" viewBox="0 0 135.99 220.94">
  <defs>
    <style>
      .cls-1, .cls-2, .cls-3, .cls-4 {
        fill: none;
      }

      .cls-5, .cls-6, .cls-2, .cls-7, .cls-3 {
        stroke-miterlimit: 10;
      }

      .cls-5, .cls-2, .cls-7, .cls-3, .cls-4 {
        stroke: #233260;
      }

      .cls-5, .cls-7, .cls-8 {
        fill: #dbbb00;
      }

      .cls-5, .cls-4 {
        stroke-width: 1.98px;
      }

      .cls-6 {
        stroke: #dbbb00;
        stroke-width: 1.42px;
      }

      .cls-6, .cls-9 {
        fill: #233260;
      }

      .cls-2 {
        stroke-dasharray: 4.45 2.22;
      }

      .cls-2, .cls-3 {
        stroke-width: 1px;
      }

      .cls-10 {
        fill: #21b501;
      }

      .cls-11 {
        clip-path: url(#clippath);
      }

      .cls-4 {
        stroke-linecap: round;
        stroke-linejoin: round;
      }
    </style>
    <clipPath id="clippath">
      <path class="cls-1" d="M68,8.79c-32.58,0-58.98,26.41-58.98,58.98v144.38h117.97V67.77c0-32.58-26.41-58.98-58.98-58.98Z"/>
    </clipPath>
  </defs>
  <path class="cls-8" d="M135.99,220.94H0V65.64C0,48.08,7.09,31.58,19.97,19.18,32.8,6.81,49.86,0,68,0s35.19,6.81,48.03,19.18c12.87,12.4,19.97,28.9,19.97,46.46v155.3ZM7.41,213.53h121.17V65.64c0-32.11-27.18-58.23-60.59-58.23S7.41,33.53,7.41,65.64v147.89Z"/>
  <path class="cls-9" d="M68,3.71C32.49,3.71,3.71,31.43,3.71,65.64v151.6h128.58V65.64c0-34.2-28.78-61.93-64.29-61.93Z"/>
  <g class="cls-11">
    <path class="cls-10" d="M68,8.79c-32.58,0-58.98,26.41-58.98,58.98v144.38h117.97V67.77c0-32.58-26.41-58.98-58.98-58.98Z"/>
    <path class="cls-8" d="M130.69,186.9l-125.38-.25v-118.88c0-16.74,6.52-32.49,18.36-44.33,11.84-11.84,27.58-18.36,44.33-18.36s32.49,6.52,44.33,18.36c11.84,11.84,18.36,27.58,18.36,44.33v119.13ZM12.72,179.26l110.56.22v-111.7c0-30.48-24.8-55.28-55.28-55.28S12.72,37.29,12.72,67.77v111.48Z"/>
    <path class="cls-9" d="M132.92,138.28l-37-36.91c-7.84,6.52-17.68,10.09-27.92,10.09s-20.09-3.57-27.93-10.09L6.08,135.27l-5.27-5.28,33.96-33.87c-5.91-6.93-9.52-15.56-10.29-24.62H5.9v-7.46h18.57c.78-9.21,4.48-17.94,10.55-24.92l-17.35-17.35,5.27-5.27,17.43,17.43c6.79-5.55,15.16-8.94,23.89-9.68V-1.01h7.46v25.26c8.97.77,17.52,4.31,24.41,10.11l17.86-17.86,5.27,5.27-17.86,17.86c5.8,6.89,9.35,15.44,10.11,24.41h19.88v7.46h-19.88c-.77,9.07-4.38,17.69-10.3,24.63l36.96,36.87-5.27,5.28ZM96.07,96.29l36.84,36.75.03-.03-36.84-36.75,1.21-1.31c6.43-6.93,10.2-15.95,10.61-25.38l.08-1.77h19.68v-.05h-19.68l-.08-1.77c-.41-9.33-4.12-18.27-10.43-25.18l-1.2-1.31,17.72-17.72-.03-.03-17.72,17.72-1.31-1.2c-6.9-6.31-15.84-10.02-25.18-10.43l-1.77-.08V2.7h-.05v25.06l-1.77.08c-9.1.4-17.87,3.95-24.7,10l-1.31,1.16-17.25-17.25-.03.03,17.25,17.25-1.24,1.31c-6.58,6.97-10.44,16.08-10.86,25.65l-.08,1.77H9.61v.05h18.37l.08,1.77c.42,9.43,4.18,18.44,10.61,25.37l1.21,1.31L6.05,130l.03.03,33.84-33.75,1.3,1.18c7.35,6.64,16.86,10.29,26.77,10.29s19.42-3.65,26.77-10.29l1.31-1.18Z"/>
    <g>
      <rect class="cls-8" x="66.12" y=".84" width="3.75" height="66.93"/>
      <g>
        <rect class="cls-8" x="43.4" y="10.65" width="3.75" height="66.93" transform="translate(-17.93 44.94) rotate(-45)"/>
        <rect class="cls-8" x="58.2" y="42.23" width="66.93" height="3.75" transform="translate(-4.34 77.73) rotate(-45)"/>
      </g>
      <g>
        <rect class="cls-8" x="99" y="53.93" width="3.75" height="94.23" transform="translate(-41.91 101.1) rotate(-45.07)"/>
        <rect class="cls-8" x="-8.38" y="97.67" width="89.99" height="3.75" transform="translate(-59.61 54.92) rotate(-44.93)"/>
      </g>
      <rect class="cls-8" x="7.76" y="65.9" width="121.79" height="3.75"/>
    </g>
  </g>
  <rect class="cls-9" x="3.71" y="182.98" width="128.58" height="34.26"/>
  <path class="cls-8" d="M109.75,67.74c0,23.1-18.73,41.83-41.83,41.83s-41.83-18.73-41.83-41.83,18.73-41.83,41.83-41.83,41.83,18.73,41.83,41.83Z"/>
  <line class="cls-9" x1="120.08" y1="138.27" x2="120.08" y2="138.28"/>
  <g>
    <g>
      <path class="cls-10" d="M53.51,65.89c-.52-.95-.77-1.65-.75-2.08v-.09c.03-.54.2-1.03.5-1.47.91-1.37,1.37-3.58,1.81-5.71.63-3.06,1.23-5.95,3-6.92.46-.25,1.02-.38,1.67-.38,1.62,0,3.73.8,5.76,1.58,2,.76,4.06,1.55,5.65,1.55,0,0,.15,0,.15,0,.58,0,1.05.12,1.46.36l.13.08c.22.14.67.55,1.32,1.74l15.31,27.98-20.72,11.34-15.31-27.98Z"/>
      <path class="cls-9" d="M59.75,50.25c1.44,0,3.42.76,5.4,1.51,2.12.81,4.23,1.62,6,1.62.06,0,.12,0,.18,0,.02,0,.04,0,.06,0,.32,0,.63.08.88.23l.1.06s.35.22.97,1.37l14.83,27.11-18.98,10.38-2.69-4.91-2.4-4.38s0,0,0,0h0s-.98-1.79-.98-1.79l-.13-.24-8.64-15.79c-.65-1.18-.63-1.56-.63-1.56v-.12c.02-.31.13-.63.32-.92l.03-.05c1-1.49,1.47-3.76,1.94-6.03.57-2.74,1.14-5.49,2.51-6.24.33-.18.74-.26,1.2-.26M59.75,48.26s0,0,0,0c-.82,0-1.54.17-2.15.5-2.17,1.19-2.82,4.29-3.5,7.58-.42,2.05-.86,4.16-1.64,5.33l-.02.02-.02.02-.02.02c-.39.58-.61,1.23-.64,1.9v.04s0,.04,0,.04v.1c-.01.41.08,1.12.87,2.56l8.64,15.79.13.23.98,1.79,1.17,2.14,1.23,2.25,2.69,4.91.95,1.74,1.74-.95,18.98-10.38,1.74-.95-.95-1.74-14.83-27.11c-.59-1.07-1.12-1.75-1.64-2.09l-.13-.08-.03-.02-.03-.02c-.56-.32-1.21-.49-1.87-.49h-.13s-.11,0-.11,0c-1.41,0-3.38-.75-5.3-1.49-2.21-.85-4.31-1.65-6.11-1.65h0Z"/>
    </g>
    <circle class="cls-7" cx="60.86" cy="54.58" r="2.33"/>
    <g>
      <line class="cls-3" x1="53.75" y1="63.86" x2="56.22" y2="62.48"/>
      <line class="cls-2" x1="58.17" y1="61.39" x2="68.85" y2="55.43"/>
      <line class="cls-3" x1="69.82" y1="54.89" x2="72.3" y2="53.51"/>
    </g>
    <rect class="cls-8" x="64.04" y="63.79" width="15.63" height="22.04" rx="2" ry="2" transform="translate(-27.34 44.49) rotate(-29.16)"/>
    <path class="cls-9" d="M76.11,75.08l2.47-1.38c.54,1.37.57,2.64.09,3.83-.47,1.18-1.41,2.16-2.8,2.94-1.27.71-2.5.99-3.7.85-1.19-.14-2.23-.7-3.12-1.67l-1.26.7-.7-1.25,1.1-.61c-.04-.06-.1-.15-.17-.27-.06-.11-.1-.19-.12-.25l-1.1.61-.71-1.26,1.26-.71c-.32-1.22-.23-2.37.29-3.43.51-1.06,1.4-1.95,2.68-2.66,1.37-.77,2.68-1.06,3.91-.88s2.28.82,3.13,1.92l-2.5,1.39c-.45-.43-.96-.67-1.54-.72-.58-.04-1.17.11-1.79.47-1.04.58-1.56,1.39-1.56,2.44l2.65-1.48.71,1.26-2.99,1.67c.02.05.06.14.12.25.07.12.12.21.17.27l2.99-1.67.7,1.25-2.69,1.5c.93.66,1.94.68,3.02.08.64-.36,1.09-.81,1.35-1.36.26-.55.29-1.17.11-1.84Z"/>
  </g>
  <path class="cls-4" d="M65.01,36.93c1.52-.27,2.95-.17,4.48-.05,1.61.12,2.43,1.53.87,2.54-3.42,2.23-7.67,2.24-11.58,2.76-2.47.33-5.37.77-7.39,2.37-.8.64-1.44,1.54-1.59,2.55-.25,1.75,1.01,3.41,2.53,4.32,2.37,1.42,5.37,2.01,8.04,2.57"/>
  <path class="cls-6" d="M49.59,128.03v-15.46c0-.83-.68-1.51-1.51-1.51h-4.45c-.83,0-1.51.68-1.51,1.51v15.27c-3.89,1.43-6.68,5.16-6.68,9.53v43.89c0,.55.45,1,1,1h18.3c.55,0,1-.45,1-1v-43.89c0-4.17-2.55-7.77-6.17-9.33Z"/>
  <rect class="cls-10" x="37.84" y="135.98" width="15.66" height="26.09"/>
  <g>
    <path class="cls-10" d="M60.47,125.83c0,2.36,1.95,4.28,4.35,4.28.83,0,1.63-.24,2.32-.68v-12.66c0-.45.37-.82.82-.82s.82.37.82.82v12.66c.7.44,1.49.68,2.32.68,2.4,0,4.35-1.92,4.35-4.28,0-1.2-.52-2.35-1.42-3.16-.17-.15-.27-.38-.27-.61s.1-.45.27-.61c.91-.81,1.43-1.96,1.43-3.16,0-1.97-1.36-3.68-3.31-4.15-.22-.05-.42-.2-.53-.4-.11-.2-.13-.44-.05-.66.14-.4.21-.8.21-1.21,0-2.06-1.71-3.74-3.81-3.74s-3.81,1.68-3.81,3.74c0,.41.07.81.21,1.21.08.22.06.46-.05.66-.11.2-.3.35-.53.4-1.95.47-3.31,2.18-3.31,4.15,0,1.2.52,2.35,1.42,3.16.17.16.27.38.27.61s-.1.45-.27.61c-.91.81-1.42,1.96-1.42,3.16Z"/>
    <path class="cls-8" d="M72.69,136.95c-.53-.6-1.29-.94-2.08-.94h-5.29c-.8,0-1.55.34-2.08.94-.54.61-.79,1.41-.69,2.22l.3,7.33h10.21l.31-7.27c.1-.86-.15-1.66-.68-2.27Z"/>
    <path class="cls-9" d="M69.4,138.43h-2.88c-.45,0-.82.18-.82.41s.37.41.82.41h2.88c.45,0,.82-.18.82-.41s-.37-.41-.82-.41Z"/>
    <path class="cls-9" d="M69.18,140.73h-2.36c-.37,0-.67.18-.67.41s.3.41.67.41h2.36c.37,0,.67-.18.67-.41s-.3-.41-.67-.41Z"/>
    <path class="cls-9" d="M68.92,143.12h-1.85c-.29,0-.52.18-.52.41s.23.41.52.41h1.85c.29,0,.52-.18.52-.41s-.23-.41-.52-.41Z"/>
    <path class="cls-9" d="M72.95,146.49h1.62c.12-1.64.12-1.65.13-1.66l.3-5.1c.16-1.27-.24-2.55-1.08-3.5-.84-.95-2.05-1.49-3.31-1.49h-1.83v-3.48c.73.31,1.51.47,2.32.47,3.3,0,5.98-2.65,5.98-5.91,0-1.38-.5-2.71-1.38-3.77.88-1.05,1.38-2.39,1.38-3.77,0-2.45-1.51-4.6-3.77-5.49.06-.31.08-.62.08-.94,0-2.96-2.44-5.37-5.44-5.37s-5.44,2.41-5.44,5.37c0,.31.03.63.09.94-2.25.88-3.77,3.03-3.77,5.49,0,1.38.49,2.71,1.38,3.77-.88,1.05-1.38,2.39-1.38,3.77,0,3.26,2.68,5.91,5.98,5.91.81,0,1.59-.16,2.32-.47v3.48h-1.83c-1.26,0-2.47.54-3.31,1.49-.85.96-1.24,2.23-1.09,3.45l.25,6.8h1.64l-.26-6.95c-.1-.81.15-1.61.69-2.22.53-.6,1.29-.94,2.08-.94h5.29c.8,0,1.56.34,2.08.94.54.61.79,1.41.68,2.27l-.43,6.9ZM67.96,115.95c-.45,0-.82.37-.82.82v12.66c-.7.44-1.49.68-2.32.68-2.4,0-4.35-1.92-4.35-4.28,0-1.2.52-2.35,1.42-3.16.17-.15.27-.38.27-.61s-.1-.45-.27-.61c-.9-.81-1.42-1.96-1.42-3.16,0-1.97,1.36-3.68,3.31-4.15.22-.05.42-.2.53-.4.11-.2.13-.44.05-.66-.14-.4-.21-.81-.21-1.21,0-2.06,1.71-3.74,3.81-3.74s3.81,1.68,3.81,3.74c0,.41-.07.82-.21,1.21-.08.22-.06.46.05.66.11.2.3.35.53.4,1.95.47,3.31,2.18,3.31,4.15,0,1.19-.52,2.35-1.43,3.16-.17.16-.27.38-.27.61s.1.45.27.61c.91.81,1.42,1.96,1.42,3.16,0,2.36-1.95,4.28-4.35,4.28-.83,0-1.63-.24-2.32-.68v-12.66c0-.45-.37-.82-.82-.82Z"/>
  </g>
  <g>
    <path class="cls-8" d="M84.84,135.4c-.53-.07-1.11-.05-1.75.06h0c-2.77.51-5.4,2.29-4.08,11.46h4c0-.36-.02-.71-.02-1.08,0-3.71.3-7.73,1.85-10.44Z"/>
    <path class="cls-8" d="M90.47,133.81c-2.89,0-5.84,1.43-5.84,12.03,0,.37.01.72.02,1.08h11.64c0-.36.02-.71.02-1.08,0-10.6-2.95-12.03-5.84-12.03Z"/>
    <path class="cls-8" d="M97.93,135.47h0c-.68-.12-1.28-.13-1.84-.05,1.55,2.71,1.85,6.73,1.85,10.43,0,.37-.01.72-.02,1.08h4.09c1.32-9.17-1.31-10.95-4.08-11.46Z"/>
    <path class="cls-9" d="M98.22,133.85c-1.17-.21-2.23-.16-3.19.12-.92-.95-2.14-1.57-3.73-1.74.04-.66.13-1.5.33-1.99.17-.42-.04-.89-.45-1.06-.42-.17-.9.04-1.06.45-.3.74-.41,1.85-.45,2.59-1.6.16-2.83.77-3.76,1.72-.94-.26-1.98-.31-3.11-.1-6.15,1.12-6.25,7.41-5.43,13.13.02.02.05.05.07.07h1.59s0,0,0,0c-1.36-9.29,1.28-11.09,4.06-11.59h0c.64-.12,1.22-.13,1.75-.06-1.55,2.71-1.85,6.73-1.85,10.44,0,.42.01.81.02,1.22h1.63c0-.4-.02-.8-.02-1.22,0-10.6,2.95-12.03,5.84-12.03h0c2.89,0,5.84,1.43,5.84,12.03,0,.42-.01.82-.02,1.22h1.63c0-.4.02-.8.02-1.22,0-3.7-.3-7.72-1.85-10.43.56-.08,1.16-.07,1.84.05h0c2.79.51,5.43,2.3,4.06,11.59h1.65c.83-5.74.75-12.08-5.42-13.2Z"/>
  </g>
  <g>
    <path class="cls-5" d="M26.9,146.66v15.3h82.04v-15.3H26.9ZM107.53,160.54H28.32v-12.46h79.21v12.46Z"/>
    <path class="cls-5" d="M26.9,178.35h82.04v-15.3H26.9v15.3ZM28.32,164.48h79.21v12.46H28.32v-12.46Z"/>
  </g>
  <g>
    <rect class="cls-9" x="27.61" y="147.37" width="80.62" height="13.88"/>
    <path class="cls-8" d="M108.94,161.96H26.9v-15.3h82.04v15.3ZM28.32,160.54h79.21v-12.46H28.32v12.46Z"/>
  </g>
  <g>
    <rect class="cls-9" x="27.61" y="163.77" width="80.62" height="13.88"/>
    <path class="cls-8" d="M108.94,178.35H26.9v-15.3h82.04v15.3ZM28.32,176.94h79.21v-12.46H28.32v12.46Z"/>
  </g>
  <circle class="cls-8" cx="33.45" cy="154.31" r=".99"/>
  <circle class="cls-8" cx="33.45" cy="170.71" r=".99"/>
  <circle class="cls-8" cx="104.02" cy="154.31" r=".99"/>
  <circle class="cls-8" cx="68.73" cy="154.31" r=".99"/>
  <circle class="cls-8" cx="68.73" cy="170.71" r=".99"/>
  <circle class="cls-8" cx="104.02" cy="170.71" r=".99"/>
  <rect class="cls-8" x="33.92" y="179.35" width="43.12" height="2.86"/>
  <g>
    <path class="cls-10" d="M14.39,190.56c-.81,0-1.44.23-1.89.69-.46.46-.68,1.09-.68,1.9s.22,1.51.67,2.01c.45.5,1.05.75,1.8.75.58,0,1.07-.14,1.48-.42.41-.28.68-.66.82-1.16h-2.37v-1.51h4.78v4.95h-1.87v-.99c-.71.76-1.71,1.14-2.99,1.14-1.35,0-2.46-.43-3.31-1.3-.86-.87-1.29-2.03-1.29-3.48,0-1.39.43-2.51,1.33-3.37.89-.86,2-1.28,3.33-1.25,1.3,0,2.31.43,3.02,1.3v-1.14h1.79v3.61h-2.21c-.14-.54-.43-.96-.86-1.27-.44-.31-.95-.46-1.54-.46Z"/>
    <path class="cls-10" d="M27.77,196.11c.16,0,.33-.03.53-.08v1.75c-.38.09-.75.13-1.1.13-1.14,0-1.99-.56-2.53-1.68l-.75-1.57h-1.01v1.29h.84v1.82h-3.95v-1.82h.9v-5.46h-.9v-1.82h4.32c1.2,0,2.14.27,2.81.8.67.53,1.01,1.27,1.01,2.22,0,1.3-.61,2.18-1.83,2.65l.44.91c.27.57.68.86,1.23.86ZM22.89,190.5v2.48h1.25c.49,0,.86-.11,1.12-.34.26-.23.4-.54.4-.94s-.13-.68-.39-.89c-.26-.21-.64-.32-1.13-.32h-1.25Z"/>
    <path class="cls-10" d="M36.94,188.68v3.21h-1.81v-1.39h-3.06v1.95h1.11v-.61h1.43v2.78h-1.43v-.61h-1.11v1.95h3.06v-1.39h1.81v3.21h-7.98v-1.82h.91v-5.46h-.91v-1.82h7.98Z"/>
    <path class="cls-10" d="M45.64,188.68v3.21h-1.81v-1.39h-3.06v1.95h1.11v-.61h1.43v2.78h-1.43v-.61h-1.11v1.95h3.06v-1.39h1.81v3.21h-7.98v-1.82h.91v-5.46h-.91v-1.82h7.98Z"/>
    <path class="cls-10" d="M56.68,188.68v1.82h-.91v7.28h-2.5l-3.8-6.01v4.19h1.07v1.82h-4.19v-1.82h.91v-5.46h-.91v-1.82h3.42l3.78,5.97v-4.15h-1.08v-1.82h4.2Z"/>
    <path class="cls-10" d="M60.87,196.69h.54v1.08h-2.39v-1.08h.54v-3.24h-.54v-1.08h2.39v1.08h-.54v3.24Z"/>
    <path class="cls-10" d="M63.23,193.92c0,.11.04.21.12.28.08.07.19.13.34.18.15.04.3.08.45.1.15.03.34.06.56.09.22.04.41.07.56.12.88.2,1.33.69,1.33,1.48,0,.52-.19.93-.56,1.24-.37.3-.89.46-1.56.46s-1.19-.21-1.52-.62v.53h-1.06v-1.91h1.11c.13.61.56.92,1.28.92.31,0,.56-.05.74-.15.18-.1.27-.24.27-.43,0-.13-.06-.24-.19-.32-.12-.08-.28-.14-.48-.18-.2-.04-.42-.07-.66-.1-.24-.03-.48-.08-.72-.14s-.46-.15-.66-.25c-.2-.11-.36-.26-.48-.48-.12-.21-.19-.47-.19-.78,0-.53.18-.93.54-1.22.36-.29.86-.44,1.49-.44.68,0,1.19.18,1.52.56v-.46h1.07v1.91h-1.13c-.06-.31-.19-.55-.39-.7-.2-.15-.48-.22-.84-.22-.63,0-.95.19-.95.56Z"/>
    <path class="cls-10" d="M73.87,190.56c-.81,0-1.44.23-1.89.69-.45.46-.68,1.09-.68,1.9s.22,1.51.67,2.01c.45.5,1.05.75,1.8.75.58,0,1.07-.14,1.48-.42.41-.28.68-.66.82-1.16h-2.37v-1.51h4.79v4.95h-1.87v-.99c-.71.76-1.71,1.14-2.99,1.14-1.35,0-2.46-.43-3.31-1.3-.86-.87-1.29-2.03-1.29-3.48,0-1.39.43-2.51,1.33-3.37.89-.86,2-1.28,3.33-1.25,1.3,0,2.3.43,3.02,1.3v-1.14h1.79v3.61h-2.21c-.14-.54-.43-.96-.86-1.27-.44-.31-.95-.46-1.54-.46Z"/>
    <path class="cls-10" d="M87.55,196.62c-.88.88-2.04,1.31-3.48,1.31s-2.6-.44-3.47-1.31-1.31-2.04-1.31-3.48.44-2.49,1.31-3.34c.88-.85,2.03-1.27,3.47-1.27s2.61.42,3.48,1.27c.88.85,1.31,1.96,1.31,3.34,0,1.45-.44,2.61-1.32,3.48ZM84.07,195.89c.77,0,1.38-.25,1.83-.75.46-.51.69-1.18.69-2,0-.78-.23-1.4-.69-1.87-.46-.47-1.07-.7-1.83-.7s-1.37.24-1.82.71c-.45.46-.68,1.08-.68,1.86,0,.83.23,1.5.68,2,.46.5,1.06.75,1.81.75Z"/>
    <path class="cls-10" d="M95.19,194.19h1.79v3.59h-7.57v-1.82h.91v-5.46h-.91v-1.82h4.39v1.82h-1.27v5.46h2.65v-1.77Z"/>
    <path class="cls-10" d="M101.89,188.68c1.56,0,2.77.39,3.63,1.17.86.78,1.29,1.87,1.29,3.28,0,1.47-.43,2.62-1.29,3.43-.86.81-2.07,1.22-3.63,1.22h-4.21v-1.82h.91v-5.46h-.91v-1.82h4.21ZM101.89,195.96c.82,0,1.47-.25,1.93-.77s.7-1.2.7-2.07c0-.81-.23-1.44-.7-1.92s-1.11-.71-1.93-.71h-1.09v5.46h1.09Z"/>
    <path class="cls-10" d="M115.34,188.68v3.21h-1.81v-1.39h-3.06v1.95h1.11v-.61h1.43v2.78h-1.43v-.61h-1.11v1.95h3.06v-1.39h1.81v3.21h-7.98v-1.82h.91v-5.46h-.91v-1.82h7.98Z"/>
    <path class="cls-10" d="M126.37,188.68v1.82h-.91v7.28h-2.5l-3.8-6.01v4.19h1.07v1.82h-4.19v-1.82h.91v-5.46h-.91v-1.82h3.42l3.78,5.97v-4.15h-1.08v-1.82h4.2Z"/>
    <path class="cls-10" d="M50.71,204.61h-.91v5.46h.91v1.82h-4.07v-1.82h1v-4.28l-2.21,6.1h-2.07l-2.22-6.11v4.29h1v1.82h-4.07v-1.82h.91v-5.46h-.91v-1.82h3.95l2.37,6.45,2.38-6.45h3.94v1.82Z"/>
    <path class="cls-10" d="M60.16,210.07h.73v1.82h-4.08v-1.82h1.09l-.23-.7h-3.16l-.25.7h1.1v1.82h-4.1v-1.82h.73l2.7-7.32h2.76l2.7,7.32ZM55.05,207.75h2.07l-1.04-3.06-1.03,3.06Z"/>
    <path class="cls-10" d="M69.43,210.22c.16,0,.33-.03.53-.08v1.75c-.38.09-.75.13-1.1.13-1.14,0-1.99-.56-2.53-1.68l-.75-1.57h-1.01v1.29h.84v1.82h-3.95v-1.82h.9v-5.46h-.9v-1.82h4.32c1.2,0,2.14.27,2.81.8.67.53,1.01,1.27,1.01,2.22,0,1.3-.61,2.18-1.83,2.65l.44.91c.27.57.68.86,1.23.86ZM64.55,204.61v2.48h1.25c.49,0,.86-.11,1.12-.34.26-.23.4-.54.4-.94s-.13-.68-.39-.89c-.26-.21-.64-.32-1.13-.32h-1.25Z"/>
    <path class="cls-10" d="M79.2,204.61l-2.5,2.41,2.6,3.05h.65v1.82h-4.45v-1.82h1.13l-1.69-2-1.21,1.08v.92h.83v1.82h-3.95v-1.82h.91v-5.46h-.91v-1.82h3.95v1.82h-.83v2.41l2.57-2.41h-.79v-1.82h4.43v1.82h-.75Z"/>
    <path class="cls-10" d="M88.52,202.79v3.21h-1.81v-1.39h-3.06v1.95h1.11v-.61h1.43v2.78h-1.43v-.61h-1.11v1.95h3.06v-1.39h1.81v3.21h-7.98v-1.82h.91v-5.46h-.91v-1.82h7.98Z"/>
    <path class="cls-10" d="M97.79,202.79v3.21h-1.79v-1.39h-1.43v5.46h1.48v1.82h-5.17v-1.82h1.48v-5.46h-1.43v1.39h-1.79v-3.21h8.66Z"/>
  </g>
</svg>