<?xml version="1.0" encoding="UTF-8"?>
<svg id="Laag_1" data-name="Laag 1" xmlns="http://www.w3.org/2000/svg" xmlns:xlink="http://www.w3.org/1999/xlink" viewBox="0 0 135.99 220.94">
  <defs>
    <style>
      .cls-1, .cls-2, .cls-3 {
        fill: none;
      }

      .cls-2 {
        stroke-linecap: round;
        stroke-linejoin: round;
      }

      .cls-2, .cls-4, .cls-3 {
        stroke: #233260;
      }

      .cls-5 {
        fill: #21b501;
      }

      .cls-6, .cls-4 {
        fill: #dbbb00;
      }

      .cls-4, .cls-7, .cls-3 {
        stroke-miterlimit: 10;
      }

      .cls-8, .cls-7 {
        fill: #233260;
      }

      .cls-9 {
        clip-path: url(#clippath);
      }

      .cls-7 {
        stroke: #dbbb00;
        stroke-width: 1.4px;
      }

      .cls-3 {
        stroke-width: 1px;
      }
    </style>
    <clipPath id="clippath">
      <path class="cls-1" d="M67.61,8.61c-32.58,0-58.98,26.41-58.98,58.98v144.38h117.97V67.59c0-32.58-26.41-58.98-58.98-58.98Z"/>
    </clipPath>
  </defs>
  <path class="cls-6" d="M135.99,220.94H0V65.64C0,48.08,7.09,31.58,19.97,19.18,32.8,6.81,49.86,0,68,0s35.19,6.81,48.03,19.18c12.87,12.4,19.97,28.9,19.97,46.46v155.3ZM7.41,213.53h121.17V65.64c0-32.11-27.18-58.23-60.59-58.23S7.41,33.53,7.41,65.64v147.89Z"/>
  <path class="cls-8" d="M67.61,3.65C32.1,3.65,3.32,31.38,3.32,65.58v151.6h128.58V65.58c0-34.2-28.78-61.93-64.29-61.93Z"/>
  <g class="cls-9">
    <path class="cls-5" d="M67.61,8.61c-32.58,0-58.98,26.41-58.98,58.98v144.38h117.97V67.59c0-32.58-26.41-58.98-58.98-58.98Z"/>
    <path class="cls-6" d="M130.3,186.72l-125.38-.25v-118.88c0-16.74,6.52-32.49,18.36-44.33,11.84-11.84,27.58-18.36,44.33-18.36s32.49,6.52,44.33,18.36c11.84,11.84,18.36,27.58,18.36,44.33v119.13ZM12.33,179.08l110.56.22v-111.7c0-30.48-24.8-55.28-55.28-55.28S12.33,37.11,12.33,67.59v111.48Z"/>
    <path class="cls-8" d="M132.53,138.09l-37-36.91c-7.84,6.52-17.68,10.09-27.92,10.09s-20.09-3.57-27.93-10.09L5.69,135.09l-5.27-5.28,33.96-33.87c-5.91-6.93-9.52-15.56-10.29-24.62H5.52v-7.46h18.57c.78-9.21,4.48-17.94,10.55-24.92l-17.35-17.35,5.27-5.27,17.43,17.43c6.79-5.55,15.16-8.94,23.89-9.68V-1.19h7.46v25.26c8.97.77,17.52,4.31,24.41,10.11l17.86-17.86,5.27,5.27-17.86,17.86c5.8,6.89,9.35,15.44,10.11,24.41h19.88v7.46h-19.88c-.77,9.07-4.38,17.69-10.3,24.63l36.96,36.87-5.27,5.28ZM95.68,96.11l36.84,36.75.03-.03-36.84-36.75,1.21-1.31c6.43-6.93,10.2-15.95,10.61-25.38l.08-1.77h19.68v-.05h-19.68l-.08-1.77c-.41-9.33-4.12-18.27-10.43-25.18l-1.2-1.31,17.72-17.72-.03-.03-17.72,17.72-1.31-1.2c-6.9-6.31-15.84-10.02-25.18-10.43l-1.77-.08V2.51h-.05v25.06l-1.77.08c-9.1.4-17.87,3.95-24.7,10l-1.31,1.16-17.25-17.25-.03.03,17.25,17.25-1.24,1.31c-6.58,6.97-10.44,16.08-10.86,25.65l-.08,1.77H9.22v.05h18.37l.08,1.77c.42,9.43,4.18,18.44,10.61,25.37l1.21,1.31L5.66,129.82l.03.03,33.84-33.75,1.3,1.18c7.35,6.64,16.86,10.29,26.77,10.29s19.42-3.65,26.77-10.29l1.31-1.18Z"/>
    <rect class="cls-6" x="65.73" y=".66" width="3.75" height="66.93"/>
    <rect class="cls-6" x="43.01" y="10.46" width="3.75" height="66.93" transform="translate(-17.91 44.61) rotate(-45)"/>
    <rect class="cls-6" x="57.81" y="42.05" width="66.93" height="3.75" transform="translate(-4.33 77.4) rotate(-45)"/>
    <rect class="cls-6" x="98.62" y="53.75" width="3.75" height="94.23" transform="translate(-41.89 100.77) rotate(-45.07)"/>
    <rect class="cls-6" x="-8.77" y="97.49" width="89.99" height="3.75" transform="translate(-59.6 54.6) rotate(-44.93)"/>
    <rect class="cls-6" x="7.37" y="65.71" width="121.79" height="3.75"/>
    <path class="cls-6" d="M109.44,67.59c0,23.1-18.73,41.83-41.83,41.83s-41.83-18.73-41.83-41.83,18.73-41.83,41.83-41.83,41.83,18.73,41.83,41.83Z"/>
  </g>
  <rect class="cls-8" x="3.32" y="182.92" width="128.58" height="34.26"/>
  <path class="cls-5" d="M39.48,188.19v1.82h-.77l-1.96,7.31h-2.48l-1.51-5.89-1.52,5.89h-2.48l-1.96-7.31h-.75v-1.82h4.02v1.82h-1.12l1.13,4.55,1.68-6.37h2.03l1.66,6.37,1.13-4.55h-1.1v-1.82h4.02Z"/>
  <path class="cls-5" d="M43.16,195.47h.91v1.82h-4.03v-1.82h.91v-5.46h-.91v-1.82h4.03v1.82h-.91v5.46Z"/>
  <path class="cls-5" d="M55.17,188.19v1.82h-.91v7.28h-2.5l-3.8-6.01v4.19h1.07v1.82h-4.19v-1.82h.91v-5.46h-.91v-1.82h3.42l3.78,5.97v-4.15h-1.08v-1.82h4.2Z"/>
  <path class="cls-5" d="M63.8,188.19v3.21h-1.81v-1.39h-3.06v1.95h1.11v-.61h1.43v2.78h-1.43v-.61h-1.11v1.95h3.06v-1.39h1.81v3.21h-7.98v-1.82h.91v-5.46h-.91v-1.82h7.98Z"/>
  <path class="cls-5" d="M66.79,190.79c0,.19.06.35.19.47.13.13.32.23.57.3.25.07.5.13.76.18.26.04.57.1.95.16s.69.12.94.19c1.49.34,2.24,1.17,2.24,2.5,0,.88-.31,1.57-.94,2.08s-1.5.77-2.63.77-2-.35-2.56-1.04v.9h-1.79v-3.22h1.87c.23,1.03.94,1.55,2.16,1.55.53,0,.94-.08,1.25-.25.3-.17.45-.41.45-.72,0-.22-.1-.41-.31-.55s-.48-.24-.81-.3c-.33-.06-.7-.12-1.1-.17-.4-.05-.81-.13-1.21-.24-.4-.11-.77-.25-1.1-.43-.33-.18-.6-.45-.81-.81s-.31-.8-.31-1.32c0-.88.3-1.57.91-2.06s1.44-.73,2.51-.73c1.14,0,2,.31,2.56.94v-.78h1.79v3.21h-1.91c-.1-.53-.32-.92-.65-1.17-.33-.25-.8-.38-1.42-.38-1.07,0-1.6.31-1.6.94Z"/>
  <path class="cls-5" d="M81.67,188.19v3.21h-1.79v-1.39h-1.43v5.46h1.48v1.82h-5.17v-1.82h1.48v-5.46h-1.43v1.39h-1.79v-3.21h8.66Z"/>
  <path class="cls-5" d="M90.5,196.13c-.88.88-2.04,1.31-3.48,1.31s-2.6-.44-3.47-1.31c-.88-.88-1.31-2.04-1.31-3.48s.44-2.49,1.31-3.34c.88-.85,2.03-1.27,3.47-1.27s2.61.42,3.48,1.27c.88.85,1.31,1.96,1.31,3.34,0,1.45-.44,2.61-1.32,3.48ZM87.02,195.4c.77,0,1.38-.25,1.83-.75.46-.51.69-1.18.69-2,0-.78-.23-1.4-.69-1.87-.46-.47-1.07-.7-1.83-.7s-1.37.24-1.82.71c-.45.46-.68,1.08-.68,1.86,0,.83.23,1.5.68,2,.46.5,1.06.75,1.81.75Z"/>
  <path class="cls-5" d="M100.35,195.62c.16,0,.33-.03.53-.08v1.75c-.38.09-.75.13-1.11.13-1.14,0-1.99-.56-2.53-1.68l-.75-1.57h-1.01v1.29h.84v1.82h-3.95v-1.82h.9v-5.46h-.9v-1.82h4.32c1.21,0,2.14.27,2.81.8s1.01,1.27,1.01,2.22c0,1.3-.61,2.18-1.83,2.65l.44.91c.27.57.68.86,1.23.86ZM95.47,190.01v2.48h1.25c.49,0,.86-.11,1.12-.34.26-.23.4-.54.4-.94s-.13-.68-.39-.89c-.26-.21-.64-.32-1.13-.32h-1.25Z"/>
  <path class="cls-5" d="M109.52,188.19v3.21h-1.81v-1.39h-3.06v1.95h1.11v-.61h1.43v2.78h-1.43v-.61h-1.11v1.95h3.06v-1.39h1.81v3.21h-7.98v-1.82h.91v-5.46h-.91v-1.82h7.98Z"/>
  <path class="cls-5" d="M67.6,204.63l-2.15,2.64,2.2,2.82h.85v1.82h-4.41v-1.82h1.01l-1.38-1.81-1.38,1.81h1v1.82h-4.39v-1.82h.85l2.18-2.81-2.15-2.65h-.88v-1.82h4.39v1.82h-.96l1.33,1.75,1.35-1.75h-.98v-1.82h4.41v1.82h-.9Z"/>
  <path class="cls-5" d="M74.82,208.33h1.79v3.59h-7.57v-1.82h.91v-5.46h-.91v-1.82h4.39v1.82h-1.27v5.46h2.65v-1.77Z"/>
  <path class="cls-7" d="M44.62,87.52c.6.55,1.23,1.08,1.89,1.55,1.94,1.3,4.01,2.4,6.17,3.3l.98.45c1.34.62,2.59,1.11,3.82,1.59,3.56,1.4,6.62,2.62,9.79,5.88l2.5,2.64-.02.02,2.23,2.35,3.24-3.07c-.69-.73-1.44-1.52-2.27-2.31l-.02.02-2.5-2.64c-3.55-3.83-4.91-8.09-6.18-12.23-1.12-3.58-2.17-6.95-4.57-10.17-2.24-2.81-4.67-5.46-7.29-7.91-1.25-1.21-2.54-2.48-3.73-3.73l-8.86-9.35c-.67-.74-1.82-.8-2.56-.13,0,0,0,0,0,0l-11.61,11.01c-.72.7-.73,1.86-.03,2.57h0s2.04,2.15,2.04,2.15l17,18Z"/>
  <path class="cls-5" d="M44.72,86.64c.14.13.28.26.43.38l7.6-7.23-17.02-17.96-7.58,7.18,1.28,1.35,15.3,16.27Z"/>
  <g>
    <g>
      <path class="cls-8" d="M91.05,100.45c-.29,0-.57-.06-.83-.19l-14.93-7.22c-.45-.22-.8-.62-.97-1.09-.16-.47-.13-1,.08-1.45l10.75-22.21c2.82-5.83,6.28-8.1,8.56-9.6.4-.26.71-.46.98-.66,3.3-2.36,5.99-7.3,7.09-9.43-.32-.51-.38-1.17-.1-1.73.28-.58.84-.96,1.48-1l.21-.42c.33-.65.98-1.05,1.7-1.05.29,0,.57.06.83.19l3.29,1.59c.93.45,1.33,1.57.9,2.51l-.16.34c.16.17.28.38.35.6.16.45.13.93-.08,1.36-.22.46-.63.8-1.12.94-.16.04-.32.07-.48.07-.02,0-.03,0-.05,0-1,2.23-3.14,7.31-2.95,11.32.02.36.05.75.09,1.18.24,2.73.61,6.84-2.21,12.68l-10.74,22.21c-.24.49-.67.85-1.19,1-.17.05-.34.07-.52.07Z"/>
      <path class="cls-6" d="M105.08,45.12c.17,0,.35.04.52.12l3.29,1.59c.59.28.84.99.57,1.58l-.4.84h.02c.53.27.76.91.5,1.44-.14.29-.39.49-.68.57-.09.03-.19.04-.29.04-.15,0-.31-.03-.46-.1-1.53,3.37-3.43,8.17-3.24,12.15.02.37.05.77.09,1.21.24,2.65.6,6.65-2.14,12.31l-10.74,22.21c-.16.32-.43.54-.75.63-.11.03-.22.05-.33.05-.18,0-.35-.04-.52-.12l-14.93-7.22c-.29-.14-.51-.39-.61-.69-.1-.3-.08-.63.05-.92l10.75-22.21c2.74-5.66,6.09-7.86,8.32-9.32.36-.24.7-.46,1.01-.68,3.24-2.32,5.83-6.81,7.52-10.1-.4-.3-.54-.86-.32-1.32.18-.38.57-.6.97-.6.1,0,.2.01.3.04l.42-.85c.21-.42.63-.66,1.07-.66M105.08,43.72c-.99,0-1.88.55-2.32,1.43l-.05.11c-.71.17-1.32.66-1.64,1.33-.32.65-.32,1.39-.05,2.03-1.17,2.23-3.69,6.7-6.71,8.86-.27.2-.57.39-.9.6l-.06.04c-2.35,1.54-5.9,3.87-8.81,9.88l-10.75,22.21c-.3.62-.34,1.34-.12,1.99.23.65.69,1.18,1.32,1.48l14.93,7.22c.36.17.74.26,1.13.26.24,0,.48-.03.71-.1.71-.2,1.31-.7,1.63-1.37l10.74-22.21c2.91-6.01,2.53-10.24,2.28-13.04-.04-.44-.07-.81-.09-1.15-.18-3.64,1.69-8.28,2.72-10.62.08-.01.17-.03.25-.06.68-.19,1.25-.67,1.56-1.31.29-.59.33-1.26.11-1.89-.05-.16-.12-.31-.21-.45.57-1.28.01-2.79-1.24-3.4l-3.29-1.59c-.35-.17-.74-.26-1.13-.26h0Z"/>
    </g>
    <path class="cls-5" d="M101.98,74.94l-5.05,8.94c-.13.22-.33.38-.56.44-.21.06-.45.05-.67-.06l-10.73-5.19c-.45-.22-.65-.74-.46-1.2l3.87-9.51c.1-.24.29-.43.53-.52.24-.09.51-.08.75.03l2.92,1.41c1-1.13,2.77-1.51,4.15-.84,1.44.7,2.19,2.27,1.92,3.77l2.92,1.41c.23.11.41.32.49.57.08.25.05.52-.08.74Z"/>
  </g>
  <g>
    <path class="cls-7" d="M36.42,91.7l-6.99-13.26c-.37-.71-1.26-.99-1.97-.61l-3.81,2.01c-.71.37-.99,1.26-.61,1.97l6.9,13.09c-2.69,2.98-3.4,7.45-1.42,11.19l2.1,3.99,12.8,24.27,4.94,9.38c.25.47.84.66,1.32.41l15.69-8.28c.47-.25.66-.84.41-1.32l-4.94-9.38-12.8-24.27-2.1-3.99c-1.89-3.58-5.7-5.51-9.51-5.21Z"/>
    <rect class="cls-5" x="38.98" y="100.84" width="9.12" height="25.29" transform="translate(-47.91 33.42) rotate(-27.81)"/>
  </g>
  <path class="cls-7" d="M100.33,116.83l9.86-12.06c.53-.65.43-1.61-.21-2.14l-3.47-2.84c-.65-.53-1.61-.43-2.14.21l-9.73,11.91c-3.94-1.36-8.5-.23-11.29,3.17l-2.97,3.63-18.04,22.08-6.97,8.53c-.35.43-.29,1.07.14,1.42l14.28,11.67c.43.35,1.07.29,1.42-.14l6.97-8.53,18.04-22.08,2.97-3.63c2.66-3.25,2.97-7.69,1.14-11.21Z"/>
  <rect class="cls-5" x="76" y="117.55" width="15.78" height="26.28" transform="translate(101.64 -23.59) rotate(39.26)"/>
  <path class="cls-8" d="M39.1,145.52v30.16l1.52,1.52h54.02l1.49-1.52v-30.16h-57.03ZM53.88,171.92c0,1.17-.95,2.11-2.11,2.11h-2.11c-1.17,0-2.11-.95-2.11-2.11v-21.12c0-1.17.95-2.11,2.11-2.11h2.11c1.17,0,2.11.95,2.11,2.11v21.12ZM70.78,171.92c0,1.17-.95,2.11-2.11,2.11h-2.11c-1.17,0-2.11-.95-2.11-2.11v-21.12c0-1.17.95-2.11,2.11-2.11h2.11c1.17,0,2.11.95,2.11,2.11v21.12ZM87.67,171.92c0,1.17-.95,2.11-2.11,2.11h-2.11c-1.17,0-2.11-.95-2.11-2.11v-21.12c0-1.17.95-2.11,2.11-2.11h2.11c1.17,0,2.11.95,2.11,2.11v21.12Z"/>
  <g>
    <polyline class="cls-6" points="84.51 124.4 84.51 126.51 50.71 126.51 50.71 124.4"/>
    <polyline class="cls-6" points="35.93 143.41 35.93 139.18 99.29 139.18 99.29 143.41"/>
  </g>
  <path class="cls-8" d="M100.35,137.07h-16.9v-8.45h2.11c.58,0,1.06-.47,1.06-1.06v-4.22c0-.58-.47-1.06-1.06-1.06h-35.91c-.58,0-1.06.47-1.06,1.06v4.22c0,.58.47,1.06,1.06,1.06h2.11v8.45h-16.9c-.58,0-1.06.47-1.06,1.06v6.34c0,.58.47,1.06,1.06,1.06h2.11v30.63c0,.28.11.55.31.75l2.11,2.11c.2.2.47.31.75.31h54.92c.28,0,.55-.11.75-.31l2.11-2.11c.2-.2.31-.47.31-.75v-30.63h2.11c.58,0,1.06-.47,1.06-1.06v-6.34c0-.58-.47-1.06-1.06-1.06ZM50.71,126.51v-2.11h33.79v2.11h-33.79ZM81.34,128.62v8.45h-27.46v-8.45h27.46ZM96.12,175.68l-1.49,1.52h-54.02l-1.52-1.52v-30.16h57.03v30.16ZM99.29,143.41h-63.36v-4.22h63.36v4.22Z"/>
  <g>
    <path class="cls-6" d="M66.55,174.03h2.11c1.17,0,2.11-.95,2.11-2.11v-21.12c0-1.17-.95-2.11-2.11-2.11h-2.11c-1.17,0-2.11.95-2.11,2.11v21.12c0,1.17.95,2.11,2.11,2.11ZM66.55,150.8h2.11v21.12h-2.11v-21.12Z"/>
    <path class="cls-6" d="M83.45,174.03h2.11c1.17,0,2.11-.95,2.11-2.11v-21.12c0-1.17-.95-2.11-2.11-2.11h-2.11c-1.17,0-2.11.95-2.11,2.11v21.12c0,1.17.95,2.11,2.11,2.11ZM83.45,150.8h2.11v21.12h-2.11v-21.12Z"/>
    <path class="cls-6" d="M49.66,174.03h2.11c1.17,0,2.11-.95,2.11-2.11v-21.12c0-1.17-.95-2.11-2.11-2.11h-2.11c-1.17,0-2.11.95-2.11,2.11v21.12c0,1.17.95,2.11,2.11,2.11ZM49.66,150.8h2.11v21.12h-2.11v-21.12Z"/>
    <rect class="cls-6" x="42.26" y="148.69" width="2.11" height="2.11"/>
    <rect class="cls-6" x="42.26" y="171.92" width="2.11" height="2.11"/>
    <rect class="cls-6" x="42.91" y="152.91" width=".82" height="16.9"/>
    <rect class="cls-6" x="58.1" y="148.69" width="2.11" height="2.11"/>
    <rect class="cls-6" x="58.1" y="171.92" width="2.11" height="2.11"/>
    <rect class="cls-6" x="58.75" y="152.91" width=".82" height="16.9"/>
    <rect class="cls-6" x="75" y="148.69" width="2.11" height="2.11"/>
    <rect class="cls-6" x="75" y="171.92" width="2.11" height="2.11"/>
    <rect class="cls-6" x="75.65" y="152.91" width=".82" height="16.9"/>
    <rect class="cls-6" x="90.84" y="148.69" width="2.11" height="2.11"/>
    <rect class="cls-6" x="90.84" y="171.92" width="2.11" height="2.11"/>
    <rect class="cls-6" x="91.49" y="152.91" width=".82" height="16.9"/>
  </g>
  <polygon class="cls-8" points="59.75 63.19 58.7 58.87 58.6 58.44 56.61 58.92 57.85 64.03 59.83 63.55 59.75 63.19"/>
  <polygon class="cls-8" points="75.36 54.32 73.38 54.8 73.48 55.22 74.53 59.54 74.62 59.9 76.6 59.42 75.36 54.32"/>
  <path class="cls-5" d="M66.64,62.52c.07-.01.15-.02.22-.04l1.29,5.34c-.09.14-.49.39-.71.53-.59.37-1.33.84-1.15,1.56s1.04.8,1.74.86c.23.02.62.05.81.12-.14.14-.47.35-.67.47-.59.37-1.33.84-1.16,1.56s1.04.8,1.74.86c.23.02.62.05.81.12-.14.14-.47.35-.67.47-.59.37-1.33.84-1.16,1.56s1.04.8,1.74.86c.23.02.62.05.81.12-.14.14-.47.35-.67.47-.59.37-1.33.84-1.16,1.56.06.27.33.43.6.36.25-.06.41-.3.37-.55.09-.14.49-.39.71-.53.59-.37,1.33-.84,1.16-1.56s-1.04-.8-1.74-.86c-.23-.02-.62-.05-.81-.12.14-.14.47-.35.67-.47.59-.37,1.33-.84,1.16-1.56s-1.04-.8-1.74-.86c-.23-.02-.62-.05-.81-.12.14-.14.47-.35.67-.47.59-.37,1.33-.84,1.16-1.56s-1.04-.8-1.74-.86c-.23-.02-.62-.05-.81-.12.14-.14.47-.35.66-.47.59-.37,1.33-.84,1.15-1.56l-1.3-5.37s0,0,0,0c-.42.11-.9.21-1.19.27Z"/>
  <path class="cls-8" d="M59.11,59.13l.84,3.48,3.49.14c1.01.04,2.03-.03,3.02-.2l1.71-.41c1.02-.31,2-.72,2.92-1.24l3.04-1.72-.84-3.48-14.18,3.43Z"/>
  <path d="M66.38,62.56s.1-.02.26-.05c-.06.01-.11.02-.17.03l-.09.02Z"/>
  <path d="M68.27,62.12l-.1.02c-.12.04-.24.08-.35.11.16-.04.32-.09.45-.13Z"/>
  <path d="M66.64,62.52c.29-.06.76-.16,1.19-.27.12-.03.24-.07.35-.11l-1.71.41c.06,0,.11-.02.17-.03Z"/>
  <g>
    <g>
      <path class="cls-5" d="M88.49,53.69c-.16,0-.46-.06-1.01-.32l-14.08-6.68c-.25-.12-.36-.42-.24-.67l4.68-9.86c.06-.12.16-.21.28-.26.05-.02.11-.03.17-.03.07,0,.15.02.21.05l14.08,6.68c.49.23.8.45.92.63.17.26.25.52.26.78.03.83.5,1.87.95,2.87.65,1.44,1.26,2.79.82,3.71-.43.92-1.87,1.3-3.39,1.71-1.07.29-2.18.59-2.83,1.08-.21.16-.45.26-.71.29-.02,0-.1,0-.12,0Z"/>
      <path class="cls-8" d="M78.29,36.38l2.55,1.21,2.28,1.08s0,0,0,0h0s.93.44.93.44l.12.06,8.2,3.89c.61.29.72.45.72.45l.04.05c.09.13.14.29.14.47v.03c.04.9.52,1.97.99,3.03.58,1.29,1.16,2.58.82,3.29-.34.71-1.7,1.07-3.07,1.44-1.14.31-2.28.61-3,1.17-.14.11-.3.17-.45.19h-.06s0,0,0,0c-.03,0-.25-.01-.8-.27l-14.08-6.68,4.68-9.86M78.29,35.38c-.37,0-.73.21-.9.57l-4.68,9.86c-.11.24-.13.51-.04.76.09.25.27.45.51.57l14.08,6.68c.51.24.93.37,1.23.37.02,0,.04,0,.06,0h.07c.38-.04.71-.18,1-.4.56-.43,1.62-.72,2.65-.99,1.63-.44,3.18-.85,3.71-1.98.54-1.13-.12-2.59-.81-4.13-.43-.96-.88-1.95-.9-2.66,0,0,0-.05,0-.06,0-.32-.11-.66-.3-.95l-.06-.08c-.09-.14-.33-.41-1.11-.78l-8.2-3.89-.12-.06-.93-.44s-.02,0-.03-.01l-2.25-1.07-2.55-1.21c-.14-.07-.28-.1-.43-.1h0Z"/>
    </g>
    <circle class="cls-4" cx="92.93" cy="49.41" r="1.17"/>
    <g>
      <line class="cls-3" x1="93.08" y1="43.51" x2="91.89" y2="46.08"/>
      <line class="cls-3" x1="89.77" y1="50.65" x2="88.57" y2="53.22"/>
    </g>
    <rect class="cls-6" x="78.51" y="38.84" width="7.88" height="11.12" rx="2" ry="2" transform="translate(157.44 -11.67) rotate(114.91)"/>
    <path class="cls-8" d="M80.61,45.55l-.6,1.29c-.62-.4-1.01-.91-1.17-1.54-.16-.62-.07-1.3.27-2.03.31-.67.73-1.15,1.26-1.44.53-.29,1.12-.37,1.77-.24l.31-.66.65.3-.27.57s.08.03.15.06c.06.03.1.05.13.07l.27-.57.66.31-.31.66c.49.4.79.9.9,1.48.1.58,0,1.21-.31,1.88-.33.72-.78,1.23-1.33,1.52-.56.29-1.17.34-1.85.14l.61-1.31c.31.04.59,0,.84-.16.25-.15.45-.39.59-.72.25-.55.23-1.03-.08-1.46l-.65,1.39-.66-.31.73-1.57s-.06-.04-.13-.07c-.06-.03-.11-.05-.15-.06l-.73,1.57-.65-.3.66-1.41c-.57,0-.99.29-1.26.86-.16.34-.21.65-.15.96.06.3.23.56.5.78Z"/>
  </g>
  <path class="cls-2" d="M93.29,49.38s9.57-1.08,10.44,1.78"/>
</svg>