<?xml version="1.0" encoding="UTF-8"?>
<svg id="Layer_1" data-name="Layer 1" xmlns="http://www.w3.org/2000/svg" viewBox="0 0 924.4 924.4">
  <defs>
    <style>
      .cls-1 {
        fill: #21b501;
      }

      .cls-2 {
        fill: #dbbb00;
        stroke: #233260;
        stroke-miterlimit: 10;
        stroke-width: 24.4px;
      }

      .cls-3 {
        fill: #233260;
      }
    </style>
  </defs>
  <path class="cls-2" d="M912.2,462.2c0,248.53-201.47,450-449.99,450S12.2,710.73,12.2,462.2,213.68,12.2,462.21,12.2s449.99,201.47,449.99,450Z"/>
  <path class="cls-1" d="M703.17,514.68c18.78-17.46,23.3-42.73,11.78-65.49-.63-1.25-.44-3.08-.21-4.58.75-4.96,2.92-10.05,2.33-14.81-1.95-15.71-4.19-31.45-7.62-46.89-2.99-13.46-9.64-25.65-21.61-33.19-6.7-4.23-10.56-8.69-12.67-16.56-3.52-13.13-13.55-22.01-24.62-29.18-13.19-8.54-26.67-16.67-40.24-24.6-8.77-5.13-18.29-8.03-28.7-7.04-1.1.1-2.57-.9-3.45-1.8-5.86-6.03-12.96-9.56-21.25-10.49-11.79-1.31-22.67,1.78-32.95,7.37-2.59,1.41-5.15,2.84-7.6,4.19-.53-.49-.79-.63-.89-.84-10.21-21.3-41.41-25.87-58.02-15.13-1.04.67-2.67.89-3.94.7-18.76-2.77-36.14.99-52.36,10.68-1.15.69-2.81.72-4.24.73-6.56.04-13.35-1.17-19.64.12-20.27,4.17-38.86,13.01-57.04,22.64-10.38,5.5-19.43,12.53-24.97,23.32-.43.84-1.69,1.59-2.67,1.76-6.59,1.13-12.65,3.73-17.44,8.18-7.39,6.87-14.99,13.77-21.01,21.79-10.45,13.9-19.56,28.74-30.9,42.06-8.39,9.86-12,21.75-9.56,34.97.2,1.09-.17,2.65-.88,3.48-6.43,7.63-9.51,16.66-10.96,26.3-3.9,25.99-.1,51.04,9.82,75.22,5.54,13.5,14.88,22.35,30.08,23.79,1.18.11,2.44,1.23,3.35,2.17,14.84,15.38,32.54,21.63,53.75,17.14,1.27-.27,3.02.27,4.15,1.03,6.8,4.57,14.31,6.73,22.41,6.92,2.95.07,5.91-.22,8.97-.36,3.23,15.44,12.24,26.36,25.67,33.35,23.54,12.25,48.57,15.04,74.21,8.79,11.41-2.78,22.33-7.63,33.42-11.71,1.92-.71,3.13-1.02,4.68.78,6.72,7.84,15.58,11.46,25.68,12.27,9.36.76,18.37-.96,27.17-4.1,1.17-.42,2.99-.73,3.8-.14,6.26,4.6,11.62,9.98,14.14,17.64,2.47,7.53,5.32,14.94,7.47,22.56,5,17.73,13.61,33.08,28.04,44.88,6.5,5.31,13.44,9.81,21.58,12.17,22.19,6.44,44.33-7.98,46.27-30.14.83-9.46-1.49-18.4-5.11-26.95-6.71-15.83-9.12-32.73-13.27-49.78,2.06-.59,3.66-1.04,5.26-1.49,23.78-6.71,43.85-19.13,58.06-39.6,10.19-14.68,15.58-30.82,10.52-49.02-.25-.88.46-2.43,1.22-3.14Z"/>
  <g>
    <path class="cls-3" d="M628.11,607.93c4.15,17.05,6.56,33.95,13.27,49.78,3.62,8.55,5.94,17.49,5.11,26.95-1.95,22.15-24.09,36.57-46.27,30.14-8.14-2.36-15.08-6.86-21.58-12.17-14.43-11.8-23.04-27.15-28.04-44.88-2.15-7.62-5-15.03-7.47-22.56-2.51-7.65-7.88-13.04-14.14-17.64-.81-.6-2.64-.28-3.8.14-8.8,3.14-17.81,4.86-27.17,4.1-10.1-.81-18.96-4.43-25.68-12.27-1.54-1.8-2.75-1.49-4.68-.78-11.08,4.07-22,8.92-33.42,11.71-25.65,6.25-50.68,3.45-74.21-8.79-13.43-6.99-22.44-17.91-25.67-33.35-3.06.13-6.02.43-8.97.36-8.1-.19-15.61-2.36-22.41-6.92-1.13-.76-2.88-1.3-4.15-1.03-21.2,4.49-38.9-1.76-53.75-17.14-.91-.95-2.17-2.06-3.35-2.17-15.2-1.44-24.54-10.28-30.08-23.79-9.92-24.19-13.72-49.23-9.82-75.22,1.45-9.64,4.53-18.67,10.96-26.3.7-.84,1.08-2.39.88-3.48-2.44-13.22,1.17-25.11,9.56-34.97,11.34-13.32,20.45-28.17,30.9-42.06,6.02-8.01,13.63-14.92,21.01-21.79,4.78-4.45,10.85-7.05,17.44-8.18.98-.17,2.24-.92,2.67-1.76,5.54-10.79,14.59-17.82,24.97-23.32,18.18-9.63,36.77-18.47,57.04-22.64,6.29-1.29,13.08-.09,19.64-.12,1.42,0,3.08-.04,4.23-.73,16.22-9.69,33.6-13.45,52.36-10.68,1.27.19,2.9-.03,3.94-.7,16.61-10.74,47.81-6.17,58.02,15.13.1.21.36.35.89.84,2.44-1.35,5.01-2.79,7.6-4.19,10.28-5.59,21.16-8.69,32.95-7.37,8.29.92,15.39,4.46,21.25,10.49.88.9,2.35,1.91,3.45,1.8,10.42-.98,19.93,1.92,28.7,7.04,13.57,7.93,27.05,16.06,40.24,24.6,11.08,7.17,21.1,16.05,24.62,29.18,2.11,7.88,5.97,12.34,12.67,16.56,11.97,7.55,18.62,19.74,21.61,33.19,3.43,15.44,5.67,31.18,7.62,46.89.59,4.76-1.58,9.85-2.33,14.81-.23,1.5-.42,3.33.21,4.58,11.53,22.76,7,48.03-11.78,65.49-.76.71-1.47,2.25-1.22,3.14,5.06,18.2-.33,34.34-10.52,49.02-14.21,20.47-34.28,32.89-58.06,39.6-1.6.45-3.2.91-5.26,1.49ZM484.17,471.82c14.78-10.21,28.94-20.06,38.82-34.72,1.34-1.99,2.06-4.46,2.81-6.79,1.27-3.95,4.29-6.03,7.86-5.16,3.61.88,6.02,4.22,4.72,8.06-1.73,5.1-3.47,10.63-6.79,14.67-5.98,7.28-12.53,14.36-19.92,20.16-28.26,22.19-60.15,37.88-93.65,50.45-13.69,5.13-26.95,11.01-38.72,19.82-7.36,5.51-13.84,11.86-17.8,20.34-6.04,12.94-2.92,23.22,9.22,30.7,1.33.82,2.7,1.58,4.13,2.19,16.21,6.95,33.09,9.01,50.37,5.69,15.95-3.07,30.88-9.36,44.98-17.24,25.96-14.52,51.44-29.9,77.51-44.23,29.59-16.26,61.15-26.63,95.1-28.91,5.96-.4,12.01-.68,17.83-1.91,7.44-1.58,15.05-3.29,21.94-6.38,9.38-4.21,13.43-12.51,13.63-22.75.21-10.97-3.73-19.49-13.88-24.59-7.11-3.57-14.65-5.18-22.57-5.27-4.16-.05-6.88-2.63-6.86-6.34.01-3.86,3.03-6.73,7.24-6.37,2.95.25,5.83,1.2,8.75,1.79,5.2,1.06,10.37,2.61,15.63,3.02,6.26.49,8.9-2.69,8.05-8.92-1.43-10.44-2.82-20.89-4.74-31.24-1.74-9.37-4.43-18.52-11.32-25.68-6.49-6.74-12.71-6.69-18.38.72-3.69,4.82-6.46,10.34-9.67,15.53-2.19,3.53-4.14,7.25-6.71,10.48-3.3,4.16-7.51,3.73-10-.93-.97-1.83-1.76-4.45-1.19-6.27,1.47-4.78,3.22-9.62,5.79-13.87,3.84-6.32,8.64-12.04,12.74-18.2,5.78-8.68,5.5-18.19-1.56-25.84-4.25-4.61-9.48-8.49-14.76-11.95-9.79-6.39-19.9-12.3-29.96-18.26-3.45-2.04-7.06-3.91-10.79-5.37-6.93-2.73-13.26-1.23-17.97,4.46-3.03,3.65-5.46,7.9-7.58,12.17-2.07,4.17-3.36,8.72-5.06,13.08-1.52,3.91-5.21,5.66-8.72,4.24-3.35-1.36-4.84-5.03-3.36-8.79.76-1.92,1.82-3.74,2.96-5.47,2.22-3.36,4.66-6.58,6.89-9.94,2.75-4.13,4.14-8.63,3.58-13.66-.71-6.36-4.05-9.61-10.4-9.87-6.35-.26-11.88,2.26-17.38,5.06-6.01,3.05-12.03,6.18-18.29,8.64-6.66,2.61-13.65,3.38-20.53.41-4.07-1.76-5.02-3.81-3.94-8.04.32-1.26.77-2.48,1.06-3.75.96-4.2-.22-6.94-3.9-9.25-9.66-6.06-21.16-2.6-25.59,7.83-1.32,3.1-2.03,6.44-3.26,9.58-1.84,4.7-3.46,9.56-5.93,13.92-5.98,10.53-11.98,21.13-22.27,28.86,12.67,2.93,24.17,2.65,34.37-5.95,3.71-3.13,9.14-1.23,10.34,3.25.84,3.13-.49,5.53-2.92,7.5-11.18,9.05-24.09,11.16-37.87,9.08-5.6-.85-11.07-2.59-17.53-4.15-.77,3.7-2.35,7.48-2.13,11.15.4,6.83,1.66,13.64,2.91,20.39,1.92,10.37,4.27,20.69,1.18,31.23-1.33,4.55-4.44,6.66-8.28,5.71-3.77-.94-5.14-4.37-4.42-9.04.68-4.45,1.21-9.06.83-13.51-1.05-12.17-3.08-13.88-15.35-14.61-8.64-.51-14.57,3.11-17.66,11.17-1.11,2.88-1.66,5.99-2.35,9.02-.94,4.14-4.05,6.48-7.87,5.77-3.38-.63-5.62-3.75-4.92-7.63.74-4.07,1.58-8.2,3.06-12.04,5-12.98,15.5-19.76,29.43-19.27,3.46.12,6.9.65,10.66,1.02-.14-2.12-.31-4.04-.39-5.96-.49-11.2,2.91-21.23,11.73-28.09,14.68-11.4,25.14-26.17,35.54-41.13.81-1.16,1.47-2.47,1.94-3.8,1.24-3.49.11-5.8-3.45-6.95-1.46-.47-3.05-.8-4.58-.8-18.36,0-33.75,5.61-42.99,22.83-1.29,2.4-2.59,4.84-4.21,7.02-9.53,12.82-18.93,25.74-28.88,38.23-3.24,4.07-7.87,7.11-12.11,10.27-2.11,1.57-5.25,2.46-7.11.05-1.48-1.93-2.55-4.97-2.22-7.29.44-3.07,1.88-6.39,3.87-8.77,5.73-6.86,11.82-13.44,18.02-19.88,4.59-4.77,9.7-9.05,14.34-13.77,2.53-2.58,4.9-5.46,6.71-8.56,1.2-2.06,1.3-4.76,1.9-7.18-2.41-.52-4.81-1.19-7.25-1.49-1.24-.15-2.58.27-3.83.62-18.88,5.26-36.65,13.16-53.59,22.95-7.61,4.4-11.66,11.12-12.97,19.79-1.26,8.34-3.01,16.6-4.5,24.9-.53,2.94-.93,5.9-1.37,8.85-.54,3.61.54,6.65,3.16,9.19,2.71,2.62,5.5,5.18,8,7.99,6.38,7.16,11.53,15.09,13.76,24.55,1.04,4.41-.28,6.86-3.52,7.98-4.05,1.4-7.65.17-9.41-3.81-1.52-3.42-2.4-7.12-3.61-10.68-1.58-4.66-2.8-9.51-4.93-13.91-2.65-5.5-6.8-6.91-12.7-5.33-9.26,2.47-13.29,8.56-13.04,19.01.12,5.16.15,10.42-.75,15.46-.45,2.55-3.05,4.71-4.68,7.05-2.16-1.7-4.86-3.02-6.37-5.17-5.91-8.43-5.51-17.6-.92-26.24,4.25-8,9.9-15.26,14.36-23.16,4-7.08,7.53-14.48,10.61-22,1.04-2.53,1.25-7.24-.26-8.58-2.87-2.55-5.92.89-8.42,2.7-7.8,5.63-13.73,13.05-19.01,21-7.98,12.02-15.53,24.35-25.62,34.82-1.07,1.11-1.93,2.45-2.81,3.74-7.29,10.67-5.77,19.36,4.97,26.65,4.29,2.91,9.02,5.16,13.45,7.88,2.76,1.69,5.52,3.47,7.95,5.59,3.07,2.68,3.15,6.59.61,9.36-2.54,2.77-6.29,2.84-9.38.11-1.66-1.46-3.1-3.2-4.86-4.51-3.43-2.55-6.78-5.34-10.57-7.24-7.37-3.69-12.88-1.41-15.84,6.32-1.24,3.24-2.03,6.73-2.49,10.18-2.75,20.71.29,40.68,8.2,59.95.83,2.02,1.89,4.03,3.23,5.75,3.68,4.73,9.18,4.21,11.96-1.03,1.28-2.41,2.23-5,3.62-7.34,2.04-3.41,5.4-4.47,9.1-3.21,3.91,1.33,3.97,4.52,3.44,7.69-.6,3.58-1.58,7.1-2.49,10.62-1.17,4.48.14,8.13,4.01,10.44,3.65,2.18,7.48,4.31,11.5,5.57,14.14,4.4,21.14-1.06,20.97-15.97-.02-2.08.02-4.18-.21-6.24-1.07-9.24-.77-18.22,1.72-27.38,3.14-11.56-1.56-17.45-13.51-18.07-5.02-.26-10.1.43-15.13.93-4.61.46-7.61-1.16-8.36-4.94-.78-3.94,1.4-7.18,6.13-7.83,5.77-.79,11.66-1.49,17.44-1.2,12.22.62,22.34,4.89,26.48,17.86.23.73,1.75,1.57,2.59,1.5,4.25-.38,8.6-.59,12.69-1.7,8.24-2.24,12.56-8.5,10.71-16.83-1.32-5.95-4.3-11.59-6.92-17.18-1.87-4-1.55-7.65,1.62-9.67,3.14-2,7.36-1.17,9.33,2.62,3.04,5.84,6.24,11.78,8.02,18.06,5.05,17.8-4.38,32.76-22.5,36.42-4.93,1-10,1.31-16.26,2.09-1.83,9.91-4.86,20.51-5.54,31.26-1.22,19.34,11.67,28.3,29.86,21.89,11.41-4.02,20.78-10.98,29.41-19.28,7.33-7.05,14.62-14.28,24.38-18.47-3.89-.33-7.73-.17-11.57-.23-1.76-.03-3.74-.06-5.21-.86-3.04-1.66-4.21-4.62-3.47-7.99.72-3.32,3.15-5.1,6.46-5.23,5.35-.21,10.72-.16,16.17-.22-.11-.6-.16-1.12-.31-1.6-5.66-18.26,1.06-33.1,12.97-46.42,2.41-2.69,6.18-2.69,8.8-.49,2.73,2.28,3.09,6.02.81,9.07-1.17,1.56-2.49,3.01-3.66,4.56-10.01,13.21-10.51,25.24-1.88,39.41,1.34,2.2,2.45,2.65,4.92,1.75,19.09-6.99,37.32-15.79,54.9-25.97.64-.37,1.2-.89,1.41-1.05-1.05-8.4-2.04-16.35-3.08-24.63-.73-.17-1.84-.43-2.95-.67-11.77-2.54-20.04-9.35-23.58-20.87-1.73-5.63-2.25-11.69-2.76-17.61-.39-4.45,2.39-7.26,6.25-7.37,3.91-.12,6.58,2.77,6.83,7.37.16,2.98.07,6.01.58,8.93,1.92,10.97,8.19,16.96,18.7,17.97.42-1.1.74-2.37,1.35-3.46,3.05-5.41,5.95-10.94,9.38-16.1,2.05-3.09,5.79-3.31,8.67-1.34,2.85,1.96,3.65,5.53,1.87,8.61-.45.78-1.07,1.47-1.61,2.2-8.67,11.91-10.65,25.09-7.38,40.14ZM648.48,516.6c-.07-.23-.14-.45-.22-.68-15.98,4.04-32.09,7.66-47.91,12.25-13.85,4.02-27.41,9.14-39.2,17.82-13.24,9.76-12.73,19.18,1.32,27.76,32.68,19.96,77.74,13.66,103.62-14.65,7.25-7.93,12.42-17.03,12.94-28.11.42-9.15-5.48-15.49-14.61-15.47-5.31.01-10.63.69-15.94,1.07ZM621.92,677.69c-1.04-3.34-2.03-6.7-3.12-10.02-2.65-8.14-5.71-16.16-7.92-24.42-3.52-13.17-6.53-26.48-9.64-39.75-.88-3.77-2.81-6.15-6.67-7.14-12.82-3.27-25.53-7.01-38.44-9.84-3.77-.82-8.21.3-12.08,1.44-3.9,1.15-4.49,4.09-1.98,7.31,1.51,1.93,3.26,3.77,5.21,5.22,10.11,7.49,16.26,17.71,20.29,29.35,3.86,11.16,7.06,22.58,11.43,33.54,4.96,12.44,14.16,21.49,26.34,26.89,9.94,4.41,17.75-1.91,16.58-12.58ZM522.5,565.71c-11.8,1.84-24.24,7.69-29.7,14.34-2.73,3.33-4.87,7.04-2.98,11.43,1.89,4.4,6.1,5.49,10.37,5.63,10.94.36,20.89-2.72,29.03-10.14,2.97-2.71,5.47-6.34,7.11-10.03,2.5-5.65-.36-10.11-6.46-11.01-2.41-.36-4.9-.17-7.36-.23Z"/>
    <path class="cls-3" d="M506.91,511.63q-4.37-3.83-9.69-.88c-18.41,10.32-37.74,18.61-57.38,26.25-1.87.73-4.01,2.31-4.77,4.05-2.67,6.15-5.31,12.4-6.95,18.86-1.34,5.27.74,7.92,5.69,10.05,4.22,1.81,5.9,4.92,4.6,8.51-1.36,3.76-4.98,5.15-9.35,3.59-10.2-3.65-15.48-12.58-13.98-24.14.51-3.92,1.63-7.75,2.62-12.28-9.49,4.48-18.69,8.66-24.14,17.57-1.96,3.2-2.54,7.55-2.77,11.43-.29,4.75-2.02,7.74-6.03,8.03-3.77.27-6.53-2.3-7.01-6.75-1.01-9.35,1.88-17.45,8.1-24.39,8.2-9.15,18.84-14.59,29.92-19.24,20-8.4,40.46-15.82,59.95-25.25,14.89-7.2,28.64-16.79,42.78-25.51,4.3-2.65,7.9-2.83,10.37.36,2.46,3.18,1.63,7.07-2.35,10.02-3.94,2.92-8,5.68-12.32,8.73,10.68,7.19,22.13,9.35,34.13,6.71,6.77-1.49,13.18-4.61,19.73-7.05,1.08-.4,2.03-1.17,3.1-1.62,3.39-1.44,6.83-.39,8.5,2.51,1.8,3.13.99,6.77-2.38,8.77-16.47,9.76-33.87,14.35-53.02,9.4-1.69-.44-4.14.02-5.56,1.02-2.83,2-5.37,4.51-7.71,7.1-2.69,2.97-3.77,6.26-1.64,10.33,1.76,3.37.1,6.87-3.26,8.44-3.06,1.42-6.46.36-8.33-2.87-3.36-5.81-3.93-12.03-.68-17.88,2.67-4.81,6.36-9.06,9.81-13.86Z"/>
    <path class="cls-3" d="M585.41,446.62c-3.46,12.96-9.38,23.57-16.76,33.41-.55.73-1.06,1.48-1.65,2.17-2.67,3.13-6.35,3.71-9.31,1.48-2.96-2.23-3.39-5.9-1.11-9.36,3.36-5.09,7.11-9.97,10.02-15.31,12.75-23.37,9.25-45.44-10.2-63.57-4.71-4.4-10.31-7.85-15.51-11.72-.41-.31-.93-.47-1.37-.75-3.41-2.11-4.66-5.86-3-8.99,1.7-3.21,5.6-4.57,9.06-2.39,6.03,3.8,11.77,8.04,17.57,12.2,1.66,1.19,3.07,2.74,4.95,4.45.5-1.76.91-3.2,1.3-4.65,6.38-23.63,25.6-40.52,49.37-43.38,4.7-.57,7.85,1.44,8.44,5.37.56,3.71-1.71,6.98-5.72,7.41-21.16,2.24-40.13,17.58-41.66,48.08-.06,1.14-.16,2.46.32,3.42,4.71,9.31,7.37,19.1,7.01,29.2,5.91,1.87,11.57,3.31,16.95,5.44,5.81,2.3,10.48,6.28,13.38,11.97,4.09,8.05,3.07,16.15-.28,24.11-1.3,3.09-4.83,4.32-7.88,3.23-2.98-1.07-4.75-4.2-4.08-7.55.38-1.9,1.17-3.72,1.54-5.63,1.14-5.91-.57-10.42-5.98-13.06-4.79-2.34-10.05-3.69-15.39-5.57Z"/>
  </g>
</svg>