<?xml version="1.0" encoding="UTF-8"?>
<svg id="Layer_1" data-name="Layer 1" xmlns="http://www.w3.org/2000/svg" viewBox="0 0 924.4 924.4">
  <defs>
    <style>
      .cls-1 {
        fill: #21b501;
      }

      .cls-2 {
        fill: #dbbb00;
        stroke: #233260;
        stroke-miterlimit: 10;
        stroke-width: 24.4px;
      }
    </style>
  </defs>
  <path class="cls-2" d="M912.2,462.2c0,248.53-201.47,450-449.99,450S12.2,710.73,12.2,462.2,213.68,12.2,462.21,12.2s449.99,201.47,449.99,450Z"/>
  <g>
    <circle class="cls-1" cx="438.27" cy="272.23" r="23.68"/>
    <circle class="cls-1" cx="571.51" cy="438.38" r="23.68"/>
    <path class="cls-1" d="M283.88,256.6c13.21,11.7,30.51,17.55,51.92,17.55,16.38,0,30.47-3.94,42.26-11.82,11.79-7.88,19.77-18.64,23.96-32.29h-37.37c-6.52,8.77-16.05,13.16-28.59,13.16-16.22,0-26.83-6.74-31.85-20.23h98.82c.83-5.2,1.26-9.42,1.26-12.67,0-18.85-6.36-34.2-19.06-46.06-12.38-11.86-28.85-17.79-49.41-17.79s-38.71,5.93-51.92,17.79c-13.04,11.7-19.56,27.05-19.56,46.06s6.52,34.28,19.56,46.3ZM315.86,182.88c5.6-3.66,12.08-5.48,19.44-5.48s13.96,1.83,19.31,5.48c5.35,3.66,9.11,8.74,11.29,15.23h-61.7c2.17-6.5,6.06-11.57,11.66-15.23Z"/>
    <path class="cls-1" d="M438.5,244.3c7.57,0,14.08,2.68,19.34,7.96,5.47,5.15,8.24,11.53,8.24,18.96,0,.4-.04.79-.06,1.19,5.09,1.15,10.5,1.73,16.24,1.73,16.72,0,29.93-5.2,39.63-15.6v12.67h49.66v-32.17h-14.55v-89.69h-35.11v12.67c-9.7-10.4-22.91-15.6-39.63-15.6-18.4,0-33.45,5.93-45.15,17.79-11.71,11.86-17.56,27.21-17.56,46.06,0,13.75,3.13,25.63,9.35,35.65,2.99-1.07,6.18-1.64,9.58-1.64ZM469.22,191.04c5.18-5.03,11.79-7.56,19.81-7.56s14.55,2.52,19.56,7.56c5.18,5.04,7.78,11.45,7.78,19.25s-2.6,14.22-7.78,19.25c-5.01,5.04-11.54,7.56-19.56,7.56s-14.63-2.52-19.81-7.56c-5.19-5.03-7.78-11.45-7.78-19.25s2.59-14.22,7.78-19.25Z"/>
    <path class="cls-1" d="M227.95,422.78v12.67h49.66v-32.17h-14.55v-138.43h-59.44v32.17h18.81v24.37c-9.2-7.15-20.57-10.72-34.11-10.72-18.4,0-33.45,5.93-45.15,17.79-11.71,11.86-17.56,27.21-17.56,46.06s5.85,34.2,17.56,46.06c11.7,11.86,26.75,17.79,45.15,17.79,16.72,0,29.93-5.2,39.63-15.6ZM214.66,393.78c-5.01,5.04-11.54,7.56-19.56,7.56s-14.63-2.52-19.81-7.56c-5.19-5.03-7.78-11.45-7.78-19.25s2.59-14.22,7.78-19.25c5.18-5.03,11.79-7.56,19.81-7.56s14.55,2.52,19.56,7.56c5.18,5.04,7.78,11.45,7.78,19.25s-2.6,14.22-7.78,19.25Z"/>
    <path class="cls-1" d="M374.42,403.28h-27.09v-15.84c0-12.51,3.43-22.58,10.28-30.22,7.02-7.8,15.38-11.7,25.08-11.7,3.34,0,6.69.57,10.03,1.71v-35.09c-4.51-.97-8.78-1.46-12.79-1.46-17.22,0-30.6,7.64-40.13,22.91v-19.98h-47.66v32.17h14.55v57.52h-14.55v32.17h82.27v-32.17Z"/>
    <polygon class="cls-1" points="403.51 403.28 403.51 435.45 473.49 435.45 473.49 403.28 458.69 403.28 458.69 313.6 403.51 313.6 403.51 345.77 418.06 345.77 418.06 403.28 403.51 403.28"/>
    <path class="cls-1" d="M614.19,326.39c-8.86-10.48-21.99-15.72-39.38-15.72-15.22,0-27.43,4.39-36.62,13.16v-10.24h-50.67v32.17h14.55v57.52h-14.55v32.17h56.43c.57-6.3,3.21-11.77,7.86-16.29,1.77-1.72,3.68-3.14,5.69-4.3v-11.57h-14.8v-27.54c0-8.93,2.01-15.84,6.02-20.72,4.01-4.87,9.61-7.31,16.8-7.31,6.69,0,11.95,2.19,15.8,6.58,3.85,4.39,5.77,10.48,5.77,18.28v30.71h-14.8v7.96c7.19.2,13.4,2.85,18.46,7.92,4.8,4.52,7.52,10,8.11,16.29h43.4v-32.17h-14.8v-32.41c0-19.17-4.43-34-13.29-44.47Z"/>
    <path class="cls-1" d="M798.78,345.52v-31.93h-41.13l-48.41,44.11v-92.85h-49.41v-25.32c-3.51,1.14-7.11,1.71-10.78,1.71-11.37,0-17.06-5.28-17.06-15.84v-43.87h28.09v-32.17h-28.09v-26.08h-40.63v26.08h-14.55v32.17h14.55v50.94c0,13.81,4.13,24.21,12.41,31.19,8.28,6.99,19.69,10.48,34.24,10.48,5.3,0,10.65-.45,16.05-1.33v24.21h14.54v106.26h-14.54v32.17h64.96v-32.17h-9.78v-26.32l28.85,37.04c6.52,8.45,13.08,14.5,19.69,18.16,6.6,3.66,14.25,5.48,22.95,5.48,4.85,0,10.87-.65,18.06-1.95v-31.19c-3.01.49-5.69.73-8.03.73-4.35,0-8.15-.93-11.41-2.8-3.26-1.87-6.73-5.08-10.41-9.62l-19.31-23.4,27.84-23.88h21.32Z"/>
    <path class="cls-1" d="M301.44,602.61c18.22,0,33.19-5.93,44.9-17.79,11.87-12.02,17.81-27.37,17.81-46.06s-5.94-34.04-17.81-46.06c-11.71-11.86-26.67-17.79-44.9-17.79-16.72,0-29.93,5.2-39.63,15.6v-12.67h-49.66v32.17h14.55v79.31h31.1v59.11h29.1v-32.17h-19.56v-24.37c9.36,7.15,20.73,10.72,34.11,10.72ZM274.85,519.5c5.18-5.03,11.79-7.56,19.82-7.56s14.63,2.52,19.81,7.56c5.18,5.04,7.77,11.45,7.77,19.25s-2.59,14.22-7.77,19.25c-5.19,5.04-11.79,7.56-19.81,7.56s-14.63-2.52-19.82-7.56c-5.01-5.2-7.52-11.61-7.52-19.25s2.51-14.22,7.52-19.25Z"/>
    <path class="cls-1" d="M525.16,599.68v-32.17h-14.55v-89.69h-35.11v12.67c-9.7-10.4-22.91-15.6-39.63-15.6-18.4,0-33.45,5.93-45.15,17.79-11.71,11.86-17.56,27.21-17.56,46.06s5.85,34.2,17.56,46.06c11.7,11.86,26.75,17.79,45.15,17.79,16.72,0,29.93-5.2,39.63-15.6v12.67h49.66ZM462.21,558.01c-5.01,5.04-11.54,7.56-19.56,7.56s-14.63-2.52-19.81-7.56c-5.19-5.03-7.78-11.45-7.78-19.25s2.59-14.22,7.78-19.25c5.18-5.03,11.79-7.56,19.81-7.56s14.55,2.52,19.56,7.56c5.18,5.04,7.78,11.45,7.78,19.25s-2.6,14.22-7.78,19.25Z"/>
    <polygon class="cls-1" points="539.2 567.51 539.2 599.68 609.17 599.68 609.17 567.51 594.38 567.51 594.38 477.83 539.2 477.83 539.2 510 553.75 510 553.75 567.51 539.2 567.51"/>
    <path class="cls-1" d="M619.21,477.83v32.17h14.55v57.52h-14.55v32.17h82.27v-32.17h-27.09v-15.84c0-12.51,3.43-22.58,10.28-30.22,7.02-7.8,15.38-11.7,25.08-11.7,3.34,0,6.69.57,10.03,1.71v-35.09c-4.51-.97-8.78-1.46-12.79-1.46-17.22,0-30.6,7.64-40.13,22.91v-19.98h-47.66Z"/>
    <polygon class="cls-1" points="253.79 648.42 253.79 593.32 226.7 593.32 198.61 593.32 198.61 625.49 212.15 625.49 213.16 625.49 213.16 648.42 213.16 731.75 198.61 731.75 198.61 763.91 268.58 763.91 268.58 731.75 253.79 731.75 253.79 648.42"/>
    <path class="cls-1" d="M401.5,656.93c-12.71-11.86-29.43-17.79-50.16-17.79s-37.46,5.93-50.16,17.79c-12.88,12.02-19.31,27.38-19.31,46.06s6.43,34.04,19.31,46.06c12.71,11.86,29.42,17.79,50.16,17.79s37.45-5.93,50.16-17.79c12.87-12.02,19.31-27.37,19.31-46.06s-6.44-34.04-19.31-46.06ZM371.03,722.24c-5.1,5.04-11.66,7.56-19.69,7.56s-14.63-2.52-19.81-7.56c-5.19-5.03-7.78-11.45-7.78-19.25s2.59-14.22,7.78-19.25c5.18-5.03,11.79-7.56,19.81-7.56s14.38,2.52,19.56,7.56c5.18,5.04,7.78,11.45,7.78,19.25s-2.55,14.22-7.65,19.25Z"/>
    <polygon class="cls-1" points="509.6 674.23 522.39 674.23 503.33 722.97 484.27 674.23 497.06 674.23 497.06 642.06 429.09 642.06 429.09 674.23 443.39 674.23 482.52 763.91 524.15 763.91 563.27 674.23 577.57 674.23 577.57 642.06 509.6 642.06 509.6 674.23"/>
    <path class="cls-1" d="M704.23,656.93c-12.38-11.86-28.85-17.79-49.41-17.79s-38.71,5.93-51.92,17.79c-13.04,11.7-19.56,27.05-19.56,46.06s6.52,34.28,19.56,46.3c13.21,11.7,30.51,17.55,51.92,17.55,16.38,0,30.47-3.94,42.26-11.82,11.79-7.88,19.77-18.64,23.96-32.29h-37.37c-6.52,8.77-16.05,13.16-28.59,13.16-16.22,0-26.83-6.74-31.85-20.23h98.82c.83-5.2,1.26-9.42,1.26-12.67,0-18.85-6.36-34.2-19.06-46.06ZM623.22,690.8c2.17-6.5,6.06-11.57,11.66-15.23,5.6-3.66,12.08-5.48,19.44-5.48s13.96,1.83,19.31,5.48c5.35,3.66,9.11,8.74,11.29,15.23h-61.7Z"/>
  </g>
</svg>