<?xml version="1.0" encoding="UTF-8"?>
<svg id="Laag_1" data-name="Laag 1" xmlns="http://www.w3.org/2000/svg" xmlns:xlink="http://www.w3.org/1999/xlink" viewBox="0 0 135.99 220.94">
  <defs>
    <style>
      .cls-1, .cls-2, .cls-3 {
        fill: none;
      }

      .cls-4 {
        stroke: #dbbb00;
        stroke-width: 1.42px;
      }

      .cls-4, .cls-5, .cls-2, .cls-3 {
        stroke-miterlimit: 10;
      }

      .cls-4, .cls-6 {
        fill: #233260;
      }

      .cls-5 {
        stroke-width: .71px;
      }

      .cls-5, .cls-2, .cls-3 {
        stroke: #233260;
      }

      .cls-5, .cls-7 {
        fill: #dbbb00;
      }

      .cls-2 {
        stroke-width: 2.83px;
      }

      .cls-8 {
        fill: #21b501;
      }

      .cls-9 {
        clip-path: url(#clippath);
      }
    </style>
    <clipPath id="clippath">
      <path class="cls-1" d="M68,8.66c-32.58,0-58.98,26.41-58.98,58.98v144.38h117.97V67.65c0-32.58-26.41-58.98-58.98-58.98Z"/>
    </clipPath>
  </defs>
  <path class="cls-7" d="M79.79,77.41h0c1.13,0,2.22-.45,3.02-1.25.8-.8,1.25-1.89,1.25-3.02s-.45-2.22-1.25-3.02c-.8-.8-1.89-1.25-3.02-1.25s-2.22.45-3.02,1.25-1.25,1.89-1.25,3.02c0,1.13.45,2.22,1.25,3.02.8.8,1.88,1.25,3.02,1.25Z"/>
  <path class="cls-7" d="M46.73,59.76c-.64,0-1.25.25-1.71.71-.45.45-.71,1.07-.71,1.71,0,.64.26,1.25.71,1.71.45.45,1.07.71,1.71.71h0c.64,0,1.25-.25,1.71-.71.45-.45.71-1.07.71-1.71s-.25-1.25-.71-1.71c-.45-.45-1.07-.71-1.71-.71Z"/>
  <path class="cls-7" d="M72.29,49.96c-1.81-1.81-4.26-2.83-6.82-2.83s-5.01,1.02-6.82,2.83c-1.81,1.81-2.83,4.26-2.83,6.82,0,2.56,1.02,5.01,2.83,6.82,1.81,1.81,4.26,2.83,6.82,2.83h0c2.56,0,5.01-1.02,6.82-2.83,1.81-1.81,2.83-4.26,2.83-6.82s-1.02-5.01-2.83-6.82Z"/>
  <path class="cls-7" d="M81.46,50.39c1.58,0,3.09-.63,4.2-1.74,1.11-1.11,1.74-2.62,1.74-4.2s-.63-3.09-1.74-4.2c-1.11-1.11-2.62-1.74-4.2-1.74s-3.09.63-4.2,1.74c-1.11,1.11-1.74,2.62-1.74,4.2,0,1.57.63,3.08,1.74,4.2,1.11,1.11,2.62,1.74,4.2,1.74Z"/>
  <path class="cls-7" d="M53.09,48.86c-.8-.8-1.89-1.25-3.02-1.25s-2.22.45-3.02,1.25c-.8.8-1.25,1.89-1.25,3.02,0,1.13.45,2.22,1.25,3.02.8.8,1.88,1.25,3.02,1.25h0c1.13,0,2.22-.45,3.02-1.25.8-.8,1.25-1.89,1.25-3.02s-.45-2.22-1.25-3.02Z"/>
  <path class="cls-7" d="M135.99,220.94H0V65.64C0,48.08,7.09,31.58,19.97,19.18,32.8,6.81,49.86,0,68,0s35.19,6.81,48.03,19.18c12.87,12.4,19.97,28.9,19.97,46.46v155.3ZM7.41,213.53h121.17V65.64c0-32.11-27.18-58.23-60.59-58.23S7.41,33.53,7.41,65.64v147.89Z"/>
  <path class="cls-6" d="M68,3.71C32.49,3.71,3.71,31.43,3.71,65.64v151.6h128.58V65.64c0-34.2-28.78-61.93-64.29-61.93Z"/>
  <g class="cls-9">
    <path class="cls-8" d="M68,8.66c-32.58,0-58.98,26.41-58.98,58.98v144.38h117.97V67.65c0-32.58-26.41-58.98-58.98-58.98Z"/>
    <path class="cls-7" d="M130.69,186.77l-125.38-.25v-118.88c0-16.74,6.52-32.49,18.36-44.33,11.84-11.84,27.58-18.36,44.33-18.36s32.49,6.52,44.33,18.36c11.84,11.84,18.36,27.58,18.36,44.33v119.13ZM12.72,179.13l110.56.22v-111.7c0-30.48-24.8-55.28-55.28-55.28S12.72,37.17,12.72,67.65v111.48Z"/>
    <path class="cls-6" d="M132.92,138.15l-37-36.91c-7.84,6.52-17.68,10.09-27.92,10.09s-20.09-3.57-27.93-10.09L6.08,135.15l-5.27-5.28,33.96-33.87c-5.91-6.93-9.52-15.56-10.29-24.62H5.9v-7.46h18.57c.78-9.21,4.48-17.94,10.55-24.92l-17.35-17.35,5.27-5.27,17.43,17.43c6.79-5.55,15.16-8.94,23.89-9.68V-1.13h7.46v25.26c8.97.77,17.52,4.31,24.41,10.11l17.86-17.86,5.27,5.27-17.86,17.86c5.8,6.89,9.35,15.44,10.11,24.41h19.88v7.46h-19.88c-.77,9.07-4.38,17.69-10.3,24.63l36.96,36.87-5.27,5.28ZM96.07,96.16l36.84,36.75.03-.03-36.84-36.75,1.21-1.31c6.43-6.93,10.2-15.95,10.61-25.38l.08-1.77h19.68v-.05h-19.68l-.08-1.77c-.41-9.33-4.12-18.27-10.43-25.18l-1.2-1.31,17.72-17.72-.03-.03-17.72,17.72-1.31-1.2c-6.9-6.31-15.84-10.02-25.18-10.43l-1.77-.08V2.57h-.05v25.06l-1.77.08c-9.1.4-17.87,3.95-24.7,10l-1.31,1.16-17.25-17.25-.03.03,17.25,17.25-1.24,1.31c-6.58,6.97-10.44,16.08-10.86,25.65l-.08,1.77H9.61v.05h18.37l.08,1.77c.42,9.43,4.18,18.44,10.61,25.37l1.21,1.31L6.05,129.88l.03.03,33.84-33.75,1.3,1.18c7.35,6.64,16.86,10.29,26.77,10.29s19.42-3.65,26.77-10.29l1.31-1.18Z"/>
    <rect class="cls-7" x="66.12" y=".72" width="3.75" height="66.93"/>
    <g>
      <rect class="cls-7" x="43.4" y="10.52" width="3.75" height="66.93" transform="translate(-17.84 44.9) rotate(-45)"/>
      <rect class="cls-7" x="58.2" y="42.11" width="66.93" height="3.75" transform="translate(-4.26 77.7) rotate(-45)"/>
    </g>
    <g>
      <rect class="cls-7" x="99" y="53.81" width="3.75" height="94.23" transform="translate(-41.82 101.06) rotate(-45.07)"/>
      <rect class="cls-7" x="-8.38" y="97.55" width="89.99" height="3.75" transform="translate(-59.52 54.89) rotate(-44.93)"/>
    </g>
    <rect class="cls-7" x="7.76" y="65.77" width="121.79" height="3.75"/>
    <path class="cls-7" d="M109.83,67.65c0,23.1-18.73,41.83-41.83,41.83s-41.83-18.73-41.83-41.83,18.73-41.83,41.83-41.83,41.83,18.73,41.83,41.83Z"/>
  </g>
  <rect class="cls-6" x="3.71" y="182.98" width="128.58" height="34.26"/>
  <rect class="cls-6" x="21.55" y="127.09" width="92.89" height="6.65" rx="1" ry="1"/>
  <path class="cls-7" d="M37.85,129.71c-.61,0-1.1.49-1.1,1.1s.49,1.1,1.1,1.1,1.1-.49,1.1-1.1-.49-1.1-1.1-1.1Z"/>
  <path class="cls-7" d="M67.98,129.71c-.61,0-1.1.49-1.1,1.1s.49,1.1,1.1,1.1,1.1-.49,1.1-1.1-.49-1.1-1.1-1.1Z"/>
  <path class="cls-7" d="M98.11,129.71c-.61,0-1.1.49-1.1,1.1s.49,1.1,1.1,1.1,1.1-.49,1.1-1.1-.49-1.1-1.1-1.1Z"/>
  <path class="cls-6" d="M79.79,77.41c-1.13,0-2.22-.45-3.02-1.25-.8-.8-1.25-1.88-1.25-3.02,0-1.13.45-2.22,1.25-3.02s1.89-1.25,3.02-1.25,2.22.45,3.02,1.25,1.25,1.89,1.25,3.02-.45,2.22-1.25,3.02-1.89,1.25-3.02,1.25h0ZM79.79,70.35c-.74,0-1.45.29-1.97.82s-.82,1.23-.82,1.97c0,.74.29,1.45.82,1.97.52.52,1.23.82,1.97.82s1.45-.29,1.97-.82c.52-.52.82-1.23.82-1.97,0-.74-.29-1.45-.82-1.97-.52-.52-1.23-.82-1.97-.82h0s0,0,0,0Z"/>
  <path class="cls-6" d="M46.73,64.58c-.64,0-1.25-.26-1.71-.71-.45-.45-.71-1.07-.71-1.71,0-.64.25-1.25.71-1.71.45-.45,1.07-.71,1.71-.71s1.25.25,1.71.71c.45.45.71,1.07.71,1.71,0,.64-.25,1.25-.71,1.71-.45.45-1.07.71-1.71.71h0ZM46.73,61.24c-.51,0-.93.42-.93.93,0,.38.23.71.57.86.35.14.75.06,1.01-.2.27-.27.34-.66.2-1.01-.14-.35-.48-.57-.86-.57h0Z"/>
  <path class="cls-6" d="M65.46,66.44c-2.56,0-5.01-1.02-6.82-2.83-1.81-1.81-2.83-4.26-2.83-6.82,0-2.56,1.02-5.01,2.83-6.82,1.81-1.81,4.26-2.83,6.82-2.83s5.01,1.02,6.82,2.83c1.81,1.81,2.83,4.26,2.83,6.82,0,2.56-1.02,5.01-2.83,6.82-1.81,1.81-4.26,2.83-6.82,2.83h0ZM65.46,48.62c-2.16,0-4.24.86-5.77,2.39-1.53,1.53-2.39,3.61-2.39,5.77,0,2.17.86,4.24,2.39,5.77,1.53,1.53,3.61,2.39,5.77,2.39s4.24-.86,5.77-2.39c1.53-1.53,2.39-3.61,2.39-5.77,0-2.17-.86-4.24-2.39-5.77-1.53-1.53-3.61-2.39-5.77-2.39h0Z"/>
  <path class="cls-6" d="M81.46,50.39c-1.57,0-3.08-.63-4.2-1.74-1.11-1.11-1.74-2.62-1.74-4.2,0-1.58.63-3.09,1.74-4.2,1.11-1.11,2.62-1.74,4.2-1.74s3.09.63,4.2,1.74c1.11,1.11,1.74,2.62,1.74,4.2s-.63,3.09-1.74,4.2c-1.11,1.11-2.62,1.74-4.2,1.74h0ZM81.46,39.99c-1.18,0-2.31.47-3.15,1.31-.83.83-1.3,1.97-1.31,3.15,0,1.18.47,2.31,1.3,3.15.84.84,1.97,1.3,3.15,1.3s2.31-.47,3.15-1.3c.84-.84,1.3-1.97,1.3-3.15,0-1.18-.47-2.31-1.3-3.15-.84-.84-1.97-1.3-3.15-1.3h0Z"/>
  <path class="cls-6" d="M50.08,56.15c-1.13,0-2.22-.45-3.02-1.25-.8-.8-1.25-1.88-1.25-3.02,0-1.13.45-2.22,1.25-3.02.8-.8,1.89-1.25,3.02-1.25s2.22.45,3.02,1.25c.8.8,1.25,1.89,1.25,3.02s-.45,2.22-1.25,3.02c-.8.8-1.89,1.25-3.02,1.25h0ZM48.11,49.91c-.52.52-.82,1.23-.82,1.97,0,.74.29,1.45.82,1.97.52.52,1.23.82,1.97.82s1.45-.29,1.97-.82c.52-.52.82-1.23.82-1.97,0-.74-.29-1.45-.82-1.97-.52-.52-1.23-.82-1.97-.82-.74,0-1.45.29-1.97.82Z"/>
  <path class="cls-8" d="M69.78,56.55c0-1.08-.43-2.12-1.19-2.88-.76-.76-1.8-1.19-2.88-1.19-.41,0-.74-.33-.74-.74s.33-.74.74-.74c1.47,0,2.89.59,3.93,1.63,1.04,1.04,1.63,2.45,1.63,3.93,0,.41-.33.74-.74.74s-.74-.33-.74-.74Z"/>
  <path class="cls-8" d="M83.86,45.19c-.41,0-.74-.33-.74-.74,0-.44-.18-.86-.49-1.17s-.73-.49-1.17-.49c-.41,0-.74-.33-.74-.74,0-.41.33-.74.74-.74.83,0,1.63.33,2.22.92.59.59.92,1.39.92,2.22,0,.41-.33.74-.74.74h0Z"/>
  <path class="cls-8" d="M81.09,74.07c-.41,0-.74-.33-.74-.74,0-.41-.33-.74-.74-.74-.41,0-.74-.33-.74-.74,0-.41.33-.74.74-.74.59,0,1.16.24,1.57.65.42.42.65.98.65,1.57,0,.41-.33.74-.74.74h0Z"/>
  <path class="cls-8" d="M51.37,52.81c-.41,0-.74-.33-.74-.74,0-.41-.33-.74-.74-.74-.41,0-.74-.33-.74-.74s.33-.74.74-.74c.59,0,1.16.24,1.57.65.42.42.65.98.65,1.57,0,.41-.33.74-.74.74h0Z"/>
  <g>
    <g>
      <line class="cls-2" x1="68.03" y1="139.76" x2="68.03" y2="179.23"/>
      <rect class="cls-4" x="55.52" y="137.61" width="24.92" height="6.94" rx="1" ry="1"/>
    </g>
    <path class="cls-2" d="M60.9,179.14v-9.5c0-1.57,1.27-2.83,2.83-2.83h8.59c1.57,0,2.83,1.27,2.83,2.83v9.5"/>
  </g>
  <g>
    <g>
      <line class="cls-2" x1="98.16" y1="139.76" x2="98.16" y2="179.23"/>
      <rect class="cls-4" x="85.65" y="137.61" width="24.92" height="6.94" rx="1" ry="1"/>
    </g>
    <path class="cls-2" d="M91.03,179.14v-9.5c0-1.57,1.27-2.83,2.83-2.83h8.59c1.57,0,2.83,1.27,2.83,2.83v9.5"/>
  </g>
  <g>
    <g>
      <line class="cls-2" x1="37.9" y1="139.76" x2="37.9" y2="179.23"/>
      <rect class="cls-4" x="25.39" y="137.61" width="24.92" height="6.94" rx="1" ry="1"/>
    </g>
    <path class="cls-2" d="M30.77,179.14v-9.5c0-1.57,1.27-2.83,2.83-2.83h8.59c1.57,0,2.83,1.27,2.83,2.83v9.5"/>
  </g>
  <g>
    <path class="cls-8" d="M40.96,192.6h.01c1.04.34,1.56,1.03,1.56,2.07,0,.85-.28,1.51-.85,1.98s-1.43.7-2.58.7h-4.99v-1.82h.91v-5.46h-.91v-1.82h4.84c1.09,0,1.93.2,2.5.61.58.41.86.99.86,1.75,0,.92-.45,1.58-1.35,1.99ZM37.23,190.06v1.79h1.74c.36,0,.65-.08.85-.25.2-.16.31-.39.31-.68s-.1-.49-.31-.64c-.2-.15-.49-.23-.85-.23h-1.74ZM39.12,195.52c.36,0,.65-.09.86-.28s.32-.44.32-.75c0-.29-.1-.53-.31-.7-.21-.17-.5-.25-.87-.25h-1.89v1.98h1.89Z"/>
    <path class="cls-8" d="M51.78,195.52h.73v1.82h-4.08v-1.82h1.09l-.23-.7h-3.16l-.25.7h1.1v1.82h-4.1v-1.82h.73l2.7-7.32h2.76l2.7,7.32ZM46.67,193.21h2.07l-1.04-3.06-1.03,3.06Z"/>
    <path class="cls-8" d="M61.05,195.68c.16,0,.33-.03.53-.08v1.75c-.38.09-.75.13-1.1.13-1.14,0-1.99-.56-2.53-1.68l-.75-1.57h-1.01v1.29h.84v1.82h-3.95v-1.82h.9v-5.46h-.9v-1.82h4.32c1.2,0,2.14.27,2.81.8.67.53,1.01,1.27,1.01,2.22,0,1.3-.61,2.18-1.83,2.65l.44.91c.27.57.68.86,1.23.86ZM56.17,190.06v2.48h1.25c.49,0,.86-.11,1.12-.34.26-.23.4-.54.4-.94s-.13-.68-.39-.89c-.26-.21-.64-.32-1.13-.32h-1.25Z"/>
    <path class="cls-8" d="M72.41,192.6h.01c1.04.34,1.56,1.03,1.56,2.07,0,.85-.28,1.51-.85,1.98-.57.47-1.43.7-2.58.7h-4.99v-1.82h.91v-5.46h-.91v-1.82h4.84c1.09,0,1.93.2,2.5.61.58.41.86.99.86,1.75,0,.92-.45,1.58-1.35,1.99ZM68.68,190.06v1.79h1.74c.36,0,.65-.08.85-.25.2-.16.31-.39.31-.68s-.1-.49-.31-.64c-.2-.15-.49-.23-.85-.23h-1.74ZM70.56,195.52c.36,0,.65-.09.86-.28.21-.19.32-.44.32-.75,0-.29-.1-.53-.31-.7-.21-.17-.5-.25-.87-.25h-1.89v1.98h1.89Z"/>
    <path class="cls-8" d="M82.54,195.68c.16,0,.33-.03.53-.08v1.75c-.38.09-.75.13-1.11.13-1.14,0-1.99-.56-2.53-1.68l-.75-1.57h-1.01v1.29h.84v1.82h-3.95v-1.82h.9v-5.46h-.9v-1.82h4.32c1.21,0,2.14.27,2.81.8s1.01,1.27,1.01,2.22c0,1.3-.61,2.18-1.83,2.65l.44.91c.27.57.68.86,1.23.86ZM77.66,190.06v2.48h1.25c.49,0,.86-.11,1.12-.34.26-.23.4-.54.4-.94s-.13-.68-.39-.89c-.26-.21-.64-.32-1.13-.32h-1.25Z"/>
    <path class="cls-8" d="M93.35,188.24v1.82h-.91v3.24c0,1.36-.36,2.4-1.07,3.12-.71.72-1.74,1.08-3.09,1.08s-2.38-.36-3.09-1.08c-.71-.72-1.07-1.76-1.07-3.12v-3.24h-.91v-1.82h4.08v1.82h-.96v3.24c0,.69.17,1.22.51,1.59.34.37.82.55,1.44.55s1.12-.18,1.45-.55c.33-.37.5-.9.5-1.59v-3.24h-.96v-1.82h4.08Z"/>
    <path class="cls-8" d="M102.49,188.24v3.21h-1.79v-1.39h-1.43v5.46h1.48v1.82h-5.17v-1.82h1.48v-5.46h-1.43v1.39h-1.79v-3.21h8.66Z"/>
    <path class="cls-8" d="M50.49,202.87v1.82h-.91v7.28h-2.5l-3.8-6.01v4.19h1.07v1.82h-4.19v-1.82h.91v-5.46h-.91v-1.82h3.42l3.78,5.97v-4.15h-1.08v-1.82h4.2Z"/>
    <path class="cls-8" d="M59.36,210.15h.73v1.82h-4.08v-1.82h1.09l-.23-.7h-3.16l-.25.7h1.1v1.82h-4.1v-1.82h.73l2.7-7.32h2.76l2.7,7.32ZM54.25,207.84h2.07l-1.04-3.06-1.03,3.06Z"/>
    <path class="cls-8" d="M68.03,202.87v3.21h-1.79v-1.39h-1.43v5.46h1.48v1.82h-5.17v-1.82h1.48v-5.46h-1.43v1.39h-1.79v-3.21h8.66Z"/>
    <path class="cls-8" d="M78.65,202.87v1.82h-.91v3.24c0,1.36-.36,2.4-1.07,3.12-.71.72-1.74,1.08-3.09,1.08s-2.38-.36-3.09-1.08c-.71-.72-1.07-1.76-1.07-3.12v-3.24h-.91v-1.82h4.08v1.82h-.96v3.24c0,.69.17,1.22.51,1.59.34.37.82.55,1.44.55s1.12-.18,1.45-.55c.33-.37.5-.9.5-1.59v-3.24h-.96v-1.82h4.08Z"/>
    <path class="cls-8" d="M87.22,210.31c.16,0,.33-.03.53-.08v1.75c-.38.09-.75.13-1.11.13-1.14,0-1.99-.56-2.53-1.68l-.75-1.57h-1.01v1.29h.84v1.82h-3.95v-1.82h.9v-5.46h-.9v-1.82h4.32c1.21,0,2.14.27,2.81.8s1.01,1.27,1.01,2.22c0,1.3-.61,2.18-1.83,2.65l.44.91c.27.57.68.86,1.23.86ZM82.34,204.69v2.48h1.25c.49,0,.86-.11,1.12-.34.26-.23.4-.54.4-.94s-.13-.68-.39-.89c-.26-.21-.64-.32-1.13-.32h-1.25Z"/>
    <path class="cls-8" d="M96.39,202.87v3.21h-1.81v-1.39h-3.05v1.95h1.11v-.61h1.43v2.78h-1.43v-.61h-1.11v1.95h3.05v-1.39h1.81v3.21h-7.98v-1.82h.91v-5.46h-.91v-1.82h7.98Z"/>
  </g>
  <path class="cls-6" d="M46.12,69.08l-2.95,2.03c-.53.36-.67,1.08-.31,1.61l.52.77c-.36.35-.43.92-.13,1.35.29.42.83.56,1.28.37,1.98,3.03,4.53,7.4,4.93,11.28.04.36.06.76.09,1.18.16,2.59.4,6.51,3.89,11.57l13.66,19.87c.18.26.45.43.75.49.31.06.62-.01.88-.19l13.35-9.18c.25-.17.41-.41.47-.68.08-.31.03-.66-.17-.94l-13.66-19.87c-3.48-5.07-7.05-6.7-9.41-7.77-.39-.18-.75-.34-1.07-.5-3.47-1.76-6.62-5.7-8.75-8.63.21-.15.36-.37.41-.6.07-.28.02-.59-.15-.85-.33-.48-.98-.6-1.46-.27h-.01s-.52-.73-.52-.73c-.37-.52-1.09-.65-1.62-.29Z"/>
  <path class="cls-8" d="M66.29,88.64l5.14,8.61c.13.22.16.47.1.69-.05.21-.18.41-.37.54l-9.6,6.6c-.4.27-.94.19-1.24-.19l-6.2-7.89c-.16-.2-.23-.46-.19-.71.04-.25.18-.48.39-.62l2.61-1.8c-.48-1.39.06-3.08,1.3-3.93,1.29-.89,2.98-.76,4.13.19l2.61-1.8c.21-.14.47-.19.72-.14.25.05.46.21.59.43Z"/>
  <g>
    <path class="cls-8" d="M90.03,97.96c-.16-.16-.38-.25-.6-.25h-2.7l.12-.71h0c.04-.25-.02-.5-.18-.69-.16-.2-.4-.31-.66-.31h-31.16s-4.78,0-4.78,0c-.25,0-.5.11-.66.31-.16.19-.22.45-.18.69l.12.71h-2.7c-.47,0-.86.38-.86.86v3.42c0,.23.09-.18.25-.02.16.16.38.87.61.25h3.61l4.09,23.87c.07.41.43.72.86.71h25.67c.42,0,.78-.3.86-.71l4.2-23.86,3.5-.47c.23,0,.44-.09.61-.25.16-.16.25.7.25.47v-3.42c0-.23-.09-.44-.25-.61Z"/>
    <path class="cls-6" d="M90.74,97.52c-.17-.17-.39-.26-.62-.26h-2.79l.12-.73h0c.05-.25-.02-.52-.19-.72-.17-.2-.42-.32-.68-.32h-32.16s-4.94,0-4.94,0c-.26,0-.51.12-.68.32-.16.2-.23.46-.19.72l.12.73h-2.79c-.49,0-.88.4-.88.88v3.53c0,.23.09.46.26.62.17.17.39.26.62.26h3.73l4.22,24c.07.43.45.74.88.73h26.5c.43,0,.81-.3.88-.73l4.22-24h3.73c.23,0,.46-.09.62-.26.17-.17.26-.39.26-.62v-3.53c0-.23-.09-.46-.26-.62ZM46.83,100.8v-1.77h2.22l.32,1.77h-2.53ZM84.99,100.3l-4.05,25.21h-25.41l-5-28.25h5.13s1.77,0,1.77,0h28l-.44,3.04ZM89.23,100.8h-2.54l.32-1.77h2.22v1.77Z"/>
    <path class="cls-7" d="M83.78,100.57c-.08,0-.15,0-.23.01.08,0,.15,0,.23-.01Z"/>
    <path class="cls-7" d="M69.28,109.94c-.15.02-.29.03-.44.03.15,0,.29,0,.44-.03Z"/>
    <path class="cls-7" d="M60.34,104.86s-.02,0-.03,0c0,0,.02,0,.03,0Z"/>
    <polygon class="cls-7" points="81.75 95.48 81.75 95.48 81.75 95.48 81.75 95.48 56.91 95.48 56.91 95.49 56.91 95.48 81.75 95.48"/>
    <path class="cls-7" d="M57.9,103.85c-.21-.21-.39-.45-.54-.7.15.25.33.49.54.7Z"/>
    <path class="cls-7" d="M86.96,95.53s.1.01.14.03c-.04-.02-.1-.02-.14-.03Z"/>
    <path class="cls-7" d="M87.4,95.79c.16.19.22.45.18.69.04-.25-.02-.5-.18-.69Z"/>
    <path class="cls-7" d="M84.27,100.47c-.07.02-.14.03-.21.04.07-.01.14-.02.21-.04Z"/>
    <path class="cls-7" d="M86.36,99.14s-.02.02-.03.03c.01-.01.02-.02.03-.03Z"/>
    <path class="cls-7" d="M84.75,100.33s-.08.02-.11.04c.04-.01.08-.02.11-.04Z"/>
    <path class="cls-5" d="M86.53,96.78c.02-.09,0-.17-.06-.24-.05-.06-.13-.1-.22-.1,0,0-5,0-5,0h-24.27v1.14s0,4.26,0,4.26c0,1.01.54,1.96,1.42,2.46.43.25.92.38,1.42.38s.99-.13,1.42-.38c.88-.51,1.42-1.45,1.42-2.46,0-.78.64-1.42,1.42-1.42s1.42.64,1.42,1.42v5.11c0,1.01.54,1.96,1.42,2.46.43.25.92.38,1.42.38s.99-.13,1.42-.38c.88-.51,1.42-1.45,1.42-2.46v-4.26c0-.78.64-1.42,1.42-1.42s1.42.64,1.42,1.42c0,1.01.54,1.96,1.42,2.46.43.25.92.38,1.42.38s.99-.13,1.42-.38c.88-.51,1.42-1.45,1.42-2.46,0-.61.24-1.18.67-1.61.42-.42,1.01-.67,1.61-.67h.79c.57,0,1.14-.14,1.64-.4.57-.39,1.13-.84,1.53-1.41s.46-1.17.57-1.84Z"/>
    <line class="cls-3" x1="54.34" y1="122.08" x2="82.58" y2="122.08"/>
    <line class="cls-3" x1="75.69" y1="122.08" x2="75.69" y2="126.07"/>
    <line class="cls-3" x1="68.03" y1="122.08" x2="68.03" y2="126.07"/>
    <line class="cls-3" x1="60.36" y1="122.08" x2="60.36" y2="126.07"/>
  </g>
</svg>