<?xml version="1.0" encoding="UTF-8"?>
<svg id="Laag_1" data-name="Laag 1" xmlns="http://www.w3.org/2000/svg" viewBox="0 0 924.4 924.4">
  <defs>
    <style>
      .cls-1 {
        fill-rule: evenodd;
      }

      .cls-1, .cls-2 {
        fill: #21b501;
      }

      .cls-3, .cls-4 {
        fill: #dbbb00;
      }

      .cls-4 {
        stroke-width: 24.4px;
      }

      .cls-4, .cls-5 {
        stroke: #233260;
        stroke-miterlimit: 10;
      }

      .cls-6, .cls-5 {
        fill: #233260;
      }

      .cls-5 {
        stroke-width: 4.79px;
      }
    </style>
  </defs>
  <path class="cls-4" d="M912.2,462.2c0,248.53-201.47,450-449.99,450S12.2,710.73,12.2,462.2,213.68,12.2,462.21,12.2s449.99,201.47,449.99,450Z"/>
  <path class="cls-1" d="M462.22,628.25c4.27,10.7,9.53,21.04,15.96,30.85,61.87,94.17,149.06,34.57,149.06,34.57l.25-44.84,42.59,14.02s84.23-63.73,14.62-152.33c-6.76-8.6-14.31-16.36-22.4-23.43,10.73-.66,21.45-2.23,32.05-4.93,109.19-27.82,81.26-129.67,81.26-129.67l-42.32-14.85,27.14-35.7s-32.81-100.4-139.26-63.44c-14.02,4.85-27.06,11.57-39.21,19.57,4.15-13.92,6.83-28.36,7.45-43.17,4.78-112.59-100.81-115.13-100.81-115.13l-26.4,36.26-26.4-36.26s-105.58,2.54-100.81,115.13c.62,14.81,3.3,29.25,7.45,43.17-12.15-7.98-25.2-14.69-39.21-19.57-106.46-36.96-139.26,63.44-139.26,63.44l27.14,35.72-42.32,14.85s-27.93,101.85,81.26,129.67c10.6,2.7,21.31,4.27,32.05,4.93-8.09,7.07-15.65,14.83-22.4,23.43-69.61,88.62,14.62,152.33,14.62,152.33l42.59-14.02.25,44.84s87.2,59.59,149.08-34.59c6.43-9.78,11.69-20.13,15.96-30.83l.02-.02ZM422.6,218.05c13.06,0,23.66,10.6,23.66,23.66,0,7.98-3.94,15.02-10,19.31l21.35,96.13c1.51-.12,3.05-.17,4.6-.17s3.09.06,4.6.17l21.35-96.13c-6.06-4.29-10-11.34-10-19.31,0-13.08,10.6-23.66,23.66-23.66s23.66,10.6,23.66,23.66c0,11.63-8.39,21.29-19.45,23.29l-21.33,96.13c10.99,4.19,20.5,11.36,27.56,20.52l85.96-48.1c-1.26-11.16,5.57-21.95,16.71-25.31,12.52-3.77,25.72,3.34,29.49,15.86,3.77,12.5-3.34,25.7-15.86,29.47-7.63,2.29-15.53.54-21.35-4l-85.94,48.1c1.09,2.83,1.98,5.77,2.64,8.77l98.21-7.22c2.37-7.01,7.98-12.81,15.63-15.1,12.52-3.77,25.7,3.34,29.47,15.86,3.77,12.52-3.34,25.7-15.86,29.47-11.14,3.34-22.79-1.9-27.89-11.9l-98.22,7.22c-.8,11.12-4.46,21.43-10.29,30.22l73.45,65.57c10.13-4.85,22.61-1.9,29.41,7.55,7.63,10.6,5.22,25.39-5.4,33.04-10.6,7.63-25.39,5.22-33.04-5.4-4.66-6.48-5.57-14.52-3.16-21.53l-73.47-65.57c-2.35,1.96-4.83,3.77-7.45,5.38l38.82,90.52c7.42-.04,14.73,3.38,19.37,9.84,7.63,10.62,5.22,25.41-5.4,33.04-10.62,7.63-25.39,5.22-33.04-5.4-6.79-9.43-5.63-22.19,2.17-30.26l-38.82-90.5c-5.18,1.36-10.6,2.12-16.21,2.12s-11.05-.74-16.21-2.12l-38.82,90.5c7.8,8.08,8.97,20.81,2.19,30.26-7.65,10.6-22.42,13.03-33.04,5.4-10.6-7.63-13.03-22.42-5.4-33.04,4.66-6.46,11.98-9.88,19.37-9.84l38.82-90.52c-2.62-1.61-5.11-3.42-7.45-5.38l-73.47,65.57c2.41,7.01,1.49,15.04-3.16,21.53-7.63,10.6-22.42,13.01-33.04,5.4-10.62-7.63-13.03-22.42-5.4-33.04,6.79-9.45,19.26-12.38,29.41-7.55l73.45-65.57c-5.8-8.79-9.49-19.1-10.29-30.22l-98.22-7.22c-5.09,10-16.75,15.26-27.89,11.9-12.52-3.77-19.63-16.95-15.86-29.47,3.77-12.52,16.95-19.63,29.47-15.86,7.63,2.29,13.26,8.09,15.63,15.1l98.21,7.22c.66-3.03,1.55-5.94,2.64-8.77l-85.94-48.1c-5.84,4.56-13.72,6.29-21.35,4-12.52-3.77-19.63-16.97-15.86-29.47,3.77-12.52,16.97-19.63,29.49-15.86,11.14,3.34,17.98,14.15,16.71,25.31l85.96,48.1c7.07-9.16,16.58-16.33,27.56-20.52l-21.33-96.13c-11.06-1.98-19.45-11.65-19.45-23.29,0-13.08,10.6-23.66,23.66-23.66h.02Z"/>
  <g>
    <path class="cls-5" d="M564.42,566.96c-.66-9.43-1.97-18.85-2.91-28.31-.14-1.69-.89-1.83-2.34-1.6-5.2.57-10.4,1.4-15.57,1.4-53.39.14-106.78.09-160.22.14-7.08,0-14.2-.09-21.05-1.97-1.46-.43-1.91.23-2.06,1.46-.23,1.83-.37,3.74-.57,5.57-3,23.34-4.54,46.79-4.54,70.36-.14,24.08-.14,48.22-.14,72.36h0s0,74.38,0,74.38c0,12.88,0,25.68-.09,38.53,0,2.34.8,3.51,3,3.89,3.09.43,6.23,1.17,9.28,1.17,59.96.09,119.91.09,179.91.09,5.48,0,10.97.09,16.45-1.46,2.4-.74,2.77-1.74,2.77-3.89-.09-26.68.14-53.3-.09-80.01-.51-50.68,1.74-101.44-1.83-152.11Z"/>
    <path class="cls-3" d="M366.94,517.86c3.94.51,7.97,1.09,12,1.17,27.57.17,55.05.09,82.55.09h0c27.79,0,55.59,0,83.35-.09,3.09,0,6.06-.37,9.14-.74,4.03-.51,4.03-.57,3.23-4.68-3.94-19.88-9.28-39.33-16.23-58.42-5.91-16.31-13.37-31.88-21.05-47.45-18.42-37.22-29.77-76.7-35.91-117.75-2.77-18.8-4.4-37.65-4.46-56.67,0-1.83-.43-2.49-2.4-2.26-10.97,1.17-21.94,1.17-32.91,0-2.2-.23-2.63.51-2.71,2.49-.37,11.11-.51,22.22-1.4,33.34-2.06,25.68-6.88,50.9-13.68,75.7-5.86,21.37-13.31,42.05-22.88,62.02-5.4,11.26-11.11,22.31-16.17,33.71-6.51,14.77-11.63,30.05-15.8,45.62-2.71,10.03-4.83,20.2-7.17,30.28-.66,2.86-.43,3.23,2.49,3.66Z"/>
    <path class="cls-6" d="M433.44,165.71h25.77v-.09h24.19c4.03,0,4.17-.09,5.2-3.94.89-3.37-.09-4.6-3.51-4.6-15.51.09-31.08.14-46.59.23q-6.74,0-6.74,6.8c0,1.31.43,1.6,1.69,1.6Z"/>
    <path class="cls-6" d="M586.85,609.77c0-26.77-1.83-53.39-6-79.87-2.91-18.62-6.8-37.13-12.14-55.27-6.23-21.11-13.6-41.73-23.48-61.42-10.83-21.57-20.54-43.56-27.57-66.76-5.48-18.2-9.86-36.62-12.57-55.42-1.83-12.88-3.14-25.82-4.17-38.76-.6-7.97-.37-16.03-.51-23.99,0-1.37.57-2.03,1.74-2.77,1.74-1.11,3.34-2.49,4.74-4.03,2.71-3,2.86-6.8,2.86-10.6,0-12.85,0-25.65-.09-38.53,0-7.74,0-15.43-.23-23.11-.17-4.6-2.66-7.83-6.74-9.51-2.4-1.03-5.11-1.54-7.74-1.69-3-.06-5.97.74-9.06.74-15.43.09-30.94.09-46.36,0-4.08,0-8.26-.97-12.43-.74-6.86.37-12.65,3.88-13.08,12-.14,2.2,0,4.31,0,6.51,0,18.37.09,36.65,0,54.93,0,6.51,2.63,11.31,8.4,14.4,1.54.8,1.91,1.89,1.91,3.57-.09,23.77-2.34,47.25-6.37,70.64-3.6,20.71-8.71,40.88-15.51,60.7-5.63,16.4-12.65,32.02-20.62,47.39-15.23,29.45-25.45,60.81-32.62,93.15-4.4,19.77-7.31,39.71-9.23,59.9-1.6,17.2-2.31,34.45-2.4,51.7-.09,26.31,0,52.56,0,78.9h0c0,37.14,0,74.22-.2,111.44,0,8.34,3.8,13.91,11.26,17.2,6.2,2.63,12.63,4.08,19.37,4.08,62.07.09,124.23.09,186.39-.14,5.63,0,11.4-.97,16.74-2.57,10.83-3.2,15.88-8.63,15.8-20.91-.23-63.7-.09-127.46-.09-191.16ZM435.13,185.58h26.91v-.14h0c8.77,0,17.62.06,26.25,0,1.77,0,2.34.43,2.34,2.26-.09,6.66-.09,13.31,0,19.97,0,1.74-.74,2.63-2.34,2.91-5.94.94-11.8,2.49-17.71,2.63-8.48.29-16.97-.23-25.45-.8-3.43-.2-6.8-1.37-10.23-2.11-1.26-.29-1.83-.94-1.83-2.34,0-6.88-.06-13.74-.14-20.62,0-1.66.94-1.74,2.2-1.74ZM366.03,514.99c2.34-10.08,4.46-20.25,7.17-30.28,4.17-15.57,9.28-30.85,15.8-45.62,5.06-11.4,10.77-22.45,16.17-33.71,9.57-19.97,17.03-40.65,22.88-62.02,6.8-24.8,11.63-50.02,13.68-75.7.89-11.11,1.03-22.22,1.4-33.34.09-1.97.51-2.71,2.71-2.49,10.97,1.17,21.94,1.17,32.91,0,1.97-.23,2.4.43,2.4,2.26.06,19.02,1.69,37.88,4.46,56.67,6.14,41.05,17.48,80.53,35.91,117.75,7.68,15.57,15.14,31.14,21.05,47.45,6.94,19.08,12.28,38.53,16.23,58.42.8,4.11.8,4.17-3.23,4.68-3.09.37-6.06.74-9.14.74-27.76.09-55.56.09-83.35.09h0c-27.51,0-54.99.09-82.55-.09-4.03-.09-8.06-.66-12-1.17-2.91-.43-3.14-.8-2.49-3.66ZM567.83,719.87c.23,26.71,0,53.33.09,80.01,0,2.14-.37,3.14-2.77,3.89-5.48,1.54-10.97,1.46-16.45,1.46-59.99,0-119.95,0-179.91-.09-3.06,0-6.2-.74-9.28-1.17-2.2-.37-3-1.54-3-3.89.09-12.85.09-25.65.09-38.53v-74.39h0c0-24.14,0-48.27.14-72.35,0-23.57,1.54-47.02,4.54-70.36.2-1.83.34-3.74.57-5.57.14-1.23.6-1.89,2.06-1.46,6.86,1.89,13.97,1.97,21.05,1.97,53.44-.06,106.83,0,160.22-.14,5.17,0,10.37-.83,15.57-1.4,1.46-.23,2.2-.09,2.34,1.6.94,9.46,2.26,18.88,2.91,28.31,3.57,50.68,1.31,101.44,1.83,152.11Z"/>
    <path class="cls-3" d="M497.34,612.67c4.36,0,7.89-3.53,7.89-7.89s-3.53-7.89-7.89-7.89l-77.51.06c-4.36,0-7.89,3.53-7.89,7.89s3.53,7.86,7.89,7.86h0s15.88,0,15.88,0v29.68h-14.73c-4.36,0-7.89,3.53-7.89,7.89v84.19c0,4.36,3.53,7.89,7.89,7.89s7.89-3.53,7.89-7.89v-11.36h59.46v11.36c0,4.36,3.53,7.89,7.89,7.89s7.89-3.53,7.89-7.89l-.03-84.23c0-4.36-3.53-7.89-7.89-7.89h-14.73v-29.68h15.88ZM451.47,612.71h14.21v29.68h-14.21v-29.68ZM488.3,707.3h-59.46v-8.54h59.46v8.54ZM481.46,662.2v-4.05h6.84v24.82h-59.46v-24.82h36.83v4.05c0,4.36,3.53,7.89,7.89,7.89s7.89-3.53,7.89-7.89Z"/>
    <g>
      <path class="cls-2" d="M433.33,209.5c3.43.74,6.8,1.91,10.23,2.11,8.48.57,16.97,1.09,25.45.8,5.91-.14,11.77-1.69,17.71-2.63,1.6-.29,2.34-1.17,2.34-2.91-.09-6.66-.09-13.31,0-19.97,0-1.83-.57-2.26-2.34-2.26-8.63.06-17.48,0-26.25,0h0v.14h-26.91c-1.26,0-2.2.09-2.2,1.74.09,6.88.14,13.74.14,20.62,0,1.4.57,2.06,1.83,2.34Z"/>
      <path class="cls-2" d="M438.5,157.31c15.51-.09,31.08-.14,46.59-.23,3.43,0,4.4,1.23,3.51,4.6-1.03,3.86-1.17,3.94-5.2,3.94h-24.19v.09h-25.77c-1.26,0-1.69-.29-1.69-1.6q0-6.8,6.74-6.8Z"/>
    </g>
  </g>
</svg>