<?xml version="1.0" encoding="UTF-8"?>
<svg id="Laag_1" data-name="Laag 1" xmlns="http://www.w3.org/2000/svg" xmlns:xlink="http://www.w3.org/1999/xlink" viewBox="0 0 135.99 220.94">
  <defs>
    <style>
      .cls-1 {
        fill: none;
      }

      .cls-2 {
        stroke: #dbbb00;
        stroke-width: 1.42px;
      }

      .cls-2, .cls-3, .cls-4 {
        stroke-miterlimit: 10;
      }

      .cls-2, .cls-3, .cls-5 {
        fill: #233260;
      }

      .cls-3 {
        stroke-width: 1.98px;
      }

      .cls-3, .cls-4 {
        stroke: #233260;
      }

      .cls-4, .cls-6 {
        fill: #21b501;
      }

      .cls-7 {
        fill: #dbbb00;
      }

      .cls-8 {
        clip-path: url(#clippath);
      }
    </style>
    <clipPath id="clippath">
      <path class="cls-1" d="M68,8.79c-32.58,0-58.98,26.41-58.98,58.98v144.38h117.97V67.77c0-32.58-26.41-58.98-58.98-58.98Z"/>
    </clipPath>
  </defs>
  <path class="cls-7" d="M135.99,220.94H0V65.64C0,48.08,7.09,31.58,19.97,19.18,32.8,6.81,49.86,0,68,0s35.19,6.81,48.03,19.18c12.87,12.4,19.97,28.9,19.97,46.46v155.3ZM7.41,213.53h121.17V65.64c0-32.11-27.18-58.23-60.59-58.23S7.41,33.53,7.41,65.64v147.89Z"/>
  <path class="cls-5" d="M68,3.71C32.49,3.71,3.71,31.43,3.71,65.64v151.6h128.58V65.64c0-34.2-28.78-61.93-64.29-61.93Z"/>
  <g class="cls-8">
    <path class="cls-6" d="M68,8.79c-32.58,0-58.98,26.41-58.98,58.98v144.38h117.97V67.77c0-32.58-26.41-58.98-58.98-58.98Z"/>
    <path class="cls-7" d="M130.69,186.9l-125.38-.25v-118.88c0-16.74,6.52-32.49,18.36-44.33,11.84-11.84,27.58-18.36,44.33-18.36s32.49,6.52,44.33,18.36c11.84,11.84,18.36,27.58,18.36,44.33v119.13ZM12.72,179.26l110.56.22v-111.7c0-30.48-24.8-55.28-55.28-55.28S12.72,37.29,12.72,67.77v111.48Z"/>
    <path class="cls-5" d="M132.92,138.28l-37-36.91c-7.84,6.52-17.68,10.09-27.92,10.09s-20.09-3.57-27.93-10.09L6.08,135.27l-5.27-5.28,33.96-33.87c-5.91-6.93-9.52-15.56-10.29-24.62H5.9v-7.46h18.57c.78-9.21,4.48-17.94,10.55-24.92l-17.35-17.35,5.27-5.27,17.43,17.43c6.79-5.55,15.16-8.94,23.89-9.68V-1.01h7.46v25.26c8.97.77,17.52,4.31,24.41,10.11l17.86-17.86,5.27,5.27-17.86,17.86c5.8,6.89,9.35,15.44,10.11,24.41h19.88v7.46h-19.88c-.77,9.07-4.38,17.69-10.3,24.63l36.96,36.87-5.27,5.28ZM96.07,96.29l36.84,36.75.03-.03-36.84-36.75,1.21-1.31c6.43-6.93,10.2-15.95,10.61-25.38l.08-1.77h19.68v-.05h-19.68l-.08-1.77c-.41-9.33-4.12-18.27-10.43-25.18l-1.2-1.31,17.72-17.72-.03-.03-17.72,17.72-1.31-1.2c-6.9-6.31-15.84-10.02-25.18-10.43l-1.77-.08V2.7h-.05v25.06l-1.77.08c-9.1.4-17.87,3.95-24.7,10l-1.31,1.16-17.25-17.25-.03.03,17.25,17.25-1.24,1.31c-6.58,6.97-10.44,16.08-10.86,25.65l-.08,1.77H9.61v.05h18.37l.08,1.77c.42,9.43,4.18,18.44,10.61,25.37l1.21,1.31L6.05,130l.03.03,33.84-33.75,1.3,1.18c7.35,6.64,16.86,10.29,26.77,10.29s19.42-3.65,26.77-10.29l1.31-1.18Z"/>
    <g>
      <rect class="cls-7" x="66.12" y=".84" width="3.75" height="66.93"/>
      <g>
        <rect class="cls-7" x="43.4" y="10.65" width="3.75" height="66.93" transform="translate(-17.93 44.94) rotate(-45)"/>
        <rect class="cls-7" x="58.2" y="42.23" width="66.93" height="3.75" transform="translate(-4.34 77.73) rotate(-45)"/>
      </g>
      <g>
        <rect class="cls-7" x="99" y="53.93" width="3.75" height="94.23" transform="translate(-41.91 101.1) rotate(-45.07)"/>
        <rect class="cls-7" x="-8.38" y="97.67" width="89.99" height="3.75" transform="translate(-59.61 54.92) rotate(-44.93)"/>
      </g>
      <rect class="cls-7" x="7.76" y="65.9" width="121.79" height="3.75"/>
    </g>
    <path class="cls-7" d="M109.83,67.77c0,23.1-18.73,41.83-41.83,41.83s-41.83-18.73-41.83-41.83,18.73-41.83,41.83-41.83,41.83,18.73,41.83,41.83Z"/>
  </g>
  <rect class="cls-5" x="3.71" y="182.98" width="128.58" height="34.26"/>
  <g id="_knife_" data-name="&amp;lt;knife&amp;gt;">
    <path class="cls-4" d="M65.05,77.2s20.95-22.35,23.93-26.55c2.97-4.2,4.2-7.64,4.2-7.64,0,0-5.83,1.34-10.41,4.52-4.58,3.18-11.28,9.01-13.7,11.31-2.42,2.3-10.82,10.81-10.82,10.81,0,0,1.31,1.31,1.86,1.86.55.55.36,1.11.36,1.11l4.58,4.58Z"/>
    <path class="cls-5" d="M58.49,74.71l2.04-2.04,4.53,4.53s-11.87,13.19-13.15,14.35c-1.28,1.17-3.6,1.85-4.66.54-1.07-1.3-1.21-2.64-.82-3.69.39-1.05,1.05-1.4,1.05-1.4,0,0,1.36.47,2.45-.86,1.09-1.32.41-1.57,2.33-3.5,1.92-1.92,2.65-2.26,4.54-3.76,1.88-1.5,1.76-1.33,1.95-2.14.19-.82-.25-2.04-.25-2.04Z"/>
    <g>
      <path class="cls-7" d="M55.09,83.24c.36-.36.96-.36,1.32,0,.36.36.36.96,0,1.32-.36.36-.95.36-1.32,0-.36-.36-.36-.96,0-1.32Z"/>
      <path class="cls-7" d="M61.09,77.24c.37-.36.96-.36,1.32,0,.36.36.37.95,0,1.32-.36.36-.96.36-1.32,0-.36-.36-.36-.95,0-1.32Z"/>
      <path class="cls-7" d="M49.88,88.45c.36-.36.96-.36,1.32,0,.36.36.36.96,0,1.32-.36.36-.96.36-1.32,0-.36-.36-.36-.96,0-1.32Z"/>
    </g>
  </g>
  <g>
    <path class="cls-5" d="M84.86,87.47l3.86-3.86,4.58,4.58c.82.82,1.26,2.9.26,3.9-.98.98-3.03,1.05-4.5-.42l-4.2-4.2ZM88.71,84.97l-2.5,2.5,3.52,3.52c1.14,1.14,2.58.97,3.13.42.53-.53.29-1.99-.26-2.54l-3.9-3.9Z"/>
    <path class="cls-5" d="M55.58,63.26c2.27.45,6.81.3,9.08,2.27,2.27,1.97,9.77,10.53,13.5,14.71,3.73,4.18,4.03,4.33,6.68,6.38,2.65,2.04,5.13,3.19,5.86,2.61.72-.57-1.85-4.51-3.82-6.93-1.97-2.42-4.69-4.84-8.4-8.09-3.71-3.25-6.64-5.58-8-6.94-1.36-1.36-3.18-2.57-4.46-4.92-1.29-2.34-1.21-6.66-1.82-9.08-.61-2.42-3.48-4.69-6.73-7.79-3.25-3.1-5.8-6.17-8.12-4.3-2.32,1.87-5.12,4.82-6.41,6.41-1.29,1.59-1.97,2.42,1.21,5.75,3.18,3.33,9.16,9.46,11.43,9.92ZM62.67,59.43l-1.78,1.78-4.33-.66,5.45-5.45.66,4.33ZM50.92,45.78c-.49-.49-.49-1.29,0-1.78.49-.49,1.29-.49,1.78,0l5.42,5.42c.49.49.49,1.29,0,1.78-.49.49-1.29.49-1.78,0l-5.42-5.42ZM48.19,48.51c-.49-.49-.49-1.29,0-1.78.49-.49,1.29-.49,1.78,0l5.42,5.42c.49.49.49,1.29,0,1.78-.49.49-1.29.49-1.78,0l-5.42-5.42ZM45.47,51.23c-.49-.49-.49-1.29,0-1.78s1.29-.49,1.78,0l5.42,5.42c.49.49.49,1.29,0,1.78-.49.49-1.29.49-1.78,0l-5.42-5.42Z"/>
  </g>
  <path class="cls-7" d="M66.27,174.34c.37.32.74.69.97,1.11l-.05,6.25c.35.04.7.07,1.05.1l-.13-5.19c.32-.79.88-1.89,1.34-2.72,13.39.88,10.53-13.3,10.53-13.3-12.61,1.89-12.15,10.3-11.78,12.56.46-.74.92-1.43,1.39-2.12.69-.97,1.43-1.94,2.17-2.86.79-.92,1.57-1.8,2.49-2.63.92-.78,1.89-1.52,3-2.03.09-.05.23,0,.23.09.05.09,0,.18-.09.23-1.06.51-1.94,1.25-2.82,2.08-.83.83-1.62,1.71-2.31,2.63-.74.92-1.39,1.89-2.03,2.91-.18.32-.42.65-.6.97-.05.09-.97,1.62-1.62,2.96v-1.52c0-.23-.18-.37-.37-.37-.23,0-.42.18-.42.37v.83c-.23-.28-.46-.51-.74-.69-.28-.28-.6-.6-.92-.88-.55-.51-1.15-.97-1.75-1.39s-1.25-.83-1.89-1.2c-.65-.37-1.34-.65-2.03-.97-.09-.05-.14-.14-.09-.23.05-.09.14-.14.23-.09.74.23,1.43.51,2.12.83.69.32,1.39.69,2.03,1.11.65.42,1.29.83,1.89,1.29.37.28.69.55,1.02.83-.23-1.89-1.94-7.39-10.85-6.05,0,0,1.02,10.34,10.02,7.11Z"/>
  <rect class="cls-5" x="43.93" y="122.05" width="48.14" height="7.23" rx="1" ry="1"/>
  <rect class="cls-5" x="29.83" y="147.05" width="76.34" height="7.23" rx="1" ry="1"/>
  <rect class="cls-2" x="18.22" y="142.71" width="23.21" height="3.62" rx="1" ry="1"/>
  <rect class="cls-2" x="94.57" y="142.71" width="23.21" height="3.62" rx="1" ry="1"/>
  <path class="cls-7" d="M50.38,149.56c-.61,0-1.1.49-1.1,1.1s.49,1.1,1.1,1.1,1.1-.49,1.1-1.1-.49-1.1-1.1-1.1Z"/>
  <path class="cls-7" d="M85.96,149.56c-.61,0-1.1.49-1.1,1.1s.49,1.1,1.1,1.1,1.1-.49,1.1-1.1-.49-1.1-1.1-1.1Z"/>
  <g>
    <path class="cls-6" d="M39.71,190h-.01c-.76,0-1.37.23-1.81.7s-.67,1.09-.67,1.89c0,.84.22,1.51.67,2s1.05.74,1.8.74c.61,0,1.12-.15,1.53-.46.41-.3.69-.74.83-1.3h2.33c-.16,1.2-.66,2.13-1.48,2.79-.82.67-1.89,1-3.2,1-1.48,0-2.65-.42-3.5-1.27-.84-.85-1.26-2.02-1.26-3.51s.42-2.55,1.25-3.38c.85-.83,1.95-1.25,3.3-1.25s2.41.42,3.11,1.26v-1.1h1.79v3.81h-2.26c-.1-.61-.36-1.08-.79-1.42-.43-.34-.97-.51-1.62-.51Z"/>
    <path class="cls-6" d="M53.38,195.39h.73v1.82h-4.08v-1.82h1.09l-.23-.7h-3.16l-.25.7h1.1v1.82h-4.1v-1.82h.73l2.7-7.32h2.76l2.7,7.32ZM48.27,193.08h2.07l-1.04-3.06-1.03,3.06Z"/>
    <path class="cls-6" d="M67.3,189.93h-.91v5.46h.91v1.82h-4.07v-1.82h1v-4.28l-2.21,6.1h-2.07l-2.22-6.11v4.29h1v1.82h-4.07v-1.82h.91v-5.46h-.91v-1.82h3.95l2.37,6.45,2.38-6.45h3.94v1.82Z"/>
    <path class="cls-6" d="M72.32,194.35h-1.12v1.04h1.35v1.82h-4.47v-1.82h.91v-5.46h-.91v-1.82h4.24c1.13,0,2.03.28,2.71.85.68.57,1.02,1.32,1.02,2.25s-.34,1.72-1.01,2.29c-.68.56-1.59.84-2.72.84ZM72.32,189.93h-1.12v2.67h1.12c.44,0,.8-.12,1.07-.38.27-.25.4-.58.4-1,0-.39-.13-.7-.4-.94-.27-.23-.62-.35-1.07-.35Z"/>
    <path class="cls-6" d="M79.64,195.39h.91v1.82h-4.03v-1.82h.91v-5.46h-.91v-1.82h4.03v1.82h-.91v5.46Z"/>
    <path class="cls-6" d="M91.65,188.11v1.82h-.91v7.28h-2.5l-3.8-6.01v4.19h1.07v1.82h-4.19v-1.82h.91v-5.46h-.91v-1.82h3.42l3.78,5.97v-4.15h-1.08v-1.82h4.2Z"/>
    <path class="cls-6" d="M96.98,190c-.81,0-1.44.23-1.89.69-.46.46-.68,1.09-.68,1.9s.22,1.51.67,2.01c.45.5,1.05.75,1.8.75.58,0,1.07-.14,1.48-.42.41-.28.68-.66.82-1.16h-2.37v-1.51h4.78v4.95h-1.87v-.99c-.71.76-1.71,1.14-2.99,1.14-1.35,0-2.46-.43-3.32-1.3-.86-.87-1.29-2.03-1.29-3.48,0-1.39.43-2.51,1.33-3.37.89-.86,2-1.28,3.33-1.25,1.3,0,2.31.43,3.02,1.3v-1.14h1.79v3.61h-2.21c-.14-.54-.43-.96-.86-1.27-.44-.31-.95-.46-1.54-.46Z"/>
    <path class="cls-6" d="M39.16,204.62h-.01c-.76,0-1.37.23-1.81.7s-.67,1.09-.67,1.89c0,.84.22,1.51.67,2s1.05.74,1.8.74c.61,0,1.12-.15,1.53-.46.41-.3.69-.74.83-1.3h2.33c-.16,1.2-.66,2.13-1.48,2.79-.82.67-1.89,1-3.2,1-1.48,0-2.65-.42-3.5-1.27-.84-.85-1.26-2.02-1.26-3.51s.42-2.55,1.25-3.38c.85-.83,1.95-1.25,3.3-1.25s2.41.42,3.11,1.26v-1.1h1.79v3.81h-2.26c-.1-.61-.36-1.08-.79-1.42-.43-.34-.97-.51-1.62-.51Z"/>
    <path class="cls-6" d="M54.61,202.74v1.82h-.91v3.24c0,1.36-.36,2.4-1.07,3.12s-1.74,1.08-3.09,1.08-2.38-.36-3.09-1.08-1.07-1.76-1.07-3.12v-3.24h-.91v-1.82h4.08v1.82h-.96v3.24c0,.69.17,1.22.51,1.59.34.37.82.55,1.44.55s1.12-.18,1.45-.55.5-.9.5-1.59v-3.24h-.96v-1.82h4.08Z"/>
    <path class="cls-6" d="M60.97,208.25h1.79v3.59h-7.57v-1.82h.91v-5.46h-.91v-1.82h4.39v1.82h-1.27v5.46h2.65v-1.77Z"/>
    <path class="cls-6" d="M66.58,210.02h.91v1.82h-4.03v-1.82h.91v-5.46h-.91v-1.82h4.03v1.82h-.91v5.46Z"/>
    <path class="cls-6" d="M78.6,202.74v1.82h-.91v7.28h-2.5l-3.8-6.01v4.19h1.07v1.82h-4.19v-1.82h.91v-5.46h-.91v-1.82h3.42l3.78,5.97v-4.15h-1.08v-1.82h4.2Z"/>
    <path class="cls-6" d="M87.46,210.02h.73v1.82h-4.08v-1.82h1.09l-.23-.7h-3.16l-.25.7h1.11v1.82h-4.1v-1.82h.73l2.7-7.32h2.76l2.7,7.32ZM82.35,207.71h2.07l-1.04-3.06-1.03,3.06Z"/>
    <path class="cls-6" d="M91.87,210.02h.91v1.82h-4.03v-1.82h.91v-5.46h-.91v-1.82h4.03v1.82h-.91v5.46Z"/>
    <path class="cls-6" d="M101.54,210.18c.16,0,.33-.03.53-.08v1.75c-.38.09-.75.13-1.1.13-1.14,0-1.99-.56-2.54-1.68l-.75-1.57h-1.01v1.29h.84v1.82h-3.95v-1.82h.9v-5.46h-.9v-1.82h4.32c1.2,0,2.14.27,2.81.8.67.53,1.01,1.27,1.01,2.22,0,1.3-.61,2.18-1.83,2.65l.44.91c.27.57.68.86,1.24.86ZM96.67,204.56v2.48h1.25c.49,0,.86-.11,1.12-.34s.4-.54.4-.94-.13-.68-.39-.89c-.26-.21-.64-.32-1.13-.32h-1.25Z"/>
  </g>
  <path class="cls-5" d="M59.52,129.15c.21-.92-.37-1.84-1.28-2.05l-5.1-1.17c-.92-.21-1.84.36-2.05,1.28l-12.04,52.1,8.87.02,11.6-50.17h0Z"/>
  <path class="cls-5" d="M97.3,179.38l-12.06-52.17c-.21-.92-1.13-1.49-2.05-1.28l-5.1,1.17c-.92.21-1.49,1.13-1.28,2.05l11.61,50.26,8.88.02s0-.03,0-.04Z"/>
  <g>
    <polygon class="cls-3" points="83.55 123.13 68.25 138.43 52.95 123.13 83.55 123.13"/>
    <rect class="cls-6" x="60.89" y="125.56" width="5.75" height="5.75" transform="translate(-72.15 82.71) rotate(-45)"/>
    <rect class="cls-7" x="65.37" y="130.05" width="5.75" height="5.75" transform="translate(-74 87.19) rotate(-45)"/>
    <rect class="cls-6" x="69.97" y="125.45" width="5.75" height="5.75" transform="translate(-69.41 89.1) rotate(-45)"/>
    <polygon class="cls-7" points="59.06 127.8 63.02 123.84 55.1 123.84 59.06 127.8"/>
    <polygon class="cls-7" points="68.36 127.91 72.43 123.84 64.29 123.84 68.36 127.91"/>
    <polygon class="cls-7" points="77.45 127.8 81.4 123.84 73.49 123.84 77.45 127.8"/>
  </g>
</svg>