<?xml version="1.0" encoding="UTF-8"?>
<svg id="Layer_1" data-name="Layer 1" xmlns="http://www.w3.org/2000/svg" viewBox="0 0 924.4 924.4">
  <defs>
    <style>
      .cls-1, .cls-2 {
        fill: #dbbb00;
      }

      .cls-3 {
        fill: #21b501;
        stroke-width: 9.76px;
      }

      .cls-3, .cls-2 {
        stroke: #233260;
        stroke-miterlimit: 10;
      }

      .cls-2 {
        stroke-width: 24.4px;
      }

      .cls-4 {
        fill: #233260;
      }
    </style>
  </defs>
  <path class="cls-2" d="M912.2,462.2c0,248.53-201.47,450-449.99,450S12.2,710.73,12.2,462.2,213.68,12.2,462.21,12.2s449.99,201.47,449.99,450Z"/>
  <g>
    <g id="_knife_" data-name="&amp;lt;knife&amp;gt;">
      <path class="cls-3" d="M416.06,570.26s225.96-243.37,258.01-289.07c32.06-45.7,45.27-83.15,45.27-83.15,0,0-62.86,14.6-112.22,49.19-49.34,34.59-121.67,98.09-147.76,123.17-26.09,25.07-116.62,117.74-116.62,117.74,0,0,14.16,14.27,20.05,20.22,5.89,5.95,3.92,12.07,3.92,12.07l49.35,49.82Z"/>
      <path class="cls-4" d="M345.23,543.18l22-22.22,48.82,49.3s-127.97,143.59-141.8,156.28c-13.83,12.69-38.77,20.1-50.29,5.92-11.53-14.17-12.99-28.77-8.8-40.2,4.2-11.42,11.32-15.24,11.32-15.24,0,0,14.66,5.08,26.4-9.31,11.73-14.38,4.4-17.14,25.14-38.08,20.75-20.95,28.58-24.61,48.9-40.9,20.32-16.29,18.93-14.46,21.02-23.35,2.1-8.88-2.72-22.22-2.72-22.22Z"/>
      <g>
        <path class="cls-1" d="M308.63,636.02c3.93-3.96,10.31-3.97,14.24,0,3.93,3.97,3.93,10.41,0,14.38-3.93,3.97-10.3,3.97-14.23,0-3.93-3.97-3.93-10.4,0-14.37Z"/>
        <path class="cls-1" d="M373.31,570.72c3.94-3.97,10.31-3.97,14.23,0,3.93,3.97,3.94,10.39,0,14.37-3.93,3.97-10.3,3.97-14.24,0-3.92-3.96-3.93-10.39,0-14.36Z"/>
        <path class="cls-1" d="M252.47,692.72c3.93-3.97,10.3-3.97,14.23,0,3.93,3.97,3.93,10.41,0,14.37-3.93,3.97-10.3,3.97-14.23,0-3.93-3.97-3.93-10.4,0-14.37Z"/>
      </g>
    </g>
    <g>
      <path class="cls-4" d="M629.57,682.09l41.59-42,49.35,49.82c8.85,8.94,13.64,31.52,2.81,42.45-10.61,10.72-32.63,11.44-48.48-4.57l-45.27-45.71ZM671.17,654.92l-26.92,27.18,37.93,38.3c12.34,12.46,27.82,10.61,33.8,4.57,5.7-5.75,3.15-21.62-2.81-27.63l-42.01-42.41Z"/>
      <path class="cls-4" d="M313.88,418.52c24.47,4.95,73.41,3.3,97.88,24.71,24.47,21.42,105.4,114.65,145.59,160.17,40.19,45.52,43.47,47.17,72.02,69.41,28.54,22.24,55.37,34.69,63.16,28.46,7.8-6.23-19.94-49.05-41.14-75.4-21.21-26.35-50.58-52.71-90.55-88.12-39.97-35.42-71.59-60.76-86.27-75.58-14.68-14.82-34.26-28-48.12-53.53-13.87-25.53-13.05-72.47-19.58-98.82-6.52-26.36-37.52-51.06-72.59-84.82-35.07-33.77-62.52-67.16-87.59-46.8-25.06,20.36-55.23,52.49-69.11,69.77-13.87,17.29-21.2,26.35,13.05,62.58,34.26,36.24,98.78,103.02,123.25,107.96ZM390.31,376.78l-19.17,19.36-46.7-7.21,58.72-59.29,7.14,47.14ZM263.59,228.26c-5.29-5.35-5.29-14.01,0-19.35,5.3-5.35,13.88-5.35,19.17,0l58.4,58.97c5.29,5.34,5.3,14,0,19.36-5.29,5.34-13.87,5.34-19.17,0l-58.41-58.97ZM234.23,257.9c-5.3-5.35-5.29-14.01,0-19.35,5.29-5.35,13.87-5.35,19.17,0l58.41,58.97c5.29,5.34,5.29,14.01,0,19.35-5.29,5.34-13.88,5.34-19.17,0l-58.4-58.97ZM204.86,287.55c-5.29-5.35-5.29-14.01,0-19.35,5.29-5.34,13.87-5.35,19.17,0l58.4,58.97c5.29,5.34,5.29,14.01,0,19.36-5.29,5.34-13.88,5.34-19.17,0l-58.4-58.97Z"/>
    </g>
  </g>
</svg>