<?xml version="1.0" encoding="UTF-8"?>
<svg id="Layer_1" data-name="Layer 1" xmlns="http://www.w3.org/2000/svg" viewBox="0 0 924.4 924.4">
  <defs>
    <style>
      .cls-1 {
        fill: none;
      }

      .cls-2 {
        fill: #21b501;
      }

      .cls-3, .cls-4 {
        fill: #dbbb00;
      }

      .cls-4 {
        stroke: #233260;
        stroke-miterlimit: 10;
        stroke-width: 24.4px;
      }

      .cls-5 {
        fill: #233260;
      }
    </style>
  </defs>
  <path class="cls-4" d="M912.2,462.2c0,248.53-201.47,450-449.99,450S12.2,710.73,12.2,462.2,213.68,12.2,462.21,12.2s449.99,201.47,449.99,450Z"/>
  <g>
    <polygon class="cls-2" points="453.81 555.21 438.9 544.59 425.65 535.16 413.43 526.46 413.29 525.97 412.86 524.53 411.5 519.99 411.4 519.64 411.05 519.79 406.71 521.68 405.34 522.28 404.87 522.48 390.34 518.76 374.59 514.72 356.84 510.17 296.99 548.56 247.05 580.61 247.13 580.72 240.98 593.96 384.47 531.38 250.29 820.27 285.61 836.67 419.79 547.78 464.54 697.8 470.56 684.84 462.79 624.69 453.81 555.21"/>
    <polygon class="cls-2" points="345.26 507.2 191.12 467.67 162.45 460.31 242 573.44 258.2 563.05 345.26 507.2"/>
    <polygon class="cls-2" points="463.54 562.13 476.79 664.73 479.25 683.8 617.31 671.59 593.2 654.43 463.54 562.13"/>
    <polygon class="cls-2" points="540.55 231.19 589.75 125.25 604.68 93.12 546.82 129.6 526.8 122.05 529.52 143.62 540.55 231.19"/>
    <polygon class="cls-2" points="595.74 436.72 497.12 483.67 686.14 543.56 704.86 549.5 754.74 461.23 734.68 460.5 715.37 457.2 595.74 436.72"/>
    <polygon class="cls-2" points="609.46 430.18 718.55 448.86 737.86 452.16 776.56 350.62 732.7 371.5 609.46 430.18"/>
    <polygon class="cls-2" points="406.54 483.88 410.52 499.05 412.55 506.77 417.55 495.98 453.7 418.17 452.72 404.13 438.32 196.77 436.8 174.92 436.64 175.02 416.45 160.28 378.31 242.38 316.07 139.3 333.34 205.09 406.54 483.88"/>
    <polygon class="cls-2" points="461.33 401.73 533.6 246.14 520.74 144.03 518.08 122.91 445.21 169.54 446.72 191.39 461.33 401.73"/>
    <polygon class="cls-2" points="351.98 310.58 317.32 178.56 304.99 131.58 252.38 226.62 267.35 239.25 351.98 310.58"/>
    <polygon class="cls-2" points="166.78 452.38 203.17 461.71 387.65 509.03 394.09 510.68 405.27 513.54 402.39 502.6 400.75 496.34 386.84 443.34 212.78 333.49 196.17 323 196.15 323.06 176.69 327.98 199.6 442.73 166.78 452.38"/>
    <polygon class="cls-2" points="215.89 325.09 383.58 430.92 355.84 325.29 263.03 247.06 248.05 234.44 248.04 234.46 234.54 219.61 199.28 314.61 215.89 325.09"/>
    <polygon class="cls-2" points="158.57 454.8 158.57 454.8 158.57 454.8 158.57 454.8"/>
    <polygon class="cls-2" points="645.08 177.39 645.08 177.39 645.08 177.4 645.08 177.39"/>
    <polygon class="cls-2" points="522.16 120.3 522.16 120.3 522.17 120.3 522.16 120.3"/>
    <polygon class="cls-2" points="709.25 575.34 700.45 557.3 700.46 557.29 681.74 551.36 485.54 489.19 436.06 512.74 430.23 515.52 420 520.39 429.4 527.08 434.83 530.94 589.98 641.38 620.58 663.16 606.79 631.86 623.44 605.25 709.25 575.34"/>
    <polygon class="cls-2" points="640.75 174.98 622.06 164.55 612.62 96.81 597.7 128.95 548.5 234.87 622.52 186.82 640.75 174.98"/>
    <polygon class="cls-2" points="657.12 268.18 645.72 182.2 627.87 193.79 541.55 249.82 469.27 405.44 639.45 281.09 657.12 268.18"/>
    <polygon class="cls-2" points="441.85 500.28 702.09 376.37 763.5 347.13 644.59 366.06 682.72 283.96 658.46 278.05 640.76 290.98 473.01 413.56 461.65 421.86 425.5 499.67 420.49 510.45 427.69 507.03 441.85 500.28"/>
  </g>
  <path class="cls-5" d="M502.13,319.65v-153.7c0-8.24-6.74-14.98-14.98-14.98h-44.22c-8.24,0-14.98,6.74-14.98,14.98v151.76c-38.63,14.2-66.44,51.32-66.44,94.72v46.25s0,281.36,0,281.36v108.69c0,5.49,4.5,9.99,9.99,9.99h181.95c5.49,0,9.99-4.5,9.99-9.99v-108.69s0-281.36,0-281.36v-46.25c0-41.47-25.35-77.29-61.31-92.78Z"/>
  <g>
    <polygon class="cls-1" points="469.91 618.01 469.91 618.12 469.91 618.02 469.91 618.01"/>
    <path class="cls-3" d="M542.7,568.48c-5.59-39.15-23.97-92.68-23.97-92.68h-56.73s0,0,0,0h-56.73s-18.38,53.53-23.97,92.68c-1.86,13.03,1.02,24.87,6.09,35.16h149.22c5.07-10.29,7.95-22.13,6.09-35.16Z"/>
    <path class="cls-3" d="M467.04,773.02c-.8-42.35,0-98.28,1.6-105.47.76-3.41,4.8-7.72,10.15-11.98h-33.08c5.35,4.27,9.39,8.57,10.15,11.98,1.6,7.19,2.4,63.12,1.6,105.47-.8,42.35-16.78,58.33-23.17,62.32-6.39,4-45.54,7.99-45.54,7.99v7.19h73.51s0,0,0,0h73.51v-7.19s-39.15-3.99-45.54-7.99c-6.39-4-22.37-19.98-23.17-62.32Z"/>
    <path class="cls-2" d="M499,642.78c8.53-4.26,27.68-18.53,37.85-39.15h-149.22c10.17,20.62,29.32,34.89,37.85,39.15,6.72,3.36,14.28,8.05,20.22,12.79h33.08c5.93-4.74,13.49-9.42,20.22-12.79ZM462.25,618.01h0s0,.11,0,.11v-.11Z"/>
  </g>
</svg>