<?xml version="1.0" encoding="UTF-8"?>
<svg id="Layer_1" data-name="Layer 1" xmlns="http://www.w3.org/2000/svg" viewBox="0 0 924.4 924.4">
  <defs>
    <style>
      .cls-1 {
        fill-rule: evenodd;
      }

      .cls-1, .cls-2 {
        fill: #21b501;
      }

      .cls-3, .cls-4 {
        fill: #dbbb00;
      }

      .cls-4 {
        stroke: #233260;
        stroke-miterlimit: 10;
        stroke-width: 24.4px;
      }

      .cls-5 {
        fill: #233260;
      }
    </style>
  </defs>
  <path class="cls-4" d="M912.2,462.2c0,248.53-201.47,450-449.99,450S12.2,710.73,12.2,462.2,213.68,12.2,462.21,12.2s449.99,201.47,449.99,450Z"/>
  <g>
    <path class="cls-1" d="M437.31,96.02v-.04l2.78-14.42h0l2.74,14.3,2.74,20.29h0c.16,1.14,1.04,2.05,2.18,2.28l20.54,4.06h.04l14.6,2.75-14.6,2.75h-.04l-20.54,4.06h0c-1.14.23-2.02,1.14-2.18,2.28l-2.7,18.82-.04.13-2.74,14.3-2.78-14.42v-.04l-4.11-18.95c-.22-1.06-1.06-1.89-2.14-2.12l-19.17-4.06h-.04l-14.6-2.75,14.6-2.75h.04l19.17-4.06c1.08-.22,1.92-1.05,2.14-2.12"/>
    <path class="cls-1" d="M205.27,262.53v-.04l2.78-14.42h0l2.74,14.3,2.74,20.29h0c.16,1.14,1.04,2.05,2.18,2.28l20.54,4.06h.04l14.6,2.75-14.6,2.75h-.04l-20.54,4.06h0c-1.14.23-2.02,1.14-2.18,2.28l-2.7,18.82-.04.13-2.74,14.3-2.78-14.42v-.04l-4.11-18.95c-.22-1.06-1.06-1.89-2.14-2.12l-19.17-4.06h-.04l-14.6-2.75,14.6-2.75h.04l19.17-4.06c1.08-.22,1.92-1.05,2.14-2.12"/>
    <path class="cls-1" d="M399.93,743.28v-.04l2.78-14.42h0l2.74,14.3,2.74,20.29h0c.16,1.14,1.04,2.05,2.18,2.28l20.54,4.06h.04l14.6,2.75-14.6,2.75h-.04l-20.54,4.06h0c-1.14.23-2.02,1.14-2.18,2.28l-2.7,18.82-.04.13-2.74,14.3-2.78-14.42v-.04l-4.11-18.95c-.22-1.06-1.06-1.89-2.14-2.12l-19.17-4.06h-.04l-14.6-2.75,14.6-2.75h.04l19.17-4.06c1.08-.22,1.92-1.05,2.14-2.12"/>
    <path class="cls-5" d="M341.45,611.37c-16.29,0-30.16-11.65-32.99-27.69l-10.49-59.74c-.99-5.56-4.62-10.28-9.72-12.64l-28.48-13.26,35.66-54.57c1.84-2.86,2.79-6.09,2.79-9.41v-26.9c0-87.67,71.32-158.99,158.99-158.99h12.07c73.24,0,137.62,49.42,156.55,120.17,11.38,42.53,4.78,88.51-18.1,126.12l-33.92,55.74c-14.62,24.02-19.52,52.4-13.8,79.91l6.82,32.83h-138.67l-4.44-21.33c-3.64-17.52-19.27-30.24-37.16-30.24h-45.13Z"/>
    <path class="cls-1" d="M744.39,487.11v-.04l2.78-14.42h0l2.74,14.3,2.74,20.29h0c.16,1.14,1.04,2.05,2.18,2.28l20.54,4.06h.04l14.6,2.75-14.6,2.75h-.04l-20.54,4.06h0c-1.14.23-2.02,1.14-2.18,2.28l-2.7,18.82-.04.13-2.74,14.3-2.78-14.42v-.04l-4.11-18.95c-.22-1.06-1.06-1.89-2.14-2.12l-19.17-4.06h-.04l-14.6-2.75,14.6-2.75h.04l19.17-4.06c1.08-.22,1.92-1.05,2.14-2.12"/>
    <g>
      <path class="cls-2" d="M467.09,436.43c-5.41,4.63-12.83,6.17-19.63,4.07-6.81-2.1-12.06-7.55-13.92-14.42-1.86-6.88-.07-14.23,4.75-19.48,4.82-5.24,12-7.66,19-6.39,2.56,7.5,8.07,13.63,15.26,16.97-4.04,5.57-5.97,12.39-5.47,19.25h0ZM498.36,374.6c-5.71-4.76-13.52-6.12-20.5-3.57-6.98,2.56-12.06,8.64-13.34,15.96-1.27,7.32,1.45,14.76,7.16,19.53,2.21,1.85,4.78,3.22,7.55,4.01,5.93-4.25,13.23-6.16,20.49-5.36.42-.43.88-.78,1.26-1.24h0c3.53-4.24,5.23-9.71,4.74-15.2-.49-5.51-3.14-10.58-7.37-14.13h0ZM509.73,418.41h0c-2.59-2.14-5.68-3.6-8.98-4.24-.06,0-.12-.05-.19-.05h0c-6.64-1.27-13.48.79-18.31,5.52-4.83,4.73-7.04,11.53-5.89,18.18,1.13,6.66,5.46,12.35,11.58,15.2,6.12,2.87,13.26,2.55,19.1-.85,5.84-3.4,9.64-9.44,10.18-16.18.54-6.72-2.26-13.3-7.49-17.58h0ZM573.22,388.33h0c-2.95,3.51-6.68,6.28-10.87,8.1.98,4.52.91,9.21-.21,13.69,4.64-2.68,9.92-4.04,15.28-3.92,5.36.1,10.58,1.68,15.11,4.54,1.42-.99,2.72-2.15,3.85-3.46,3.46-4.11,5.2-9.4,4.82-14.76-.37-5.36-2.81-10.37-6.8-13.96-4-3.59-9.22-5.49-14.6-5.3-.71,5.55-2.99,10.77-6.57,15.07h0ZM511.72,318.63c-1.61,1.96-2.86,4.2-3.66,6.6,5.68.76,11.01,3.19,15.32,6.96,4.31,3.78,7.4,8.74,8.9,14.28,4.15-3.33,9.14-5.46,14.41-6.16,2.74-6.17,2.3-13.27-1.15-19.06-3.45-5.79-9.51-9.54-16.23-10.06-6.72-.52-13.28,2.25-17.59,7.44h0ZM521.96,375.83c-1.55-6.84-.58-14.01,2.72-20.2.41-6.22-2-12.31-6.56-16.56-4.56-4.25-10.8-6.23-16.99-5.39-6.19.85-11.66,4.43-14.9,9.77-3.24,5.33-3.92,11.84-1.85,17.72,6.38-.16,12.63,1.76,17.8,5.48,5.18,3.72,9,9.03,10.88,15.12,2.58-2.5,5.6-4.51,8.9-5.93h0ZM566.59,382.79c4.76-5.71,6.12-13.52,3.57-20.5-2.56-6.98-8.64-12.06-15.96-13.34-7.32-1.27-14.77,1.45-19.53,7.16-4.08,4.85-5.71,11.3-4.4,17.51,8.01-.95,16.04,1.44,22.23,6.61,2.73,2.27,5.01,5.04,6.72,8.15,2.86-1.26,5.38-3.18,7.38-5.57v-.02ZM524.3,421.38h0c4.68,2.36,10.07,2.86,15.11,1.41,5.04-1.45,9.34-4.74,12.04-9.23,2.71-4.48,3.62-9.83,2.57-14.96-1.06-5.13-4.02-9.67-8.28-12.71s-9.52-4.37-14.71-3.7c-5.2.66-9.95,3.26-13.31,7.28-1.78,2.16-3.13,4.63-3.97,7.3-.05.28-.11.57-.2.85-1.13,4.36-.83,8.97.87,13.14.08.18.06.33.14.51.24.2.45.33.69.52h0c3.03,2.54,5.52,5.66,7.34,9.17.6.04,1.19.19,1.74.44l-.02-.02ZM525.56,431.08h0c.93,7.99-1.46,16-6.61,22.17-.58.7-1.2,1.36-1.84,2,1.25,2.47,2.99,4.67,5.11,6.46,4.23,3.54,9.71,5.24,15.2,4.75,5.5-.49,10.58-3.15,14.12-7.39,1.12-1.38,2.07-2.9,2.81-4.51-6.1-7.28-8.35-17.05-6.03-26.27-6.89,3.99-15.11,5-22.75,2.79l-.02-.02ZM560.83,422.23h0c-3.54,4.24-5.25,9.71-4.76,15.21.49,5.5,3.15,10.58,7.39,14.12,4.23,3.54,9.71,5.25,15.21,4.76,5.5-.49,10.58-3.15,14.12-7.39,3.54-4.23,5.25-9.71,4.76-15.21-.49-5.5-3.15-10.58-7.39-14.12-4.23-3.54-9.71-5.24-15.2-4.74-5.5.5-10.57,3.15-14.11,7.39l-.02-.02Z"/>
      <path class="cls-2" d="M442.87,380.64c3.07-2.7,5.66-5.91,7.66-9.47,2.53-4.39,3.82-9.39,3.75-14.46,5.28,2.62,9.81,5.18,12.99,7.14h0c1.61.99,3.7.49,4.7-1.11l.08-.14c.89-1.6.36-3.6-1.18-4.57-11.45-6.9-23.6-12.57-36.25-16.91,3.82-2.92,6.98-6.61,9.27-10.83,3.25-5.94,5.13-12.54,5.51-19.3.86-14.33-4.82-27.87-14.47-34.45h0c-1.05-.7-2.39-.79-3.51-.21-10.31,5.38-17.52,18.14-18.4,32.48h0c-.82,10.39,2.24,20.7,8.57,28.97-10.24-1.81-20.03-1.34-27.01,3.75h0c-1.53,1.11-1.86,3.24-.75,4.77,1.11,1.53,3.24,1.86,4.77.75,9.04-6.58,25.97-2.79,41.31,3.23h0c-6.18,1.19-11.92,4.04-16.61,8.24-8.11,6.59-12.3,16.87-11.1,27.26.23,1.23,1.13,2.24,2.33,2.62,10.16,2.4,20.84-.52,28.36-7.76h0Z"/>
    </g>
    <path class="cls-5" d="M594.91,562.25l33.92-55.74c26.38-43.35,33.99-96.33,20.87-145.36-21.81-81.55-96.02-138.5-180.44-138.5h-12.07c-101.3,0-183.72,82.42-183.72,183.72v24.68l-34.41,52.87c-3.89,5.98-5,13.33-3.03,20.2,1.97,6.86,6.8,12.52,13.26,15.52l24.95,11.61,9.81,55.89c4.9,27.9,29.02,48.14,57.34,48.14h45.14c6.25,0,11.7,4.43,12.95,10.54l7.29,35.07c.73,3.47,3.79,5.96,7.33,5.96h173.87c2.25,0,4.39-1.02,5.8-2.76,1.42-1.75,1.99-4.05,1.53-6.25l-11.12-53.57c-4.45-21.35-.64-43.38,10.7-62.03h0ZM569.54,627.32l9.26,44.56h-158.57l-6.05-29.09c-2.7-13.02-14.32-22.48-27.62-22.48h-45.13c-21.04,0-38.94-15.04-42.59-35.75l-10.49-59.74c-.43-2.41-2-4.46-4.22-5.48l-28.49-13.26c-2.58-1.19-4.42-3.35-5.19-6.08-.78-2.72-.36-5.53,1.18-7.9l35.62-54.74c.79-1.22,1.22-2.64,1.22-4.09v-26.9c0-93.05,75.69-168.74,168.74-168.74h12.07c77.65,0,145.89,52.38,165.97,127.4,12.07,45.09,5.07,93.83-19.19,133.71l-33.92,55.74c-13.33,21.91-17.8,47.77-12.59,72.86h0Z"/>
    <g>
      <path class="cls-3" d="M386.41,434.24c-5.61,8.79-17.71,14.24-31.6,14.24s-25.98-5.46-31.6-14.23c-2.23-3.48-1.22-8.11,2.27-10.34,3.49-2.24,8.11-1.21,10.34,2.27,2.27,3.53,9.17,7.33,18.99,7.33s16.72-3.81,18.97-7.33c2.22-3.5,6.87-4.52,10.34-2.28,3.5,2.23,4.52,6.86,2.3,10.35h0Z"/>
      <path class="cls-5" d="M354.81,453.71c-15.63,0-29.43-6.39-36.01-16.64-1.83-2.85-2.44-6.25-1.72-9.57.73-3.33,2.71-6.17,5.58-8,2.84-1.83,6.23-2.43,9.54-1.72,3.33.73,6.18,2.71,8.02,5.58,1.03,1.6,5.95,4.92,14.58,4.92s13.53-3.31,14.55-4.9c1.83-2.87,4.67-4.87,8-5.59,3.31-.75,6.73-.13,9.59,1.72,2.84,1.8,4.83,4.64,5.56,7.96.73,3.32.14,6.72-1.69,9.59h0c-6.56,10.27-20.35,16.66-36.01,16.66ZM329.49,427.96c-.35,0-.77.08-1.19.34-.7.45-.92,1.09-1,1.43-.08.33-.13,1.01.3,1.67,4.67,7.31,15.1,11.83,27.2,11.83s22.52-4.52,27.19-11.8h0c.57-.89.21-2.54-.69-3.12-.7-.45-1.36-.38-1.71-.32-.34.08-.98.29-1.41.98-3.1,4.87-11.53,9.77-23.39,9.77s-20.27-4.89-23.39-9.73c-.45-.7-1.09-.93-1.44-1.01-.14-.04-.31-.05-.49-.05Z"/>
    </g>
  </g>
</svg>