<?xml version="1.0" encoding="UTF-8"?>
<svg id="Laag_1" data-name="Laag 1" xmlns="http://www.w3.org/2000/svg" xmlns:xlink="http://www.w3.org/1999/xlink" viewBox="0 0 135.99 220.94">
  <defs>
    <style>
      .cls-1 {
        fill: none;
      }

      .cls-2 {
        fill: #21b501;
      }

      .cls-3 {
        fill: #dbbb00;
      }

      .cls-4 {
        fill: #233260;
      }

      .cls-5 {
        clip-path: url(#clippath);
      }
    </style>
    <clipPath id="clippath">
      <path class="cls-1" d="M67.61,8.61c-32.58,0-58.98,26.41-58.98,58.98v144.38h117.97V67.59c0-32.58-26.41-58.98-58.98-58.98Z"/>
    </clipPath>
  </defs>
  <path class="cls-3" d="M135.99,220.94H0V65.64C0,48.08,7.09,31.58,19.97,19.18,32.8,6.81,49.86,0,68,0s35.19,6.81,48.03,19.18c12.87,12.4,19.97,28.9,19.97,46.46v155.3ZM7.41,213.53h121.17V65.64c0-32.11-27.18-58.23-60.59-58.23S7.41,33.53,7.41,65.64v147.89Z"/>
  <path class="cls-4" d="M67.61,3.65C32.1,3.65,3.32,31.38,3.32,65.58v151.6h128.58V65.58c0-34.2-28.78-61.93-64.29-61.93Z"/>
  <g class="cls-5">
    <path class="cls-2" d="M67.61,8.61c-32.58,0-58.98,26.41-58.98,58.98v144.38h117.97V67.59c0-32.58-26.41-58.98-58.98-58.98Z"/>
    <path class="cls-3" d="M130.3,186.72l-125.38-.25v-118.88c0-16.74,6.52-32.49,18.36-44.33,11.84-11.84,27.58-18.36,44.33-18.36s32.49,6.52,44.33,18.36c11.84,11.84,18.36,27.58,18.36,44.33v119.13ZM12.33,179.08l110.56.22v-111.7c0-30.48-24.8-55.28-55.28-55.28S12.33,37.11,12.33,67.59v111.48Z"/>
    <path class="cls-4" d="M132.53,138.09l-37-36.91c-7.84,6.52-17.68,10.09-27.92,10.09s-20.09-3.57-27.93-10.09L5.69,135.09l-5.27-5.28,33.96-33.87c-5.91-6.93-9.52-15.56-10.29-24.62H5.52v-7.46h18.57c.78-9.21,4.48-17.94,10.55-24.92l-17.35-17.35,5.27-5.27,17.43,17.43c6.79-5.55,15.16-8.94,23.89-9.68V-1.19h7.46v25.26c8.97.77,17.52,4.31,24.41,10.11l17.86-17.86,5.27,5.27-17.86,17.86c5.8,6.89,9.35,15.44,10.11,24.41h19.88v7.46h-19.88c-.77,9.07-4.38,17.69-10.3,24.63l36.96,36.87-5.27,5.28ZM95.68,96.11l36.84,36.75.03-.03-36.84-36.75,1.21-1.31c6.43-6.93,10.2-15.95,10.61-25.38l.08-1.77h19.68v-.05h-19.68l-.08-1.77c-.41-9.33-4.12-18.27-10.43-25.18l-1.2-1.31,17.72-17.72-.03-.03-17.72,17.72-1.31-1.2c-6.9-6.31-15.84-10.02-25.18-10.43l-1.77-.08V2.51h-.05v25.06l-1.77.08c-9.1.4-17.87,3.95-24.7,10l-1.31,1.16-17.25-17.25-.03.03,17.25,17.25-1.24,1.31c-6.58,6.97-10.44,16.08-10.86,25.65l-.08,1.77H9.22v.05h18.37l.08,1.77c.42,9.43,4.18,18.44,10.61,25.37l1.21,1.31L5.66,129.82l.03.03,33.84-33.75,1.3,1.18c7.35,6.64,16.86,10.29,26.77,10.29s19.42-3.65,26.77-10.29l1.31-1.18Z"/>
    <rect class="cls-3" x="65.73" y=".66" width="3.75" height="66.93"/>
    <g>
      <rect class="cls-3" x="43.01" y="10.46" width="3.75" height="66.93" transform="translate(-17.91 44.61) rotate(-45)"/>
      <rect class="cls-3" x="57.81" y="42.05" width="66.93" height="3.75" transform="translate(-4.33 77.4) rotate(-45)"/>
    </g>
    <g>
      <rect class="cls-3" x="98.62" y="53.75" width="3.75" height="94.23" transform="translate(-41.89 100.77) rotate(-45.07)"/>
      <rect class="cls-3" x="-8.77" y="97.49" width="89.99" height="3.75" transform="translate(-59.6 54.6) rotate(-44.93)"/>
    </g>
    <rect class="cls-3" x="7.37" y="65.71" width="121.79" height="3.75"/>
    <path class="cls-3" d="M109.44,67.59c0,23.1-18.73,41.83-41.83,41.83s-41.83-18.73-41.83-41.83,18.73-41.83,41.83-41.83,41.83,18.73,41.83,41.83Z"/>
  </g>
  <rect class="cls-4" x="3.32" y="182.92" width="128.58" height="34.26"/>
  <g>
    <path class="cls-2" d="M32.49,188.19v1.82h-.77l-1.96,7.31h-2.48l-1.51-5.89-1.52,5.89h-2.48l-1.96-7.31h-.75v-1.82h4.02v1.82h-1.12l1.13,4.55,1.68-6.37h2.03l1.66,6.37,1.13-4.55h-1.1v-1.82h4.02Z"/>
    <path class="cls-2" d="M36.17,195.47h.91v1.82h-4.03v-1.82h.91v-5.46h-.91v-1.82h4.03v1.82h-.91v5.46Z"/>
    <path class="cls-2" d="M48.19,188.19v1.82h-.91v7.28h-2.5l-3.8-6.01v4.19h1.07v1.82h-4.19v-1.82h.91v-5.46h-.91v-1.82h3.42l3.78,5.97v-4.15h-1.08v-1.82h4.2Z"/>
    <path class="cls-2" d="M56.82,188.19v3.21h-1.81v-1.39h-3.06v1.95h1.11v-.61h1.43v2.78h-1.43v-.61h-1.11v1.95h3.06v-1.39h1.81v3.21h-7.98v-1.82h.91v-5.46h-.91v-1.82h7.98Z"/>
    <path class="cls-2" d="M70.17,190.01h-.91v5.46h.91v1.82h-4.07v-1.82h1v-4.28l-2.21,6.1h-2.07l-2.22-6.11v4.29h1v1.82h-4.07v-1.82h.91v-5.46h-.91v-1.82h3.95l2.37,6.45,2.38-6.45h3.94v1.82Z"/>
    <path class="cls-2" d="M79.62,195.47h.73v1.82h-4.08v-1.82h1.09l-.23-.7h-3.16l-.25.7h1.1v1.82h-4.09v-1.82h.73l2.7-7.32h2.76l2.7,7.32ZM74.51,193.15h2.07l-1.04-3.06-1.03,3.06Z"/>
    <path class="cls-2" d="M89.49,190.01l-2.5,2.41,2.6,3.05h.65v1.82h-4.45v-1.82h1.13l-1.69-2-1.21,1.08v.92h.83v1.82h-3.95v-1.82h.91v-5.46h-.91v-1.82h3.95v1.82h-.83v2.41l2.57-2.41h-.79v-1.82h4.43v1.82h-.75Z"/>
    <path class="cls-2" d="M98.81,188.19v3.21h-1.81v-1.39h-3.05v1.95h1.11v-.61h1.43v2.78h-1.43v-.61h-1.11v1.95h3.05v-1.39h1.81v3.21h-7.98v-1.82h.91v-5.46h-.91v-1.82h7.98Z"/>
    <path class="cls-2" d="M107.5,195.62c.16,0,.33-.03.53-.08v1.75c-.38.09-.75.13-1.11.13-1.14,0-1.99-.56-2.53-1.68l-.75-1.57h-1.01v1.29h.84v1.82h-3.95v-1.82h.9v-5.46h-.9v-1.82h4.32c1.21,0,2.14.27,2.81.8s1.01,1.27,1.01,2.22c0,1.3-.61,2.18-1.83,2.65l.44.91c.27.57.68.86,1.23.86ZM102.63,190.01v2.48h1.25c.49,0,.86-.11,1.12-.34.26-.23.4-.54.4-.94s-.13-.68-.39-.89c-.26-.21-.64-.32-1.13-.32h-1.25Z"/>
    <path class="cls-2" d="M110.91,190.79c0,.19.07.35.2.47s.32.23.57.3c.25.07.5.13.76.18.26.04.57.1.95.16s.69.12.94.19c1.49.34,2.24,1.17,2.24,2.5,0,.88-.31,1.57-.94,2.08s-1.5.77-2.63.77-2-.35-2.56-1.04v.9h-1.79v-3.22h1.87c.23,1.03.94,1.55,2.16,1.55.53,0,.94-.08,1.25-.25.3-.17.46-.41.46-.72,0-.22-.1-.41-.31-.55s-.48-.24-.81-.3-.7-.12-1.1-.17c-.4-.05-.81-.13-1.21-.24-.4-.11-.77-.25-1.1-.43-.33-.18-.6-.45-.81-.81s-.31-.8-.31-1.32c0-.88.3-1.57.91-2.06s1.44-.73,2.51-.73c1.14,0,2,.31,2.56.94v-.78h1.79v3.21h-1.91c-.1-.53-.32-.92-.65-1.17-.33-.25-.8-.38-1.42-.38-1.07,0-1.6.31-1.6.94Z"/>
    <path class="cls-2" d="M45.21,202.81c1.56,0,2.77.39,3.63,1.17.86.78,1.29,1.87,1.29,3.28,0,1.47-.43,2.62-1.29,3.43s-2.07,1.22-3.63,1.22h-4.21v-1.82h.91v-5.46h-.91v-1.82h4.21ZM45.21,210.09c.82,0,1.47-.25,1.93-.77.46-.51.7-1.2.7-2.07,0-.81-.23-1.44-.7-1.92-.46-.47-1.11-.71-1.93-.71h-1.09v5.46h1.09Z"/>
    <path class="cls-2" d="M53.8,210.09h.91v1.82h-4.03v-1.82h.91v-5.46h-.91v-1.82h4.03v1.82h-.91v5.46Z"/>
    <path class="cls-2" d="M65.81,202.81v1.82h-.91v7.28h-2.5l-3.8-6.01v4.19h1.07v1.82h-4.19v-1.82h.91v-5.46h-.91v-1.82h3.42l3.78,5.97v-4.15h-1.08v-1.82h4.2Z"/>
    <path class="cls-2" d="M76.78,202.81v1.82h-.91v7.28h-2.5l-3.8-6.01v4.19h1.07v1.82h-4.19v-1.82h.91v-5.46h-.91v-1.82h3.42l3.78,5.97v-4.15h-1.08v-1.82h4.2Z"/>
    <path class="cls-2" d="M85.41,202.81v3.21h-1.81v-1.39h-3.06v1.95h1.11v-.61h1.43v2.78h-1.43v-.61h-1.11v1.95h3.06v-1.39h1.81v3.21h-7.98v-1.82h.91v-5.46h-.91v-1.82h7.98Z"/>
    <path class="cls-2" d="M94.11,210.25c.16,0,.33-.03.53-.08v1.75c-.38.09-.75.13-1.1.13-1.14,0-1.99-.56-2.54-1.68l-.75-1.57h-1.01v1.29h.84v1.82h-3.95v-1.82h.9v-5.46h-.9v-1.82h4.32c1.2,0,2.14.27,2.81.8.67.53,1.01,1.27,1.01,2.22,0,1.3-.61,2.18-1.83,2.65l.44.91c.27.57.68.86,1.24.86ZM89.23,204.63v2.48h1.25c.49,0,.86-.11,1.12-.34s.4-.54.4-.94-.13-.68-.39-.89c-.26-.21-.64-.32-1.13-.32h-1.25Z"/>
  </g>
  <path class="cls-2" d="M67.1,101.17c.22,2.92.34,5.84.36,8.76-.02-2.92-.15-5.85-.36-8.76Z"/>
  <path class="cls-4" d="M67.39,115.62c-.17,4.74-.6,9.46-1.3,14.16.7-4.7,1.13-9.42,1.3-14.16Z"/>
  <path class="cls-4" d="M67.39,115.62c.07-1.89.1-3.79.08-5.69.01,1.9-.01,3.79-.08,5.69Z"/>
  <path class="cls-4" d="M101.42,127.53c-.13-1.71-.29-3.42-.49-5.13-.03-.22-.05-.44-.08-.66-.21-1.77-.45-3.53-.73-5.29-.24-1.5-.51-3.04-.82-4.59-.14-.7-.29-1.41-.45-2.12-.06-.28-.11-.56-.18-.84-.19-.86-.4-1.71-.61-2.57-.37-1.53-.76-3.05-1.18-4.58-.12-.43-.23-.86-.35-1.28-.44-1.56-.89-3.13-1.39-4.69-.01-.06-.05-.11-.08-.16-.14-.26-.43-.44-.78-.44h-52.42c-.34,0-.77.26-.86.6-1.03,3.43-2.06,7.04-2.83,10.55-.29,1.29-.57,2.57-.83,3.85-.26,1.28-.51,2.55-.73,3.8-.15.83-.29,1.66-.42,2.47-.93,5.63-1.49,11.31-1.68,17-.06,1.9-.09,3.79-.07,5.69,0,.95.03,1.9.06,2.84.03,1.01.08,2.01.13,3.02.15,2.68.37,5.35.68,8.01.12,1.04.25,2.08.4,3.12.13.94.27,1.88.42,2.81.15.94.31,1.87.48,2.8.11.63.25,1.26.37,1.88.37,1.88.78,3.77,1.27,5.68.21.85.44,1.7.68,2.56.6,2.23,1.29,4.46,2.06,6.69.01.06.05.11.07.16.05.1.12.19.21.26,0,0,0,0,0,0,.14.11.31.17.48.17h52.51c.34,0,.69-.26.86-.6.19-.58.38-1.15.55-1.72s.34-1.13.5-1.69c.32-1.12.62-2.21.92-3.28.71-2.51,1.32-5.07,1.83-7.6.17-.84.33-1.69.48-2.52.18-.93.35-1.87.51-2.8.16-.94.31-1.87.45-2.81.7-4.7,1.13-9.42,1.3-14.16.07-1.89.1-3.79.08-5.69-.02-2.92-.15-5.85-.36-8.76Z"/>
  <g>
    <path class="cls-4" d="M101.33,127.53c-.13-1.71-.29-3.42-.49-5.13-.03-.22-.05-.44-.08-.66-.21-1.77-.45-3.53-.73-5.29-.24-1.5-.51-3.04-.82-4.59-.2-.98-.4-1.97-.62-2.96-.19-.86-.4-1.71-.61-2.57-.37-1.53-.76-3.05-1.18-4.58-.12-.43-.23-.86-.35-1.28-.44-1.56-.89-3.13-1.39-4.69-.01-.06-.05-.11-.08-.16-.14-.26-.43-.44-.78-.44h-52.42c-.34,0-.77.26-.86.6-1.03,3.43-2.06,7.04-2.83,10.55-.29,1.29-.57,2.57-.83,3.85-.26,1.28-.51,2.55-.73,3.8-.15.83-.29,1.66-.42,2.47-.93,5.63-1.49,11.31-1.68,17-.06,1.9-.09,3.79-.07,5.69,0,.95.03,1.9.06,2.84.03,1.01.08,2.01.13,3.02.15,2.68.37,5.35.68,8.01.12,1.04.25,2.08.4,3.12.13.94.27,1.88.42,2.81.15.94.31,1.87.48,2.8.11.63.25,1.26.37,1.88.37,1.88.78,3.77,1.27,5.68.21.85.44,1.7.68,2.56.6,2.23,1.29,4.46,2.06,6.69.01.06.05.11.07.16.05.1.12.19.21.26,0,0,0,0,0,0,.14.11.31.17.48.17h52.51c.34,0,.69-.26.86-.6.19-.58.38-1.15.55-1.72s.34-1.13.5-1.69c.32-1.12.62-2.21.92-3.28.71-2.51,1.32-5.07,1.83-7.6.17-.84.33-1.69.48-2.52.18-.93.35-1.87.51-2.8.16-.94.31-1.87.45-2.81.7-4.7,1.13-9.42,1.3-14.16.07-1.89.1-3.79.08-5.69-.02-2.92-.15-5.85-.36-8.76ZM96.51,107.36c.69,2.83,1.2,5.66,1.72,8.41h-60.23c.43-2.75.94-5.58,1.63-8.41h56.88ZM76.95,117.49h10.55c2.23,14.41,1.97,29-.69,43.33h-10.3c1.72-14.41,1.89-28.91.43-43.33ZM74.89,160.82h-15.19c-1.72-14.41-1.8-28.91-.26-43.33h15.87c1.46,14.41,1.29,28.91-.43,43.33ZM57.99,160.82h-8.15c-2.57-14.33-2.75-29-.43-43.33h8.32c-1.54,14.41-1.37,28.91.26,43.33ZM82.7,96.9c.94,2.92,1.72,5.92,2.49,8.84h-9.78c-.43-3-1.03-5.92-1.63-8.84h8.92ZM73.69,105.73h-12.78c.51-2.92,1.03-5.83,1.63-8.84h9.52c.6,2.92,1.12,5.92,1.63,8.84ZM60.82,96.9c-.6,3.09-1.12,6.01-1.54,8.84h-7.55c.69-2.92,1.54-5.92,2.4-8.84h6.69ZM52.41,96.9c-.86,2.92-1.72,5.92-2.4,8.84h-9.95c.69-3,1.46-5.92,2.4-8.84h9.95ZM96.17,105.73h-9.27c-.69-2.92-1.54-5.92-2.49-8.84h9.27c.94,2.92,1.72,5.83,2.49,8.84ZM38.17,160.82c-2.57-14.33-2.75-29-.51-43.33h9.95c-2.23,14.33-2.14,29,.43,43.33h-9.87ZM40.83,172.57h9.95c.43,1.72.94,3.35,1.54,5.06h-9.95c-.51-1.72-1.03-3.35-1.54-5.06ZM52.59,172.57h7.21c.34,1.72.69,3.35,1.03,5.06h-6.69c-.6-1.72-1.12-3.35-1.54-5.06ZM61.51,172.57h11.58c-.34,1.72-.69,3.35-.94,5.06h-9.61c-.34-1.72-.69-3.35-1.03-5.06ZM73.78,177.63c.34-1.72.69-3.35.94-5.06h9.44c-.43,1.72-.94,3.35-1.46,5.06h-8.92ZM84.5,177.63c.51-1.72,1.03-3.35,1.46-5.06h9.18c-.43,1.72-.94,3.35-1.46,5.06h-9.18ZM95.66,170.94h-55.25c-.77-2.83-1.37-5.66-1.97-8.41h59.12c-.51,2.75-1.2,5.58-1.89,8.41ZM97.89,160.82h-9.27c2.57-14.33,2.83-28.91.6-43.33h9.27c2.23,14.33,1.97,29-.6,43.33Z"/>
    <path class="cls-2" d="M86.91,105.73h9.27c-.77-3-1.54-5.92-2.49-8.84h-9.27c.94,2.92,1.8,5.92,2.49,8.84M75.41,105.73h9.78c-.77-2.92-1.54-5.92-2.49-8.84h-8.92c.6,2.92,1.2,5.83,1.63,8.84M60.91,105.73h12.78c-.51-2.92-1.03-5.92-1.63-8.84h-9.52c-.6,3-1.12,5.92-1.63,8.84M51.73,105.73h7.55c.43-2.83.94-5.75,1.54-8.84h-6.69c-.86,2.92-1.72,5.92-2.4,8.84M40.06,105.73h9.95c.69-2.92,1.54-5.92,2.4-8.84h-9.95c-.94,2.92-1.72,5.83-2.4,8.84M38,115.77h60.23c-.51-2.75-1.03-5.58-1.72-8.41h-56.88c-.69,2.83-1.2,5.66-1.63,8.41M88.62,160.82h9.27c2.57-14.33,2.83-29,.6-43.33h-9.27c2.23,14.41,1.97,29-.6,43.33M76.52,160.82h10.3c2.66-14.33,2.92-28.91.69-43.33h-10.55c1.46,14.41,1.29,28.91-.43,43.33M59.71,160.82h15.19c1.72-14.41,1.89-28.91.43-43.33h-15.87c-1.54,14.41-1.46,28.91.26,43.33M49.84,160.82h8.15c-1.63-14.41-1.8-28.91-.26-43.33h-8.32c-2.32,14.33-2.14,29,.43,43.33M38.17,160.82h9.87c-2.57-14.33-2.66-29-.43-43.33h-9.95c-2.23,14.33-2.06,29,.51,43.33M40.4,170.94h55.25c.69-2.83,1.37-5.66,1.89-8.41h-59.12c.6,2.75,1.2,5.58,1.97,8.41M84.5,177.63h9.18c.51-1.72,1.03-3.35,1.46-5.06h-9.18c-.43,1.72-.94,3.35-1.46,5.06M73.78,177.63h8.92c.51-1.72,1.03-3.35,1.46-5.06h-9.44c-.26,1.72-.6,3.35-.94,5.06M62.54,177.63h9.61c.26-1.72.6-3.35.94-5.06h-11.58c.34,1.72.69,3.35,1.03,5.06M54.13,177.63h6.69c-.34-1.72-.69-3.35-1.03-5.06h-7.21c.43,1.72.94,3.35,1.54,5.06M42.38,177.63h9.95c-.6-1.72-1.12-3.35-1.54-5.06h-9.95c.51,1.72,1.03,3.35,1.54,5.06M85.84,97.94h7.08c.72,2.28,1.33,4.56,1.91,6.76h-7.1c-.53-2.16-1.16-4.43-1.89-6.76h0ZM75.05,97.94h6.89c.7,2.23,1.31,4.52,1.9,6.76h-7.53c-.35-2.29-.8-4.55-1.25-6.76h0ZM63.39,97.94h7.82c.45,2.24.85,4.53,1.24,6.76h-10.31c.39-2.21.8-4.47,1.24-6.76h0ZM54.91,97.94h4.65c-.46,2.41-.84,4.64-1.18,6.76h-5.34c.56-2.26,1.22-4.56,1.86-6.76h0ZM43.22,97.94h7.8c-.64,2.21-1.28,4.5-1.83,6.76h-7.82c.58-2.42,1.19-4.65,1.85-6.76h0ZM40.45,108.4h55.24c.49,2.12.9,4.25,1.29,6.33h-57.76c.39-2.35.79-4.4,1.23-6.33h0ZM90.43,118.53h7.16c2.01,13.54,1.82,27.41-.58,41.25h-7.16c2.35-13.8,2.54-27.67.57-41.25h0ZM78.1,118.53h8.51c2.02,13.66,1.79,27.53-.66,41.25h-8.26c1.56-13.81,1.7-27.67.41-41.25h0ZM60.39,118.53h13.99c1.31,13.57,1.17,27.44-.41,41.25h-13.33c-1.56-13.69-1.65-27.56-.25-41.25h0ZM50.3,118.53h6.28c-1.34,13.35-1.26,27.21.25,41.25h-6.12c-2.38-13.76-2.52-27.63-.41-41.25h0ZM38.55,118.53h7.85c-2.03,13.85-1.9,27.72.4,41.25h-7.76c-2.36-13.68-2.53-27.55-.49-41.25h0ZM39.72,163.57h56.56c-.42,2.08-.93,4.23-1.44,6.33h-53.64c-.56-2.12-1.03-4.25-1.48-6.33h0ZM86.77,173.61h7.02c-.25.91-.53,1.82-.81,2.76l-.07.22h-7.01c.3-1.01.59-1.98.86-2.98h0ZM75.61,173.61h7.2c-.25.91-.53,1.82-.81,2.76l-.07.22h-6.88c.2-1,.39-1.98.56-2.98h0ZM62.78,173.61h9.04c-.2,1-.39,1.98-.56,2.98h-7.87c-.12-.57-.23-1.14-.35-1.7-.09-.42-.17-.85-.26-1.28h0ZM53.94,173.61h5c.12.57.23,1.14.35,1.7.09.43.17.85.26,1.28h-4.68c-.37-1.08-.67-2.05-.93-2.98h0ZM42.23,173.61h7.75c.25.95.55,1.92.9,2.98h-7.73c-.18-.6-.37-1.2-.55-1.8-.12-.39-.24-.79-.36-1.19h0Z"/>
  </g>
  <g>
    <path class="cls-3" d="M68.04,140.57c1.89,0,3.35-1.54,3.35-3.35s-1.46-3.35-3.35-3.35-3.35,1.54-3.35,3.35,1.54,3.35,3.35,3.35ZM68.04,135.51c.94,0,1.72.77,1.72,1.72s-.77,1.72-1.72,1.72-1.72-.77-1.72-1.72.77-1.72,1.72-1.72Z"/>
    <g>
      <circle class="cls-3" cx="44.41" cy="166.69" r="1.03"/>
      <circle class="cls-3" cx="56.26" cy="166.69" r="1.03"/>
      <circle class="cls-3" cx="68.12" cy="166.69" r="1.03"/>
      <circle class="cls-3" cx="79.97" cy="166.69" r="1.03"/>
      <circle class="cls-3" cx="91.82" cy="166.69" r="1.03"/>
    </g>
    <g>
      <circle class="cls-3" cx="44.41" cy="111.71" r="1.03"/>
      <circle class="cls-3" cx="56.26" cy="111.71" r="1.03"/>
      <circle class="cls-3" cx="68.12" cy="111.71" r="1.03"/>
      <circle class="cls-3" cx="79.97" cy="111.71" r="1.03"/>
      <circle class="cls-3" cx="91.82" cy="111.71" r="1.03"/>
    </g>
  </g>
  <g>
    <g>
      <path class="cls-2" d="M54.89,94.88h2.02c-.36-.45-.69-.87-1.01-1.28-.34.43-.66.84-1.01,1.28Z"/>
      <path class="cls-2" d="M56.84,91.34c.27,1.91,2.1,3.54,4.09,3.55,5.04.03,10.08.02,15.11,0,.41,0,.97-.21,1.21-.52.73-.93,1.35-1.96,2.05-3.02h-22.46Z"/>
      <path class="cls-2" d="M51.76,91.35c.56.88,1.09,1.71,1.65,2.59.83-.71,1.37-1.52,1.56-2.59h-3.2Z"/>
    </g>
    <g id="oeYBfr.tif">
      <g>
        <path class="cls-4" d="M50.49,96.59c-.2-.18-.47-.33-.58-.56-.27-.53.14-1.06.78-1.12.4-.04.8-.1,1.29-.16-.73-1.15-1.39-2.21-2.09-3.24-.09-.13-.37-.18-.56-.18-2.62-.01-5.24,0-7.86,0-.16,0-.33,0-.49-.02-.49-.07-.8-.42-.77-.87.03-.43.36-.73.82-.76.15,0,.3,0,.44,0,4.32,0,8.63,0,12.95,0h.61v-7.05c-.82-.21-1.63-.37-2.4-.63-4-1.39-6.66-5.27-6.42-9.49.19-3.28.5-6.56.76-9.84.07-.87.13-1.74.22-2.61.07-.74.32-.96,1.09-.96,2.42,0,4.84,0,7.26,0,2.62,0,5.24,0,7.86,0,.9,0,1.14.24,1.21,1.12.31,3.95.59,7.91.95,11.86.46,5.04-3.31,9.79-8.33,10.42-.16.02-.32.05-.5.08v7.09h9.7c0-.2,0-.39,0-.58,0-2.6,0-5.2,0-7.8,0-.97.23-1.19,1.19-1.19.46,0,.92,0,1.44,0,0-.63.01-1.22-.01-1.8,0-.1-.14-.24-.25-.3-1.27-.7-1.8-1.82-1.31-3.19.47-1.31,1.06-2.58,1.65-3.84.31-.66,1.15-.68,1.45-.04.62,1.36,1.24,2.72,1.73,4.13.4,1.14-.17,2.31-1.25,2.86-.31.16-.39.33-.38.65.02.49,0,.98,0,1.53.56,0,1.07,0,1.58,0,.78,0,1.04.27,1.04,1.04,0,2.65,0,5.3,0,7.95,0,.18,0,.36,0,.58h1.87c0-.2,0-.39,0-.58,0-5.23,0-10.47,0-15.7,0-.92.24-1.15,1.18-1.15.75,0,1.51,0,2.31,0,0-.61.02-1.16-.01-1.72,0-.11-.15-.27-.27-.32-1.93-.82-2.81-2.49-2.07-4.43.69-1.82,1.6-3.56,2.47-5.31.31-.63,1.12-.63,1.43,0,.86,1.74,1.76,3.46,2.45,5.27.77,2.01-.13,3.72-2.15,4.51-.06.02-.12.05-.17.07v1.93c.82,0,1.62,0,2.43,0,.76,0,1.03.28,1.03,1.05,0,5.27,0,10.54,0,15.8v.63h1.18c1.58,0,3.16.01,4.74,0,.5,0,.86.15,1.08.6v.49c-.26.45-.67.57-1.16.57-1.76-.02-3.52,0-5.28,0-.17,0-.35.02-.55.03,0,1.4-.02,2.75,0,4.09.01.57-.18.95-.72,1.14h-32.62ZM63.7,74.83c.3-1.03.28-2.04.2-3.04-.22-2.77-.44-5.54-.67-8.31-.07-.91-.15-1.82-.23-2.73h-14.2c-.03.23-.06.44-.07.65-.26,3.23-.54,6.46-.77,9.69-.07,1.04-.02,2.1-.01,3.15,0,.46.22.61.71.61,4.84-.02,9.68-.01,14.52-.01.16,0,.33,0,.53,0ZM82.16,89.66v-15.78h-5.3v15.78h5.3ZM56.84,91.35c.27,1.91,2.1,3.54,4.09,3.55,5.04.03,10.08.02,15.11,0,.41,0,.97-.21,1.21-.52.73-.93,1.35-1.96,2.05-3.02h-22.46ZM48.76,76.48c.74,2.47,4.35,4.61,7.46,4.45,2.99-.16,6.39-2.38,6.79-4.45h-14.25ZM68.12,81.73v7.93h3.54v-7.93h-3.54ZM79.63,62.58c-.08,0-.15,0-.23-.01-.53,1.27-1.1,2.53-1.59,3.81-.29.78.02,1.55.67,2,.61.43,1.43.43,2.04.01.65-.45.97-1.21.68-1.99-.48-1.29-1.04-2.55-1.57-3.82ZM82.16,94.91v-3.52c-.85-.15-.87-.14-1.3.54-.42.65-.83,1.3-1.25,1.96-.21.33-.41.65-.64,1.03h3.19ZM53.41,93.95c.83-.71,1.37-1.52,1.56-2.59h-3.2c.56.88,1.09,1.71,1.65,2.59ZM69.97,73.25c-.05,0-.11,0-.16,0-.27.71-.56,1.42-.8,2.15-.06.19-.02.46.07.66.18.43.68.61,1.12.45.43-.15.71-.6.57-1.06-.23-.75-.53-1.47-.79-2.21ZM54.89,94.88h2.02c-.36-.45-.69-.87-1.01-1.28-.34.43-.66.84-1.01,1.28Z"/>
        <path class="cls-4" d="M62.07,72.25s0,.09,0,.2c-.02.46-.32.79-.75.82-.42.03-.8-.26-.85-.72-.11-1.09-.19-2.19-.28-3.28-.04-.44-.08-.88-.1-1.32-.03-.65.24-1.03.74-1.07.49-.04.83.3.89.96.13,1.42.23,2.84.35,4.41Z"/>
        <path class="cls-4" d="M61.45,64.51c.01.47-.28.84-.74.88-.47.04-.83-.25-.9-.77-.05-.39-.08-.78-.09-1.18,0-.46.31-.8.73-.83.46-.04.83.25.89.72.05.37.07.75.1,1.18Z"/>
      </g>
    </g>
    <path class="cls-2" d="M56.27,80.93c2.99-.16,6.39-2.38,6.79-4.45h-14.25c.74,2.47,4.35,4.61,7.46,4.45Z"/>
  </g>
  <g>
    <path class="cls-2" d="M42.8,44.13l.42-.47.94.84-1.86,2.08-.94-.84.42-.47-2.82-2.52-.42.47-.94-.84,1.86-2.08.94.84-.42.47,2.82,2.52Z"/>
    <path class="cls-2" d="M45.81,34.78l.8.98-.49.4,3.19,3.9-1.34,1.09-4.67-1.56,1.83,2.25.57-.47.8.98-2.25,1.83-.8-.98.49-.4-2.39-2.93-.49.4-.8-.98,1.83-1.5,4.64,1.54-1.82-2.22-.58.47-.8-.98,2.25-1.84Z"/>
    <path class="cls-2" d="M52.85,31.03l.58,1.12-.51.26.64,5.37-1.58.81-4-3.64-.5.26-.58-1.12,2.6-1.34.58,1.12-.7.36,2.62,2.47-.47-3.57-.7.36-.58-1.12,2.6-1.34Z"/>
    <path class="cls-2" d="M57.6,34.82l.6-.2.4,1.19-2.64.89-.4-1.19.6-.2-1.21-3.58-.6.2-.4-1.19,2.64-.89.4,1.19-.6.2,1.21,3.58Z"/>
    <path class="cls-2" d="M63.56,28.35l.41,2.19-1.22.23-.17-.95-.97.18.69,3.72,1.01-.19.23,1.24-3.52.65-.23-1.24,1.01-.19-.69-3.72-.97.18.18.95-1.22.23-.4-2.19,5.89-1.09Z"/>
    <path class="cls-2" d="M70.31,28.2l.04,2.22-1.25.02-.02-.96-2.12.03.02,1.35h.76s0-.44,0-.44l.99-.02.03,1.93-.99.02v-.42s-.77.01-.77.01l.02,1.35,2.12-.03-.02-.96,1.25-.02.04,2.22-5.53.09-.02-1.26h.63s-.06-3.79-.06-3.79h-.63s-.02-1.25-.02-1.25l5.53-.09Z"/>
    <path class="cls-2" d="M78.44,35.37c-.74.44-1.59.53-2.56.29-.97-.25-1.67-.74-2.11-1.47-.44-.74-.53-1.59-.29-2.56.23-.92.72-1.6,1.45-2.02.73-.42,1.58-.51,2.55-.26.97.25,1.68.73,2.12,1.45.44.72.55,1.54.31,2.47-.25.97-.74,1.68-1.48,2.11ZM76.23,34.29c.52.13.97.07,1.36-.19.4-.26.66-.67.8-1.23.13-.52.08-.98-.14-1.37-.23-.39-.6-.65-1.11-.78s-.96-.07-1.34.17c-.38.23-.64.61-.77,1.13-.14.56-.1,1.04.12,1.46.22.42.58.69,1.09.81Z"/>
    <path class="cls-2" d="M88.41,33.9l-.56,1.13-.56-.28-2.24,4.52-1.55-.77-.51-4.89-1.29,2.6.66.33-.56,1.13-2.6-1.29.56-1.13.56.28,1.68-3.39-.57-.28.56-1.13,2.12,1.05.51,4.86,1.27-2.57-.67-.33.56-1.13,2.61,1.29Z"/>
    <path class="cls-2" d="M90.38,40.17l.99.75-1.51,1.97-4.16-3.18.76-1,.5.38,2.29-3-.5-.38.76-1,2.42,1.85-.76,1-.7-.54-2.3,3,1.46,1.11.74-.97Z"/>
    <path class="cls-2" d="M96.95,43.01l-3.45.7-.58.56.7.73-.91.88-2.46-2.55.91-.88.69.72.58-.56.83-3.42-.34-.35.91-.88,1.95,2.02-.91.88-.46-.47-.47,1.83,1.85-.4-.46-.48.91-.87,1.95,2.02-.91.88-.34-.35Z"/>
  </g>
</svg>