<?xml version="1.0" encoding="UTF-8"?>
<svg id="Laag_1" data-name="Laag 1" xmlns="http://www.w3.org/2000/svg" xmlns:xlink="http://www.w3.org/1999/xlink" viewBox="0 0 135.99 220.94">
  <defs>
    <style>
      .cls-1, .cls-2, .cls-3 {
        fill: none;
      }

      .cls-4 {
        fill-rule: evenodd;
      }

      .cls-4, .cls-5 {
        fill: #21b501;
      }

      .cls-2 {
        stroke-linecap: round;
        stroke-linejoin: round;
      }

      .cls-2, .cls-6, .cls-7, .cls-3 {
        stroke: #233260;
      }

      .cls-6 {
        stroke-width: .8px;
      }

      .cls-6, .cls-7, .cls-8 {
        fill: #dbbb00;
      }

      .cls-6, .cls-7, .cls-3 {
        stroke-miterlimit: 10;
      }

      .cls-9 {
        fill: #233260;
      }

      .cls-10 {
        clip-path: url(#clippath);
      }
    </style>
    <clipPath id="clippath">
      <path class="cls-1" d="M67.61,8.61c-32.58,0-58.98,26.41-58.98,58.98v144.38h117.97V67.59c0-32.58-26.41-58.98-58.98-58.98Z"/>
    </clipPath>
  </defs>
  <path class="cls-8" d="M135.99,220.94H0V65.64C0,48.08,7.09,31.58,19.97,19.18,32.8,6.81,49.86,0,68,0s35.19,6.81,48.03,19.18c12.87,12.4,19.97,28.9,19.97,46.46v155.3ZM7.41,213.53h121.17V65.64c0-32.11-27.18-58.23-60.59-58.23S7.41,33.53,7.41,65.64v147.89Z"/>
  <path class="cls-9" d="M67.61,3.65C32.1,3.65,3.32,31.38,3.32,65.58v151.6h128.58V65.58c0-34.2-28.78-61.93-64.29-61.93Z"/>
  <g class="cls-10">
    <path class="cls-5" d="M67.61,8.61c-32.58,0-58.98,26.41-58.98,58.98v144.38h117.97V67.59c0-32.58-26.41-58.98-58.98-58.98Z"/>
    <path class="cls-8" d="M130.3,186.72l-125.38-.25v-118.88c0-16.74,6.52-32.49,18.36-44.33,11.84-11.84,27.58-18.36,44.33-18.36s32.49,6.52,44.33,18.36c11.84,11.84,18.36,27.58,18.36,44.33v119.13ZM12.33,179.08l110.56.22v-111.7c0-30.48-24.8-55.28-55.28-55.28S12.33,37.11,12.33,67.59v111.48Z"/>
    <path class="cls-9" d="M132.53,138.09l-37-36.91c-7.84,6.52-17.68,10.09-27.92,10.09s-20.09-3.57-27.93-10.09L5.69,135.09l-5.27-5.28,33.96-33.87c-5.91-6.93-9.52-15.56-10.29-24.62H5.52v-7.46h18.57c.78-9.21,4.48-17.94,10.55-24.92l-17.35-17.35,5.27-5.27,17.43,17.43c6.79-5.55,15.16-8.94,23.89-9.68V-1.19h7.46v25.26c8.97.77,17.52,4.31,24.41,10.11l17.86-17.86,5.27,5.27-17.86,17.86c5.8,6.89,9.35,15.44,10.11,24.41h19.88v7.46h-19.88c-.77,9.07-4.38,17.69-10.3,24.63l36.96,36.87-5.27,5.28ZM95.68,96.11l36.84,36.75.03-.03-36.84-36.75,1.21-1.31c6.43-6.93,10.2-15.95,10.61-25.38l.08-1.77h19.68v-.05h-19.68l-.08-1.77c-.41-9.33-4.12-18.27-10.43-25.18l-1.2-1.31,17.72-17.72-.03-.03-17.72,17.72-1.31-1.2c-6.9-6.31-15.84-10.02-25.18-10.43l-1.77-.08V2.51h-.05v25.06l-1.77.08c-9.1.4-17.87,3.95-24.7,10l-1.31,1.16-17.25-17.25-.03.03,17.25,17.25-1.24,1.31c-6.58,6.97-10.44,16.08-10.86,25.65l-.08,1.77H9.22v.05h18.37l.08,1.77c.42,9.43,4.18,18.44,10.61,25.37l1.21,1.31L5.66,129.82l.03.03,33.84-33.75,1.3,1.18c7.35,6.64,16.86,10.29,26.77,10.29s19.42-3.65,26.77-10.29l1.31-1.18Z"/>
    <rect class="cls-8" x="65.73" y=".66" width="3.75" height="66.93"/>
    <g>
      <rect class="cls-8" x="43.01" y="10.46" width="3.75" height="66.93" transform="translate(-17.91 44.61) rotate(-45)"/>
      <rect class="cls-8" x="57.81" y="42.05" width="66.93" height="3.75" transform="translate(-4.33 77.4) rotate(-45)"/>
    </g>
    <g>
      <rect class="cls-8" x="98.62" y="53.75" width="3.75" height="94.23" transform="translate(-41.89 100.77) rotate(-45.07)"/>
      <rect class="cls-8" x="-8.77" y="97.49" width="89.99" height="3.75" transform="translate(-59.6 54.6) rotate(-44.93)"/>
    </g>
    <rect class="cls-8" x="7.37" y="65.71" width="121.79" height="3.75"/>
    <path class="cls-8" d="M109.44,67.59c0,23.1-18.73,41.83-41.83,41.83s-41.83-18.73-41.83-41.83,18.73-41.83,41.83-41.83,41.83,18.73,41.83,41.83Z"/>
  </g>
  <rect class="cls-9" x="3.32" y="182.92" width="128.58" height="34.26"/>
  <g>
    <path class="cls-5" d="M30.46,188.19v1.82h-.77l-1.96,7.31h-2.48l-1.51-5.89-1.52,5.89h-2.48l-1.96-7.31h-.75v-1.82h4.02v1.82h-1.12l1.13,4.55,1.68-6.37h2.03l1.66,6.37,1.13-4.55h-1.1v-1.82h4.02Z"/>
    <path class="cls-5" d="M38.85,196.13c-.88.88-2.04,1.31-3.48,1.31s-2.6-.44-3.47-1.31c-.88-.88-1.31-2.04-1.31-3.48s.44-2.49,1.31-3.34c.88-.85,2.03-1.27,3.47-1.27s2.61.42,3.48,1.27c.88.85,1.31,1.96,1.31,3.34,0,1.45-.44,2.61-1.32,3.48ZM35.37,195.4c.77,0,1.38-.25,1.83-.75.46-.51.69-1.18.69-2,0-.78-.23-1.4-.69-1.87-.46-.47-1.07-.7-1.83-.7s-1.37.24-1.82.71c-.45.46-.68,1.08-.68,1.86,0,.83.23,1.5.68,2,.45.5,1.06.75,1.81.75Z"/>
    <path class="cls-5" d="M48.7,195.62c.16,0,.33-.03.53-.08v1.75c-.38.09-.75.13-1.1.13-1.14,0-1.99-.56-2.53-1.68l-.75-1.57h-1.01v1.29h.84v1.82h-3.95v-1.82h.9v-5.46h-.9v-1.82h4.32c1.2,0,2.14.27,2.81.8.67.53,1.01,1.27,1.01,2.22,0,1.3-.61,2.18-1.83,2.65l.44.91c.27.57.68.86,1.23.86ZM43.82,190.01v2.48h1.25c.49,0,.86-.11,1.12-.34.26-.23.4-.54.4-.94s-.13-.68-.39-.89c-.26-.21-.64-.32-1.13-.32h-1.25Z"/>
    <path class="cls-5" d="M58.48,190.01l-2.5,2.41,2.6,3.05h.65v1.82h-4.45v-1.82h1.13l-1.69-2-1.21,1.08v.92h.83v1.82h-3.95v-1.82h.91v-5.46h-.91v-1.82h3.95v1.82h-.83v2.41l2.57-2.41h-.79v-1.82h4.43v1.82h-.75Z"/>
    <path class="cls-5" d="M62.09,190.79c0,.19.06.35.19.47.13.13.32.23.57.3.25.07.5.13.76.18.26.04.57.1.95.16s.69.12.94.19c1.49.34,2.24,1.17,2.24,2.5,0,.88-.31,1.57-.94,2.08s-1.5.77-2.63.77-2-.35-2.56-1.04v.9h-1.79v-3.22h1.87c.23,1.03.94,1.55,2.16,1.55.53,0,.94-.08,1.25-.25.3-.17.46-.41.46-.72,0-.22-.1-.41-.31-.55s-.48-.24-.81-.3c-.33-.06-.7-.12-1.1-.17-.4-.05-.81-.13-1.21-.24-.4-.11-.77-.25-1.1-.43-.33-.18-.6-.45-.81-.81s-.31-.8-.31-1.32c0-.88.3-1.57.91-2.06s1.44-.73,2.51-.73c1.14,0,2,.31,2.56.94v-.78h1.79v3.21h-1.91c-.1-.53-.32-.92-.65-1.17-.33-.25-.8-.38-1.42-.38-1.07,0-1.6.31-1.6.94Z"/>
    <path class="cls-5" d="M78.14,190.01h-.91v5.46h.91v1.82h-4.26v-1.82h1.14v-1.91h-3.5v1.91h1.14v1.82h-4.26v-1.82h.91v-5.46h-.91v-1.82h4.26v1.82h-1.14v1.86h3.5v-1.86h-1.14v-1.82h4.26v1.82Z"/>
    <path class="cls-5" d="M86.95,196.13c-.88.88-2.04,1.31-3.48,1.31s-2.6-.44-3.47-1.31c-.88-.88-1.31-2.04-1.31-3.48s.44-2.49,1.31-3.34c.88-.85,2.03-1.27,3.47-1.27s2.61.42,3.48,1.27c.88.85,1.31,1.96,1.31,3.34,0,1.45-.44,2.61-1.32,3.48ZM83.47,195.4c.77,0,1.38-.25,1.83-.75.46-.51.69-1.18.69-2,0-.78-.23-1.4-.69-1.87-.46-.47-1.07-.7-1.83-.7s-1.37.24-1.82.71c-.45.46-.68,1.08-.68,1.86,0,.83.23,1.5.68,2,.46.5,1.06.75,1.81.75Z"/>
    <path class="cls-5" d="M93.05,194.43h-1.12v1.04h1.35v1.82h-4.47v-1.82h.91v-5.46h-.91v-1.82h4.24c1.13,0,2.03.28,2.71.85.68.57,1.02,1.32,1.02,2.25s-.34,1.72-1.01,2.29c-.69.56-1.59.84-2.72.84ZM93.05,190.01h-1.12v2.67h1.12c.44,0,.8-.12,1.07-.38.27-.25.4-.58.4-1,0-.39-.13-.7-.4-.94-.27-.23-.62-.35-1.07-.35Z"/>
    <path class="cls-5" d="M99.79,190.79c0,.19.06.35.19.47.13.13.32.23.57.3.25.07.5.13.76.18.26.04.57.1.95.16s.69.12.94.19c1.49.34,2.24,1.17,2.24,2.5,0,.88-.31,1.57-.94,2.08s-1.5.77-2.63.77-2-.35-2.56-1.04v.9h-1.79v-3.22h1.87c.23,1.03.95,1.55,2.16,1.55.53,0,.94-.08,1.25-.25s.46-.41.46-.72c0-.22-.1-.41-.31-.55s-.48-.24-.81-.3c-.33-.06-.7-.12-1.11-.17s-.81-.13-1.21-.24-.77-.25-1.11-.43c-.33-.18-.6-.45-.81-.81s-.31-.8-.31-1.32c0-.88.3-1.57.91-2.06s1.44-.73,2.51-.73c1.14,0,2,.31,2.56.94v-.78h1.79v3.21h-1.91c-.1-.53-.32-.92-.65-1.17-.33-.25-.8-.38-1.42-.38-1.07,0-1.6.31-1.6.94Z"/>
    <path class="cls-5" d="M119.31,197.29h-2.83l-.61-.52c-.69.45-1.55.68-2.56.68-1.16,0-2.07-.25-2.72-.75-.65-.5-.98-1.2-.98-2.08s.41-1.56,1.24-2.03c-.55-.6-.82-1.27-.82-2s.31-1.36.94-1.83c.63-.48,1.45-.71,2.46-.71,1.11,0,1.98.26,2.6.77.62.51.94,1.21.94,2.11v.19l-2.08.03s.01-.09.01-.16c0-.37-.13-.65-.4-.83-.27-.18-.61-.27-1.03-.27s-.73.09-.98.26c-.26.17-.38.4-.38.69,0,.25.06.47.18.64s.34.4.67.67l2.38,1.92v-1.81h2.09v1.68c0,.56-.12,1.08-.35,1.55l2.25,1.82ZM111.72,194.51c0,.32.14.58.43.79.29.2.68.3,1.17.3.37,0,.71-.06,1-.19l-2.09-1.74c-.34.17-.51.45-.51.84Z"/>
    <path class="cls-5" d="M19.94,204.63h-.91v5.46h.91v1.82h-4.07v-1.82h1v-4.28l-2.21,6.1h-2.07l-2.22-6.11v4.29h1v1.82h-4.07v-1.82h.91v-5.46h-.91v-1.82h3.95l2.37,6.45,2.38-6.45h3.94v1.82Z"/>
    <path class="cls-5" d="M29.39,210.09h.73v1.82h-4.08v-1.82h1.09l-.23-.7h-3.16l-.25.7h1.1v1.82h-4.1v-1.82h.73l2.7-7.32h2.76l2.7,7.32ZM24.28,207.78h2.07l-1.04-3.06-1.03,3.06Z"/>
    <path class="cls-5" d="M32.95,205.41c0,.19.06.35.19.47.13.13.32.23.57.3.25.07.5.13.76.18.26.04.57.1.95.16s.69.12.94.19c1.49.34,2.24,1.17,2.24,2.5,0,.88-.31,1.57-.94,2.08s-1.5.77-2.63.77-2-.35-2.56-1.04v.9h-1.79v-3.22h1.87c.23,1.03.94,1.55,2.16,1.55.53,0,.94-.08,1.25-.25.3-.17.46-.41.46-.72,0-.22-.1-.41-.31-.55s-.48-.24-.81-.3c-.33-.06-.7-.12-1.1-.17-.4-.05-.81-.13-1.21-.24-.4-.11-.77-.25-1.1-.43-.33-.18-.6-.45-.81-.81s-.31-.8-.31-1.32c0-.88.3-1.57.91-2.06s1.44-.73,2.51-.73c1.14,0,2,.31,2.56.94v-.78h1.79v3.21h-1.91c-.1-.53-.32-.92-.65-1.17-.33-.25-.8-.38-1.42-.38-1.07,0-1.6.31-1.6.94Z"/>
    <path class="cls-5" d="M47.82,202.81v3.21h-1.79v-1.39h-1.43v5.46h1.48v1.82h-5.17v-1.82h1.48v-5.46h-1.43v1.39h-1.79v-3.21h8.66Z"/>
    <path class="cls-5" d="M56.48,202.81v3.21h-1.81v-1.39h-3.06v1.95h1.11v-.61h1.43v2.78h-1.43v-.61h-1.11v1.95h3.06v-1.39h1.81v3.21h-7.98v-1.82h.91v-5.46h-.91v-1.82h7.98Z"/>
    <path class="cls-5" d="M65.18,210.25c.16,0,.33-.03.53-.08v1.75c-.38.09-.75.13-1.1.13-1.14,0-1.99-.56-2.53-1.68l-.75-1.57h-1.01v1.29h.84v1.82h-3.95v-1.82h.9v-5.46h-.9v-1.82h4.32c1.2,0,2.14.27,2.81.8.67.53,1.01,1.27,1.01,2.22,0,1.3-.61,2.18-1.83,2.65l.44.91c.27.57.68.86,1.23.86ZM60.3,204.63v2.48h1.25c.49,0,.86-.11,1.12-.34.26-.23.4-.54.4-.94s-.13-.68-.39-.89c-.26-.21-.64-.32-1.13-.32h-1.25Z"/>
    <path class="cls-5" d="M70.99,204.7h-.01c-.76,0-1.37.23-1.81.7s-.67,1.09-.67,1.89c0,.84.22,1.51.67,2s1.05.74,1.8.74c.61,0,1.12-.15,1.53-.46.41-.3.69-.74.83-1.3h2.33c-.16,1.2-.66,2.13-1.48,2.79-.82.67-1.89,1-3.2,1-1.48,0-2.65-.42-3.5-1.27-.84-.85-1.26-2.02-1.26-3.51s.42-2.55,1.25-3.38c.85-.83,1.95-1.25,3.3-1.25s2.41.42,3.11,1.26v-1.1h1.79v3.81h-2.26c-.09-.61-.36-1.08-.79-1.42s-.97-.51-1.62-.51Z"/>
    <path class="cls-5" d="M82.27,208.33h1.79v3.59h-7.57v-1.82h.91v-5.46h-.91v-1.82h4.39v1.82h-1.27v5.46h2.65v-1.77Z"/>
    <path class="cls-5" d="M93.44,210.09h.73v1.82h-4.08v-1.82h1.09l-.23-.7h-3.16l-.25.7h1.1v1.82h-4.09v-1.82h.73l2.7-7.32h2.76l2.7,7.32ZM88.33,207.78h2.07l-1.04-3.06-1.03,3.06Z"/>
    <path class="cls-5" d="M97,205.41c0,.19.06.35.19.47.13.13.32.23.57.3.25.07.5.13.76.18.26.04.57.1.95.16s.69.12.94.19c1.49.34,2.24,1.17,2.24,2.5,0,.88-.31,1.57-.94,2.08s-1.5.77-2.63.77-2-.35-2.56-1.04v.9h-1.79v-3.22h1.87c.23,1.03.95,1.55,2.16,1.55.53,0,.94-.08,1.25-.25s.46-.41.46-.72c0-.22-.1-.41-.31-.55-.21-.14-.48-.24-.81-.3-.33-.06-.7-.12-1.11-.17s-.81-.13-1.21-.24-.77-.25-1.11-.43c-.33-.18-.6-.45-.81-.81s-.31-.8-.31-1.32c0-.88.3-1.57.91-2.06s1.44-.73,2.51-.73c1.14,0,2,.31,2.56.94v-.78h1.79v3.21h-1.91c-.1-.53-.32-.92-.65-1.17-.33-.25-.8-.38-1.42-.38-1.07,0-1.6.31-1.6.94Z"/>
    <path class="cls-5" d="M105.59,205.41c0,.19.06.35.19.47.13.13.32.23.57.3.25.07.5.13.76.18.26.04.57.1.95.16s.69.12.94.19c1.49.34,2.24,1.17,2.24,2.5,0,.88-.31,1.57-.94,2.08s-1.5.77-2.63.77-2-.35-2.56-1.04v.9h-1.79v-3.22h1.87c.23,1.03.95,1.55,2.16,1.55.53,0,.94-.08,1.25-.25s.46-.41.46-.72c0-.22-.1-.41-.31-.55s-.48-.24-.81-.3c-.33-.06-.7-.12-1.11-.17s-.81-.13-1.21-.24-.77-.25-1.11-.43c-.33-.18-.6-.45-.81-.81s-.31-.8-.31-1.32c0-.88.3-1.57.91-2.06s1.44-.73,2.51-.73c1.14,0,2,.31,2.56.94v-.78h1.79v3.21h-1.91c-.1-.53-.32-.92-.65-1.17-.33-.25-.8-.38-1.42-.38-1.07,0-1.6.31-1.6.94Z"/>
    <path class="cls-5" d="M119.89,202.81v3.21h-1.81v-1.39h-3.05v1.95h1.11v-.61h1.43v2.78h-1.43v-.61h-1.11v1.95h3.05v-1.39h1.81v3.21h-7.98v-1.82h.91v-5.46h-.91v-1.82h7.98Z"/>
    <path class="cls-5" d="M122.88,205.41c0,.19.07.35.2.47s.32.23.57.3c.25.07.5.13.76.18.26.04.57.1.95.16s.69.12.94.19c1.49.34,2.24,1.17,2.24,2.5,0,.88-.31,1.57-.94,2.08s-1.5.77-2.63.77-2-.35-2.56-1.04v.9h-1.79v-3.22h1.87c.23,1.03.94,1.55,2.16,1.55.53,0,.94-.08,1.25-.25.3-.17.46-.41.46-.72,0-.22-.1-.41-.31-.55s-.48-.24-.81-.3-.7-.12-1.1-.17c-.4-.05-.81-.13-1.21-.24-.4-.11-.77-.25-1.1-.43-.33-.18-.6-.45-.81-.81s-.31-.8-.31-1.32c0-.88.3-1.57.91-2.06.61-.49,1.44-.73,2.51-.73,1.14,0,2,.31,2.56.94v-.78h1.79v3.21h-1.91c-.1-.53-.32-.92-.65-1.17-.33-.25-.8-.38-1.42-.38-1.07,0-1.6.31-1.6.94Z"/>
  </g>
  <g>
    <path class="cls-9" d="M96.25,134.24l-5.65-2.82v-.47c0-.26-.09-.49-.25-.68-2.96-3.49-7.22-5.48-11.7-5.48-3.91,0-7.66,1.51-10.55,4.25l-.35.33-.35-.33c-2.88-2.74-6.62-4.25-10.55-4.25-4.48,0-8.75,1.99-11.7,5.47-.16.2-.25.44-.25.68v.47l-5.65,2.82c-.35.18-.58.54-.58.93v31.14c0,.58.47,1.05,1.05,1.05h56.05c.58,0,1.05-.47,1.05-1.05v-31.14c0-.4-.22-.76-.58-.93ZM44.9,165.26h-4.13v-29.44l4.13-2.06v31.5ZM48.35,165.26l1.47-.93c4.27-2.72,9.82-2.71,14.06,0l1.46.93h-16.99ZM66.7,163.75l-.81-.58c-2.68-1.97-5.81-3.02-9.04-3.02s-6.42,1.06-9.04,2.98l-.81.59v-32.4l.13-.15c2.53-2.74,6.07-4.3,9.71-4.3s7.18,1.57,9.71,4.32l.13.15v32.4ZM70.15,165.26l1.47-.93c4.27-2.72,9.82-2.71,14.06,0l1.46.93h-16.99ZM88.49,163.75l-.81-.6c-2.64-1.95-5.76-2.98-9.04-2.98s-6.38,1.04-9.04,3.01l-.81.6v-32.42l.13-.14c2.52-2.75,6.06-4.32,9.72-4.32s7.2,1.57,9.71,4.31l.13.14v32.4ZM94.72,165.26h-4.13v-31.5l4.13,2.06v29.44Z"/>
    <g>
      <path class="cls-7" d="M104.87,152.65h2.83s.95,0,.95,0c1.47,0,2.67-1.2,2.67-2.67v-3.74c0-1.47-1.2-2.67-2.67-2.67h-.95s-11.29,0-11.29,0v9.08h8.46Z"/>
      <line class="cls-3" x1="104.87" y1="143.56" x2="104.87" y2="152.65"/>
      <line class="cls-3" x1="96.41" y1="148.1" x2="104.87" y2="148.1"/>
    </g>
    <path class="cls-9" d="M109.06,143.56h-.95s-2.83,0-2.83,0v9.08h2.83s.95,0,.95,0c1.47,0,2.67-1.2,2.67-2.67v-3.74c0-1.47-1.2-2.67-2.67-2.67Z"/>
    <g>
      <g>
        <polygon class="cls-7" points="67.63 152.65 34.81 152.65 24.45 147.52 34.81 143.56 67.66 143.56 67.63 152.65"/>
        <line class="cls-3" x1="34.81" y1="143.56" x2="34.81" y2="152.65"/>
        <line class="cls-3" x1="35.28" y1="148.1" x2="67.63" y2="148.1"/>
      </g>
      <polygon class="cls-9" points="28.62 149.58 28.62 145.9 25.26 147.74 28.62 149.58"/>
    </g>
    <path class="cls-2" d="M78.65,152.79c-2.73,0-5.37.73-7.71,2.13"/>
    <path class="cls-2" d="M86.79,155.15c-1.01-.64-2.08-1.16-3.2-1.54"/>
    <path class="cls-2" d="M86.79,151.48c-2.44-1.55-5.23-2.37-8.14-2.37-2.73,0-5.37.73-7.71,2.13"/>
    <path class="cls-2" d="M74.09,146.16c-1.1.35-2.16.83-3.16,1.42"/>
    <path class="cls-2" d="M86.79,147.82c-2.44-1.55-5.23-2.37-8.14-2.37-.34,0-.69.01-1.03.03"/>
    <path class="cls-2" d="M86.79,144.15c-2.44-1.55-5.23-2.37-8.14-2.37-2.73,0-5.37.73-7.71,2.13"/>
    <path class="cls-2" d="M86.79,140.48c-2.44-1.55-5.23-2.37-8.14-2.37-2.73,0-5.37.73-7.71,2.13"/>
  </g>
  <path class="cls-4" d="M65.41,30.95h0s.29-1.48.29-1.48h0l.28,1.47.28,2.08h0c.02.12.11.21.22.23l2.11.42h0l1.5.28-1.5.28h0l-2.11.42h0c-.12.02-.21.12-.22.23l-.28,1.93h0s-.28,1.48-.28,1.48l-.29-1.48h0s-.42-1.95-.42-1.95c-.02-.11-.11-.19-.22-.22l-1.97-.42h0l-1.5-.28,1.5-.28h0l1.97-.42c.11-.02.2-.11.22-.22"/>
  <path class="cls-4" d="M41.6,48.04h0s.29-1.48.29-1.48h0l.28,1.47.28,2.08h0c.02.12.11.21.22.23l2.11.42h0l1.5.28-1.5.28h0l-2.11.42h0c-.12.02-.21.12-.22.23l-.28,1.93h0s-.28,1.48-.28,1.48l-.29-1.48h0s-.42-1.95-.42-1.95c-.02-.11-.11-.19-.22-.22l-1.97-.42h0l-1.5-.28,1.5-.28h0l1.97-.42c.11-.02.2-.11.22-.22"/>
  <path class="cls-4" d="M61.57,97.36h0s.29-1.48.29-1.48h0l.28,1.47.28,2.08h0c.02.12.11.21.22.23l2.11.42h0l1.5.28-1.5.28h0l-2.11.42h0c-.12.02-.21.12-.22.23l-.28,1.93h0s-.28,1.48-.28,1.48l-.29-1.48h0s-.42-1.95-.42-1.95c-.02-.11-.11-.19-.22-.22l-1.97-.42h0l-1.5-.28,1.5-.28h0l1.97-.42c.11-.02.2-.11.22-.22"/>
  <path class="cls-9" d="M55.57,83.83c-1.67,0-3.09-1.2-3.38-2.84l-1.08-6.13c-.1-.57-.47-1.05-1-1.3l-2.92-1.36,3.66-5.6c.19-.29.29-.63.29-.97v-2.76c0-9,7.32-16.31,16.31-16.31h1.24c7.52,0,14.12,5.07,16.06,12.33,1.17,4.36.49,9.08-1.86,12.94l-3.48,5.72c-1.5,2.46-2,5.38-1.42,8.2l.7,3.37h-14.23l-.46-2.19c-.37-1.8-1.98-3.1-3.81-3.1h-4.63Z"/>
  <path class="cls-4" d="M96.91,71.08h0s.29-1.48.29-1.48h0l.28,1.47.28,2.08h0c.02.12.11.21.22.23l2.11.42h0l1.5.28-1.5.28h0l-2.11.42h0c-.12.02-.21.12-.22.23l-.28,1.93h0s-.28,1.48-.28,1.48l-.29-1.48h0s-.42-1.95-.42-1.95c-.02-.11-.11-.19-.22-.22l-1.97-.42h0l-1.5-.28,1.5-.28h0l1.97-.42c.11-.02.2-.11.22-.22"/>
  <g>
    <path class="cls-5" d="M68.46,65.88c-.56.48-1.32.63-2.01.42-.7-.22-1.24-.77-1.43-1.48s0-1.46.49-2c.49-.54,1.23-.79,1.95-.66.26.77.83,1.4,1.57,1.74-.41.57-.61,1.27-.56,1.98h0ZM71.67,59.54c-.59-.49-1.39-.63-2.1-.37-.72.26-1.24.89-1.37,1.64s.15,1.51.73,2c.23.19.49.33.77.41.61-.44,1.36-.63,2.1-.55.04-.04.09-.08.13-.13h0c.36-.44.54-1,.49-1.56-.05-.57-.32-1.09-.76-1.45h0ZM72.84,64.03h0c-.27-.22-.58-.37-.92-.44,0,0-.01,0-.02,0h0c-.68-.13-1.38.08-1.88.57-.5.48-.72,1.18-.6,1.87.12.68.56,1.27,1.19,1.56.63.29,1.36.26,1.96-.09s.99-.97,1.04-1.66c.06-.69-.23-1.36-.77-1.8h0ZM79.35,60.94h0c-.3.36-.69.64-1.12.83.1.46.09.94-.02,1.41.48-.27,1.02-.41,1.57-.4.55.01,1.09.17,1.55.47.15-.1.28-.22.39-.36.36-.42.53-.96.49-1.51-.04-.55-.29-1.06-.7-1.43-.41-.37-.95-.56-1.5-.54-.07.57-.31,1.11-.67,1.55h0ZM73.04,53.79c-.17.2-.29.43-.38.68.58.08,1.13.33,1.57.71.44.39.76.9.91,1.47.43-.34.94-.56,1.48-.63.28-.63.24-1.36-.12-1.96-.35-.59-.98-.98-1.67-1.03s-1.36.23-1.8.76h0ZM74.09,59.66c-.16-.7-.06-1.44.28-2.07.04-.64-.21-1.26-.67-1.7s-1.11-.64-1.74-.55-1.2.45-1.53,1c-.33.55-.4,1.21-.19,1.82.65-.02,1.3.18,1.83.56.53.38.92.93,1.12,1.55.27-.26.57-.46.91-.61h0ZM78.67,60.38c.49-.59.63-1.39.37-2.1s-.89-1.24-1.64-1.37-1.52.15-2,.73c-.42.5-.59,1.16-.45,1.8.82-.1,1.65.15,2.28.68.28.23.51.52.69.84.29-.13.55-.33.76-.57h0ZM74.33,64.34h0c.48.24,1.03.29,1.55.15.52-.15.96-.49,1.24-.95.28-.46.37-1.01.26-1.53s-.41-.99-.85-1.3-.98-.45-1.51-.38c-.53.07-1.02.33-1.37.75-.18.22-.32.48-.41.75,0,.03-.01.06-.02.09-.12.45-.09.92.09,1.35,0,.02,0,.03.01.05.02.02.05.03.07.05h0c.31.26.57.58.75.94.06,0,.12.02.18.05h0ZM74.46,65.33h0c.1.82-.15,1.64-.68,2.28-.06.07-.12.14-.19.21.13.25.31.48.52.66.43.36,1,.54,1.56.49s1.09-.32,1.45-.76c.12-.14.21-.3.29-.46-.63-.75-.86-1.75-.62-2.7-.71.41-1.55.51-2.33.29h0ZM78.08,64.42h0c-.36.44-.54,1-.49,1.56.05.56.32,1.09.76,1.45s1,.54,1.56.49c.56-.05,1.09-.32,1.45-.76.36-.43.54-1,.49-1.56-.05-.56-.32-1.09-.76-1.45s-1-.54-1.56-.49-1.08.32-1.45.76h0Z"/>
    <path class="cls-5" d="M65.97,60.16c.31-.28.58-.61.79-.97.26-.45.39-.96.39-1.48.54.27,1.01.53,1.33.73h0c.17.1.38.05.48-.11h0c.09-.18.04-.38-.12-.48-1.18-.71-2.42-1.29-3.72-1.74.39-.3.72-.68.95-1.11.33-.61.53-1.29.57-1.98.09-1.47-.49-2.86-1.49-3.53h0c-.11-.07-.24-.08-.36-.02-1.06.55-1.8,1.86-1.89,3.33h0c-.08,1.07.23,2.12.88,2.97-1.05-.19-2.05-.14-2.77.38h0c-.16.11-.19.33-.08.49.11.16.33.19.49.08.93-.67,2.66-.29,4.24.33h0c-.63.12-1.22.41-1.7.85-.83.68-1.26,1.73-1.14,2.8.02.13.12.23.24.27,1.04.25,2.14-.05,2.91-.8h0Z"/>
  </g>
  <path class="cls-9" d="M81.58,78.79l3.48-5.72c2.71-4.45,3.49-9.88,2.14-14.92-2.24-8.37-9.85-14.21-18.51-14.21h-1.24c-10.39,0-18.85,8.46-18.85,18.85v2.53l-3.53,5.43c-.4.61-.51,1.37-.31,2.07.2.7.7,1.28,1.36,1.59l2.56,1.19,1.01,5.73c.5,2.86,2.98,4.94,5.88,4.94h4.63c.64,0,1.2.45,1.33,1.08l.75,3.6c.07.36.39.61.75.61h17.84c.23,0,.45-.1.6-.28.15-.18.2-.42.16-.64l-1.14-5.5c-.46-2.19-.07-4.45,1.1-6.36h0ZM78.97,85.47l.95,4.57h-16.27l-.62-2.99c-.28-1.34-1.47-2.31-2.83-2.31h-4.63c-2.16,0-4-1.54-4.37-3.67l-1.08-6.13c-.04-.25-.21-.46-.43-.56l-2.92-1.36c-.26-.12-.45-.34-.53-.62-.08-.28-.04-.57.12-.81l3.66-5.62c.08-.13.12-.27.12-.42v-2.76c0-9.55,7.77-17.31,17.31-17.31h1.24c7.97,0,14.97,5.37,17.03,13.07,1.24,4.63.52,9.63-1.97,13.72l-3.48,5.72c-1.37,2.25-1.83,4.9-1.29,7.48h0Z"/>
  <path class="cls-6" d="M60.18,65.65c-.58.9-1.82,1.46-3.24,1.46s-2.67-.56-3.24-1.46c-.23-.36-.12-.83.23-1.06.36-.23.83-.12,1.06.23.23.36.94.75,1.95.75s1.72-.39,1.95-.75c.23-.36.71-.46,1.06-.23.36.23.46.7.24,1.06h0Z"/>
</svg>