<?xml version="1.0" encoding="UTF-8"?>
<svg id="Layer_1" data-name="Layer 1" xmlns="http://www.w3.org/2000/svg" viewBox="0 0 924.4 924.4">
  <defs>
    <style>
      .cls-1 {
        fill: #21b501;
      }

      .cls-2 {
        fill: #dbbb00;
        stroke: #233260;
        stroke-miterlimit: 10;
        stroke-width: 24.4px;
      }

      .cls-3 {
        fill: #233260;
      }
    </style>
  </defs>
  <path class="cls-2" d="M912.2,462.2c0,248.53-201.47,450-449.99,450S12.2,710.73,12.2,462.2,213.68,12.2,462.21,12.2s449.99,201.47,449.99,450Z"/>
  <g>
    <path class="cls-3" d="M780.41,406.83c-5.95-11.24-12.56-23.14-8.6-37.03,1.32-3.31,2.64-6.61,4.63-9.26.66-1.32,1.32-1.98,1.98-3.31,5.95-11.9,5.95-27.11,0-39.67-5.95-11.9-18.51-21.16-31.74-23.14-5.95-.66-11.24-.66-17.85-.66-7.27,0-15.21.66-23.14-1.32-9.92-1.98-18.51-7.27-27.11-12.56-8.6-5.29-17.19-10.58-26.45-11.24-15.21-1.98-30.41,7.93-42.32,15.87-5.29,3.97-10.58,7.93-15.87,11.9-20.5,15.87-42.32,32.4-68.1,38.35-8.6,1.98-16.53,1.98-25.12,2.64-10.58.66-19.84,1.32-29.09,3.97-14.55,4.63-26.45,13.88-39.01,23.8-3.31,2.64-5.95,4.63-9.26,7.27-2.64,1.98-5.29,3.97-7.93,5.95l-.66.66c-12.56,8.6-25.79,16.53-39.01,23.14-4.63,1.98-9.92,3.97-14.55,5.95-9.26,3.97-17.85,7.27-25.79,12.56-5.29,3.97-9.92,8.6-15.21,13.88-4.63,4.63-9.26,9.26-13.88,13.22-2.64,1.98-5.29,4.63-8.6,6.61-9.92,7.27-19.17,14.55-24.46,25.12-3.31,6.61-4.63,14.55-5.95,22.48-1.32,6.61-2.64,13.22-4.63,19.17.66-1.32,1.32-2.64,1.98-3.97,3.31-6.61,6.61-13.88,11.9-19.84,14.55-16.53,35.04-27.11,54.22-37.03,6.61-3.31,13.22-6.61,19.84-10.58,11.24-6.61,22.48-13.88,33.06-21.16,15.87-10.58,32.4-22.48,50.25-30.41,17.19-7.93,35.7-11.9,53.56-16.53l30.41-5.29c21.82-5.29,42.98-9.26,61.49,0,13.22,6.61,21.82,19.17,29.09,29.09,9.26,12.56,19.84,27.77,21.82,46.28.66,9.26-.66,17.85-2.64,25.12-5.29,23.14-14.55,41.65-27.11,55.54-11.24,12.56-25.13,21.82-39.01,30.41-26.45,16.53-56.2,35.7-90.58,39.01-9.26.66-17.85.66-27.11,0-9.26-.66-18.51-.66-27.11,0-9.26,1.32-17.85,3.31-27.11,5.95-12.56,3.31-25.12,6.61-38.35,6.61h-.66c-7.27,0-14.55-1.32-21.16-1.98-7.27-.66-13.88-1.98-20.5-1.98-2.64,0-4.63,0-7.27.66-7.93.66-17.85,1.32-26.45-3.31-9.92-4.63-15.87-15.21-20.5-22.48-3.31-5.95-7.27-12.56-7.93-20.5-1.32-9.92,2.64-18.51,7.93-27.11-3.97,4.63-9.26,7.93-14.55,11.24-3.31,1.98-6.61,3.97-9.26,6.61-5.95,4.63-9.92,13.22-6.61,18.51,1.98,3.97,7.27,5.29,13.22,7.27s12.56,3.97,17.85,9.26c5.95,5.95,7.27,14.55,8.6,21.82.66,4.63,1.32,9.26,3.31,13.22,5.29,9.92,19.84,11.9,31.08,10.58,3.97-.66,7.93-1.32,11.9-1.98,6.61-1.32,13.88-1.98,20.5-1.98,3.97,0,7.27,0,11.24,1.32,12.56,2.64,23.14,10.58,33.72,17.85,11.9,8.6,23.8,17.19,36.37,15.21,4.63-.66,9.26-2.64,14.55-5.29,6.61-3.31,13.22-5.95,21.16-6.61,5.29,0,10.58.66,15.87,1.98,3.31.66,6.61,1.32,9.92,1.98,13.88.66,25.79-8.6,39.01-17.85,3.31-2.64,6.61-4.63,9.26-7.27,21.16-14.55,46.94-23.8,72.73-24.46h7.93c7.93,0,15.87,0,22.48-2.64,17.19-5.29,27.11-21.16,37.69-38.35,9.92-15.87,20.5-33.06,38.35-41.65,9.92-4.63,19.84-6.61,30.41-8.6,5.29-.66,9.92-1.32,14.55-2.64,11.9-2.64,25.79-10.58,27.77-22.48.66-2.64.66-5.95,0-9.92,0-3.97-.66-7.93,0-11.9,1.32-7.93,5.29-13.88,8.6-20.5,3.31-5.29,6.61-10.58,7.27-16.53,0-9.92-4.63-17.85-9.26-27.11Z"/>
    <path class="cls-3" d="M672.64,572.12c-11.24,17.85-23.14,37.03-44.96,43.64-8.6,2.64-17.19,2.64-25.79,2.64h-7.93c-23.14,1.32-46.94,9.26-66.12,22.48-3.31,1.98-5.95,4.63-9.26,6.61-13.22,10.58-29.09,21.82-47.61,20.5-3.97,0-7.93-1.32-11.9-1.98-4.63-1.32-8.6-1.98-12.56-1.98-5.29,0-10.58,2.64-16.53,5.29-5.29,2.64-11.24,5.29-17.85,5.95-1.98,0-3.97.66-5.95.66-15.21,0-27.11-9.26-39.67-17.85-9.92-6.61-18.51-13.22-29.09-15.87-8.6-1.98-17.85,0-27.11,1.32-3.97.66-7.93,1.32-12.56,1.98-19.84,1.98-35.7-3.97-42.98-16.53-3.31-5.29-3.97-11.24-4.63-17.19-1.32-5.95-1.98-11.9-5.29-15.21-2.64-2.64-7.27-4.63-12.56-5.95-7.27-1.98-15.21-4.63-19.84-12.56-6.61-11.24-.66-25.79,9.26-34.38,3.31-2.64,6.61-5.29,10.58-7.27,4.63-3.31,9.26-5.95,12.56-9.92,5.95-7.27,7.93-17.19,9.92-27.77,1.32-8.6,3.31-17.85,7.27-25.79,6.61-12.56,17.19-21.16,27.77-29.09,2.64-1.98,5.29-3.97,7.93-5.95,4.63-3.97,8.6-7.93,13.22-12.56,5.29-5.29,10.58-10.58,16.53-15.21,8.6-6.61,18.51-10.58,28.43-14.55,4.63-1.98,9.26-3.97,13.88-5.95,7.93-3.97,15.87-8.6,23.8-13.22-19.84-1.98-39.67-2.64-58.85,1.32-18.51,4.63-41.65,16.53-49.59,38.35-.66,2.64-1.98,5.29-2.64,8.6-1.98,7.27-3.97,14.55-9.26,21.16-9.26,10.58-22.48,13.22-35.04,15.21-6.61,1.32-12.56,1.98-17.85,3.97-13.88,5.29-23.8,17.19-34.38,29.75-10.58,12.56-21.16,25.12-36.37,32.4-2.64,1.32-4.63,1.98-7.27,2.64-3.31,1.32-6.61,2.64-9.92,3.97-3.31,1.98-6.61,5.95-6.61,9.26.66,3.97,4.63,6.61,11.9,10.58,5.95,5.95,9.92,7.93,13.88,11.24,9.92,8.6,11.9,20.5,13.22,32.4,1.32,7.93,2.64,14.55,5.29,20.5,5.95,11.24,18.51,16.53,31.74,22.48,11.24,4.63,23.14,9.92,31.74,19.17,3.31,3.31,5.95,7.27,9.26,11.24,3.31,4.63,6.61,9.26,11.24,12.56,9.26,6.61,21.82,6.61,35.7,5.95,14.55-.66,29.75-.66,42.32,7.27,5.29,3.31,9.26,7.93,12.56,11.9,3.97,4.63,7.93,8.6,11.9,10.58,11.9,5.95,25.79.66,40.99-5.29,3.31-1.32,6.61-2.64,9.92-3.97,19.17-7.27,40.33-8.6,60.83-4.63,2.64.66,4.63.66,7.27,1.32,7.93,1.98,15.21,3.31,22.48,1.98,9.26-1.32,17.19-7.93,25.12-15.21,5.95-4.63,11.24-9.92,18.51-13.22,9.92-5.29,20.5-7.27,31.08-9.26,4.63-.66,9.26-1.98,13.88-2.64,21.16-5.29,39.67-17.19,58.18-29.09,4.63-2.64,8.6-5.29,11.24-8.6,3.31-3.97,4.63-9.26,6.61-15.21,1.98-6.61,3.97-13.22,7.93-19.17,3.97-4.63,8.6-7.93,13.22-11.24.66-.66,1.98-1.32,2.64-1.98,17.85-12.56,31.74-31.74,38.35-53.56-6.61,1.32-12.56,2.64-18.51,5.95-15.21,7.27-24.46,21.82-33.72,37.03Z"/>
    <path class="cls-1" d="M266.01,578.74c4.63,7.93,8.6,14.55,15.21,17.85,5.29,2.64,12.56,1.98,19.84,1.98,2.64,0,5.29-.66,7.93-.66h.66c7.27,0,14.55,1.32,21.16,1.98,6.61.66,13.22,1.98,19.84,1.98,11.9,0,23.14-3.31,35.04-6.61,9.26-2.64,19.17-5.29,29.09-5.95,9.92-1.32,19.84-.66,29.09,0,8.6.66,17.19.66,25.12,0,31.08-2.64,59.51-21.16,84.63-37.03,13.22-7.93,26.45-16.53,36.37-27.77,11.24-12.56,19.84-29.75,24.46-50.25,1.32-5.95,2.64-13.88,2.64-21.16-1.32-14.55-11.24-28.43-19.17-40.33-6.61-9.26-14.55-19.84-24.46-25.12-15.21-7.93-33.72-3.97-52.89.66l-29.75,7.27c-17.19,3.97-35.04,8.6-51.57,15.87-17.19,7.93-33.06,18.51-48.27,29.09-10.58,7.27-21.82,15.21-33.72,21.82-6.61,3.97-13.88,7.27-20.5,10.58-19.17,9.92-37.03,18.51-50.25,33.72-3.97,4.63-6.61,10.58-9.92,17.19-2.64,5.29-5.29,10.58-7.93,15.21-5.29,7.93-9.92,16.53-9.26,24.46.66,5.29,3.31,10.58,6.61,15.21Z"/>
  </g>
</svg>