<?xml version="1.0" encoding="UTF-8"?>
<svg id="Layer_1" data-name="Layer 1" xmlns="http://www.w3.org/2000/svg" viewBox="0 0 924.4 924.4">
  <defs>
    <style>
      .cls-1 {
        fill: #21b501;
      }

      .cls-2, .cls-3 {
        fill: #dbbb00;
      }

      .cls-3 {
        stroke: #233260;
        stroke-miterlimit: 10;
        stroke-width: 24.4px;
      }

      .cls-4 {
        fill: #233260;
      }
    </style>
  </defs>
  <path class="cls-3" d="M912.2,462.2c0,248.53-201.47,450-449.99,450S12.2,710.73,12.2,462.2,213.68,12.2,462.21,12.2s449.99,201.47,449.99,450Z"/>
  <g>
    <path class="cls-4" d="M723.74,340.07c0,2.8,0,4.88,0,6.96,0,89.41-.03,178.83.1,268.24,0,3.97-1.18,6.03-4.63,8.02-77.95,44.89-155.81,89.93-233.7,134.92-1.25.72-2.56,1.35-4.52,2.38v-5.38c0-90.31,0-180.63-.06-270.94,0-2.84.64-4.54,3.29-6.07,78.57-45.3,157.09-90.71,235.62-136.09,1.02-.59,2.08-1.09,3.91-2.05Z"/>
    <path class="cls-4" d="M200.81,341.47c11.53,6.63,22.43,12.89,33.32,19.17,19.36,11.15,38.69,22.36,58.09,33.42,2.4,1.37,3.26,2.9,3.25,5.65-.11,20.71,0,41.41-.13,62.12-.02,3.13.92,4.78,3.78,6.18,10.62,5.23,21.09,10.77,31.63,16.17,1.15.59,2.36,1.06,4.05,1.82v-66.55c1.56.7,2.64,1.09,3.63,1.66,33.26,19.16,66.5,38.36,99.78,57.48,2.25,1.29,3.55,2.51,3.55,5.45-.09,90.78-.08,181.55-.08,272.33,0,.59-.08,1.18-.17,2.47-1.39-.65-2.55-1.09-3.61-1.7-78.03-45.07-156.04-90.17-234.09-135.21-2.14-1.23-3.24-2.47-3.24-5.18.08-90.78.07-181.55.08-272.33,0-.73.08-1.46.16-2.94Z"/>
    <path class="cls-4" d="M351.07,388.78c12.93-7.49,25.23-14.62,37.54-21.74,69.06-39.92,138.14-79.82,207.14-119.85,3.44-2,5.84-2.01,9.28-.03,33.65,19.38,67.42,38.55,101.16,57.79,1.17.67,2.32,1.36,3.96,2.32-1.36.91-2.37,1.67-3.47,2.3-80.73,46.69-161.48,93.36-242.16,140.14-2.66,1.54-4.45,1.21-6.86-.19-28.91-16.8-57.85-33.55-86.83-50.22-6.23-3.58-12.68-6.77-19.75-10.52Z"/>
    <path class="cls-4" d="M212.07,307.3c23.23-13.42,45.92-26.54,68.62-39.65,58.91-34.04,117.84-68.06,176.7-102.2,2.85-1.65,4.82-1.65,7.65,0,29.11,17.02,58.31,33.89,87.48,50.8,1.38.8,2.73,1.67,4.46,2.73-1.47.94-2.55,1.69-3.69,2.35-80.57,46.58-161.15,93.16-241.73,139.75-1.96,1.13-3.49,2.13-6.05.63-30.41-17.76-60.92-35.36-91.4-53-.5-.29-.95-.66-2.04-1.42Z"/>
  </g>
  <polygon class="cls-2" points="687.36 545.28 511.9 641.64 511.38 516.33 686.83 419.98 687.36 545.28"/>
  <g>
    <path class="cls-1" d="M557.33,542.73c-5.6,2.85-7.83,9.69-4.98,15.29,2.85,5.6,9.69,7.83,15.29,4.98l79.79-40.57c5.6-2.85,7.83-9.69,4.98-15.29-2.85-5.6-9.69-7.83-15.29-4.99l-79.8,40.57Z"/>
    <path class="cls-1" d="M652.42,469.41c-2.85-5.61-9.7-7.83-15.29-4.99l-79.79,40.57c-5.6,2.85-7.83,9.69-4.98,15.29,2.85,5.6,9.69,7.83,15.29,4.98l79.8-40.57c5.6-2.85,7.83-9.69,4.98-15.29Z"/>
    <path class="cls-1" d="M557.33,576.92c-5.6,2.85-7.83,9.7-4.98,15.29,2.85,5.6,9.69,7.83,15.29,4.98l79.79-40.57c5.6-2.85,7.83-9.69,4.98-15.29-2.85-5.6-9.7-7.83-15.29-4.99l-79.79,40.57Z"/>
  </g>
</svg>