<?xml version="1.0" encoding="UTF-8"?>
<svg id="Layer_1" data-name="Layer 1" xmlns="http://www.w3.org/2000/svg" viewBox="0 0 924.4 924.4">
  <defs>
    <style>
      .cls-1 {
        stroke-linecap: round;
        stroke-linejoin: round;
      }

      .cls-1, .cls-2 {
        fill: none;
      }

      .cls-1, .cls-2, .cls-3, .cls-4, .cls-5 {
        stroke: #233260;
      }

      .cls-1, .cls-4 {
        stroke-width: 13.8px;
      }

      .cls-6 {
        font-family: Vicky-Black, Vicky;
        font-size: 84.59px;
        font-weight: 800;
      }

      .cls-6, .cls-7 {
        fill: #233260;
      }

      .cls-2 {
        stroke-width: 13.81px;
      }

      .cls-2, .cls-3, .cls-4, .cls-5 {
        stroke-miterlimit: 10;
      }

      .cls-8 {
        fill: #21b501;
      }

      .cls-9, .cls-3, .cls-4, .cls-5 {
        fill: #dbbb00;
      }

      .cls-3 {
        stroke-width: 27.39px;
      }

      .cls-5 {
        stroke-width: 24.4px;
      }
    </style>
  </defs>
  <path class="cls-5" d="M912.2,462.2c0,248.53-201.47,450-449.99,450S12.2,710.73,12.2,462.2,213.68,12.2,462.21,12.2s449.99,201.47,449.99,450Z"/>
  <g>
    <g>
      <g>
        <g>
          <path class="cls-8" d="M549.66,335.14c-9.38,0-20.74-5.32-32.77-10.94-10.6-4.95-21.55-10.08-29.89-10.42-3.12-.13-6.08-1.08-8.58-2.77-.07-.05-.72-.52-.72-.52-1.53-1.15-3.9-3.83-6.92-10.45l-69.02-151.26c-.76-1.67-.83-3.56-.19-5.28.64-1.72,1.94-3.11,3.6-3.87l105.89-48.31c.93-.42,1.9-.62,2.86-.62,2.62,0,5.12,1.5,6.28,4.04l69.02,151.25c2.5,5.48,3.6,9.43,3.37,12.08,0,0-.07.81-.08.89-.36,2.91-1.55,5.72-3.45,8.13,0,0-.21.28-.25.34-5.1,6.54-8.38,18.06-11.55,29.21-4.69,16.51-9.12,32.09-19.66,36.9-2.32,1.06-5,1.6-7.95,1.6h0Z"/>
          <path class="cls-7" d="M513.93,97.61l12.5,27.38,11.16,24.46s0,.02,0,.02h0s4.56,9.99,4.56,9.99l.6,1.31,40.2,88.09c3.01,6.61,2.77,8.61,2.77,8.61l-.06.65c-.21,1.67-.91,3.32-2.09,4.79l-.2.27c-5.93,7.61-9.34,19.6-12.75,31.58-4.12,14.5-8.25,29.01-15.88,32.49-1.48.67-3.19.98-5.08.98-7.84,0-18.85-5.15-29.85-10.29-11.4-5.33-22.81-10.66-32.53-11.07-1.87-.08-3.59-.64-5-1.59l-.52-.38s-1.78-1.33-4.7-7.73l-69.02-151.26,105.89-48.31M513.92,83.8c-1.92,0-3.86.4-5.72,1.25l-105.89,48.31c-3.33,1.52-5.92,4.3-7.2,7.73-1.28,3.43-1.15,7.23.37,10.56l69.02,151.26c2.95,6.46,5.88,10.73,8.98,13.05.05.04.11.08.16.12l.52.38c.13.09.26.19.39.28,3.56,2.4,7.76,3.76,12.17,3.94,6.94.29,17.26,5.11,27.24,9.78,12.74,5.96,24.78,11.59,35.69,11.59,3.94,0,7.58-.75,10.81-2.22,13.45-6.14,18.3-23.21,23.43-41.28,2.99-10.52,6.09-21.39,10.36-26.87.08-.1.16-.21.24-.32l.07-.09c2.63-3.38,4.29-7.34,4.8-11.46.02-.17.04-.34.05-.52l.05-.59c.36-3.97-.87-8.81-3.96-15.58l-40.2-88.09-.6-1.31-4.52-9.9s-.03-.07-.05-.11l-11.16-24.46-12.5-27.38c-2.32-5.08-7.33-8.08-12.57-8.08h0Z"/>
        </g>
        <circle class="cls-4" cx="543.93" cy="304.51" r="12.52"/>
        <g>
          <line class="cls-2" x1="585.72" y1="257.47" x2="550.26" y2="274.01"/>
          <line class="cls-2" x1="517.62" y1="289.23" x2="482.16" y2="305.76"/>
        </g>
        <rect class="cls-9" x="450.76" y="132.34" width="84.09" height="118.58" rx="12.4" ry="12.4" transform="translate(1020.43 157.05) rotate(155)"/>
        <text class="cls-6" transform="translate(468.94 232.68) rotate(-25)"><tspan x="0" y="0">€</tspan></text>
      </g>
      <path class="cls-1" d="M547.06,306.79s85.53,56.96,72.93,86.24"/>
    </g>
    <line class="cls-7" x1="759.09" y1="423.77" x2="759.09" y2="423.78"/>
    <g>
      <path class="cls-8" d="M269.59,315.35c0,20.54,16.99,37.24,37.88,37.24,7.26,0,14.16-2.12,20.24-5.96v-110.26c0-3.94,3.19-7.12,7.12-7.12s7.12,3.19,7.12,7.12v110.26c6.08,3.83,12.97,5.96,20.24,5.96,20.88,0,37.88-16.71,37.88-37.24,0-10.42-4.52-20.44-12.41-27.5-1.5-1.35-2.37-3.28-2.37-5.3s.86-3.95,2.37-5.3c7.89-7.07,12.41-17.09,12.41-27.5,0-17.18-11.86-32.04-28.85-36.14-1.96-.47-3.62-1.74-4.58-3.51-.96-1.76-1.13-3.86-.47-5.75,1.21-3.45,1.82-7,1.82-10.56,0-17.97-14.88-32.59-33.16-32.59s-33.16,14.62-33.17,32.59c0,3.54.62,7.1,1.83,10.57.66,1.9.49,3.98-.47,5.75-.96,1.77-2.63,3.04-4.58,3.51-16.98,4.1-28.84,18.96-28.84,36.14,0,10.41,4.53,20.43,12.41,27.5,1.5,1.35,2.37,3.28,2.37,5.3s-.86,3.95-2.37,5.3c-7.89,7.06-12.41,17.08-12.41,27.5Z"/>
      <path class="cls-9" d="M376.01,412.2c-4.61-5.22-11.23-8.2-18.16-8.2h-46.04c-6.93,0-13.55,2.99-18.16,8.2-4.67,5.27-6.84,12.32-5.98,19.34l2.65,63.81h88.96l2.67-63.37c.9-7.45-1.28-14.5-5.94-19.77Z"/>
      <path class="cls-7" d="M347.38,425.08h-25.11c-3.93,0-7.12,1.59-7.12,3.56s3.19,3.56,7.12,3.56h25.11c3.93,0,7.12-1.59,7.12-3.56s-3.19-3.56-7.12-3.56Z"/>
      <path class="cls-7" d="M345.42,445.19h-20.57c-3.22,0-5.83,1.59-5.83,3.56s2.61,3.56,5.83,3.56h20.57c3.22,0,5.83-1.59,5.83-3.56s-2.61-3.56-5.83-3.56Z"/>
      <path class="cls-7" d="M343.18,466.01h-16.09c-2.52,0-4.56,1.59-4.56,3.56s2.04,3.56,4.56,3.56h16.09c2.52,0,4.56-1.59,4.56-3.56s-2.04-3.56-4.56-3.56Z"/>
      <path class="cls-7" d="M378.24,495.35h14.1c1.02-14.31,1.08-14.38,1.14-14.44l2.64-44.4c1.36-11.05-2.08-22.17-9.45-30.5-7.31-8.27-17.81-13.01-28.82-13.01h-15.9v-30.29c6.36,2.68,13.18,4.1,20.24,4.1,28.73,0,52.11-23.09,52.11-51.47,0-12.01-4.31-23.62-12.02-32.8,7.7-9.19,12.02-20.8,12.02-32.8,0-21.35-13.18-40.1-32.81-47.79.49-2.71.74-5.43.74-8.17,0-25.81-21.27-46.81-47.4-46.81s-47.4,21.01-47.4,46.82c0,2.74.25,5.47.74,8.17-19.64,7.69-32.81,26.44-32.81,47.79,0,12,4.31,23.61,12.02,32.8-7.71,9.18-12.02,20.79-12.02,32.8,0,28.38,23.38,51.47,52.11,51.47,7.06,0,13.88-1.43,20.24-4.1v30.29h-15.91c-11,0-21.51,4.74-28.82,13.01-7.37,8.32-10.81,19.44-9.49,30.05l2.15,59.28h14.26l-2.24-60.56c-.86-7.01,1.32-14.07,5.98-19.34,4.61-5.21,11.23-8.2,18.16-8.2h46.04c6.93,0,13.55,2.99,18.16,8.2,4.66,5.28,6.84,12.32,5.94,19.77l-3.71,60.12ZM334.83,229.25c-3.93,0-7.12,3.18-7.12,7.12v110.27c-6.08,3.83-12.97,5.96-20.24,5.96-20.89,0-37.88-16.71-37.88-37.24,0-10.42,4.52-20.43,12.41-27.5,1.51-1.35,2.37-3.28,2.37-5.3s-.86-3.95-2.37-5.3c-7.88-7.07-12.41-17.08-12.41-27.5,0-17.18,11.86-32.04,28.84-36.14,1.96-.47,3.62-1.74,4.58-3.51.96-1.77,1.13-3.85.47-5.75-1.21-3.47-1.83-7.02-1.83-10.57,0-17.97,14.88-32.59,33.17-32.59s33.16,14.62,33.16,32.59c0,3.56-.61,7.11-1.82,10.56-.67,1.9-.49,3.99.47,5.75.96,1.77,2.63,3.04,4.58,3.51,16.99,4.1,28.85,18.96,28.85,36.14,0,10.41-4.52,20.43-12.41,27.5-1.5,1.36-2.37,3.28-2.37,5.3s.86,3.96,2.37,5.3c7.89,7.06,12.41,17.08,12.41,27.5,0,20.53-17,37.24-37.88,37.24-7.27,0-14.16-2.12-20.24-5.96v-110.27c0-3.93-3.18-7.12-7.11-7.12Z"/>
    </g>
    <g>
      <path class="cls-9" d="M481.89,398.73c-4.65-.58-9.66-.45-15.24.57h0c-24.16,4.4-47.01,19.95-35.55,99.82h34.83c-.08-3.1-.18-6.17-.18-9.41,0-32.31,2.6-67.32,16.13-90.97Z"/>
      <path class="cls-9" d="M530.87,384.89c-25.16,0-50.88,12.45-50.88,104.81,0,3.25.1,6.31.18,9.41h101.4c.08-3.1.18-6.16.18-9.41,0-92.36-25.72-104.81-50.88-104.81Z"/>
      <path class="cls-9" d="M595.91,399.3h0c-5.88-1.07-11.15-1.18-16-.48,13.49,23.65,16.08,58.61,16.08,90.88,0,3.24-.1,6.31-.18,9.41h35.66c11.46-79.86-11.4-95.42-35.56-99.82Z"/>
      <path class="cls-7" d="M598.46,385.19c-10.15-1.86-19.43-1.43-27.75,1.03-8.05-8.3-18.67-13.71-32.47-15.15.35-5.75,1.15-13.09,2.83-17.29,1.46-3.65-.31-7.79-3.96-9.25-3.66-1.48-7.8.31-9.25,3.96-2.58,6.45-3.53,16.09-3.88,22.54-13.92,1.36-24.63,6.73-32.75,15.01-8.16-2.3-17.23-2.67-27.13-.86-53.55,9.75-54.45,64.58-47.33,114.39.19.21.39.41.58.62h13.89s0,0,0-.01c-11.88-80.94,11.12-96.57,35.4-100.99h0c5.58-1.01,10.6-1.14,15.24-.57-13.53,23.65-16.13,58.66-16.13,90.97,0,3.65.12,7.1.2,10.6h14.23c-.08-3.5-.2-6.94-.2-10.6,0-92.36,25.72-104.81,50.88-104.81h0c25.16,0,50.88,12.45,50.88,104.81,0,3.66-.11,7.1-.2,10.6h14.24c.08-3.51.2-6.95.2-10.6,0-32.27-2.59-67.23-16.08-90.88,4.85-.7,10.12-.6,16,.48h0c24.28,4.42,47.28,20.06,35.41,101h14.39c7.21-49.97,6.53-105.22-47.25-115.01Z"/>
    </g>
    <g>
      <path class="cls-3" d="M251.57,496.86v133.25h410.52v-133.25H251.57ZM649.74,617.75h-385.83v-108.54h385.83v108.54Z"/>
      <path class="cls-3" d="M251.57,772.91h410.52v-133.25H251.57v133.25ZM263.91,652.02h385.83v108.54h-385.83v-108.54Z"/>
    </g>
    <g>
      <rect class="cls-7" x="257.74" y="503.03" width="398.18" height="120.9"/>
      <path class="cls-9" d="M662.09,630.1H251.57v-133.25h410.52v133.25ZM263.91,617.75h385.83v-108.54h-385.83v108.54Z"/>
    </g>
    <g>
      <rect class="cls-7" x="257.74" y="645.84" width="398.18" height="120.9"/>
      <path class="cls-9" d="M662.09,772.91H251.57v-133.25h410.52v133.25ZM263.91,760.56h385.83v-108.54h-385.83v108.54Z"/>
    </g>
    <circle class="cls-9" cx="619.19" cy="563.48" r="8.64"/>
    <circle class="cls-9" cx="311.8" cy="563.48" r="8.64"/>
    <circle class="cls-9" cx="311.8" cy="706.29" r="8.64"/>
    <circle class="cls-9" cx="619.19" cy="706.29" r="8.64"/>
  </g>
</svg>