<?xml version="1.0" encoding="UTF-8"?>
<svg id="Laag_1" data-name="Laag 1" xmlns="http://www.w3.org/2000/svg" xmlns:xlink="http://www.w3.org/1999/xlink" viewBox="0 0 135.99 220.94">
  <defs>
    <style>
      .cls-1 {
        fill: none;
      }

      .cls-2 {
        stroke-miterlimit: 10;
      }

      .cls-2, .cls-3 {
        stroke: #233260;
      }

      .cls-2, .cls-4 {
        fill: #21b501;
      }

      .cls-3 {
        stroke-linecap: round;
        stroke-linejoin: round;
        stroke-width: 3px;
      }

      .cls-3, .cls-5 {
        fill: #233260;
      }

      .cls-6 {
        fill: #dbbb00;
      }

      .cls-7 {
        clip-path: url(#clippath);
      }
    </style>
    <clipPath id="clippath">
      <path class="cls-1" d="M68,8.66c-32.58,0-58.98,26.41-58.98,58.98v144.38h117.97V67.65c0-32.58-26.41-58.98-58.98-58.98Z"/>
    </clipPath>
  </defs>
  <path class="cls-6" d="M135.99,220.94H0V65.64C0,48.08,7.09,31.58,19.97,19.18,32.8,6.81,49.86,0,68,0s35.19,6.81,48.03,19.18c12.87,12.4,19.97,28.9,19.97,46.46v155.3ZM7.41,213.53h121.17V65.64c0-32.11-27.18-58.23-60.59-58.23S7.41,33.53,7.41,65.64v147.89Z"/>
  <path class="cls-5" d="M68,3.71C32.49,3.71,3.71,31.43,3.71,65.64v151.6h128.58V65.64c0-34.2-28.78-61.93-64.29-61.93Z"/>
  <g class="cls-7">
    <path class="cls-4" d="M68,8.66c-32.58,0-58.98,26.41-58.98,58.98v144.38h117.97V67.65c0-32.58-26.41-58.98-58.98-58.98Z"/>
    <path class="cls-6" d="M130.69,186.77l-125.38-.25v-118.88c0-16.74,6.52-32.49,18.36-44.33,11.84-11.84,27.58-18.36,44.33-18.36s32.49,6.52,44.33,18.36c11.84,11.84,18.36,27.58,18.36,44.33v119.13ZM12.72,179.13l110.56.22v-111.7c0-30.48-24.8-55.28-55.28-55.28S12.72,37.17,12.72,67.65v111.48Z"/>
    <path class="cls-5" d="M132.92,138.15l-37-36.91c-7.84,6.52-17.68,10.09-27.92,10.09s-20.09-3.57-27.93-10.09L6.08,135.15l-5.27-5.28,33.96-33.87c-5.91-6.93-9.52-15.56-10.29-24.62H5.9v-7.46h18.57c.78-9.21,4.48-17.94,10.55-24.92l-17.35-17.35,5.27-5.27,17.43,17.43c6.79-5.55,15.16-8.94,23.89-9.68V-1.13h7.46v25.26c8.97.77,17.52,4.31,24.41,10.11l17.86-17.86,5.27,5.27-17.86,17.86c5.8,6.89,9.35,15.44,10.11,24.41h19.88v7.46h-19.88c-.77,9.07-4.38,17.69-10.3,24.63l36.96,36.87-5.27,5.28ZM96.07,96.16l36.84,36.75.03-.03-36.84-36.75,1.21-1.31c6.43-6.93,10.2-15.95,10.61-25.38l.08-1.77h19.68v-.05h-19.68l-.08-1.77c-.41-9.33-4.12-18.27-10.43-25.18l-1.2-1.31,17.72-17.72-.03-.03-17.72,17.72-1.31-1.2c-6.9-6.31-15.84-10.02-25.18-10.43l-1.77-.08V2.57h-.05v25.06l-1.77.08c-9.1.4-17.87,3.95-24.7,10l-1.31,1.16-17.25-17.25-.03.03,17.25,17.25-1.24,1.31c-6.58,6.97-10.44,16.08-10.86,25.65l-.08,1.77H9.61v.05h18.37l.08,1.77c.42,9.43,4.18,18.44,10.61,25.37l1.21,1.31L6.05,129.88l.03.03,33.84-33.75,1.3,1.18c7.35,6.64,16.86,10.29,26.77,10.29s19.42-3.65,26.77-10.29l1.31-1.18Z"/>
    <rect class="cls-6" x="66.12" y=".72" width="3.75" height="66.93"/>
    <g>
      <rect class="cls-6" x="43.4" y="10.52" width="3.75" height="66.93" transform="translate(-17.84 44.9) rotate(-45)"/>
      <rect class="cls-6" x="58.2" y="42.11" width="66.93" height="3.75" transform="translate(-4.26 77.7) rotate(-45)"/>
    </g>
    <g>
      <rect class="cls-6" x="99" y="53.81" width="3.75" height="94.23" transform="translate(-41.82 101.06) rotate(-45.07)"/>
      <rect class="cls-6" x="-8.38" y="97.55" width="89.99" height="3.75" transform="translate(-59.52 54.89) rotate(-44.93)"/>
    </g>
    <rect class="cls-6" x="7.76" y="65.77" width="121.79" height="3.75"/>
    <path class="cls-6" d="M109.83,67.65c0,23.1-18.73,41.83-41.83,41.83s-41.83-18.73-41.83-41.83,18.73-41.83,41.83-41.83,41.83,18.73,41.83,41.83Z"/>
  </g>
  <rect class="cls-5" x="3.71" y="182.98" width="128.58" height="34.26"/>
  <path class="cls-6" d="M83.78,100.57c-.08,0-.15,0-.23.01.08,0,.15,0,.23-.01Z"/>
  <path class="cls-6" d="M86.96,95.53s.1.01.14.03c-.04-.02-.1-.02-.14-.03Z"/>
  <path class="cls-6" d="M87.4,95.79c.16.19.22.45.18.69.04-.25-.02-.5-.18-.69Z"/>
  <path class="cls-6" d="M84.27,100.47c-.07.02-.14.03-.21.04.07-.01.14-.02.21-.04Z"/>
  <path class="cls-6" d="M86.36,99.14s-.02.02-.03.03c.01-.01.02-.02.03-.03Z"/>
  <path class="cls-6" d="M84.75,100.33s-.08.02-.11.04c.04-.01.08-.02.11-.04Z"/>
  <g>
    <path class="cls-4" d="M62.97,188.25v3.21h-1.79v-1.39h-1.43v5.46h1.48v1.82h-5.17v-1.82h1.48v-5.46h-1.43v1.39h-1.79v-3.21h8.66Z"/>
    <path class="cls-4" d="M73.38,190.06h-.91v5.46h.91v1.82h-4.26v-1.82h1.14v-1.91h-3.5v1.91h1.14v1.82h-4.26v-1.82h.91v-5.46h-.91v-1.82h4.26v1.82h-1.14v1.86h3.5v-1.86h-1.14v-1.82h4.26v1.82Z"/>
    <path class="cls-4" d="M82.15,188.25v3.21h-1.81v-1.39h-3.05v1.95h1.11v-.61h1.43v2.78h-1.43v-.61h-1.11v1.95h3.05v-1.39h1.81v3.21h-7.98v-1.82h.91v-5.46h-.91v-1.82h7.98Z"/>
    <path class="cls-4" d="M32.88,202.87v1.82h-.77l-1.96,7.31h-2.48l-1.51-5.89-1.52,5.89h-2.48l-1.96-7.31h-.75v-1.82h4.02v1.82h-1.12l1.13,4.55,1.68-6.37h2.03l1.66,6.37,1.13-4.55h-1.1v-1.82h4.02Z"/>
    <path class="cls-4" d="M36.56,210.15h.91v1.82h-4.03v-1.82h.91v-5.46h-.91v-1.82h4.03v1.82h-.91v5.46Z"/>
    <path class="cls-4" d="M48.57,202.87v1.82h-.91v7.28h-2.5l-3.8-6.01v4.19h1.07v1.82h-4.19v-1.82h.91v-5.46h-.91v-1.82h3.42l3.78,5.97v-4.15h-1.08v-1.82h4.2Z"/>
    <path class="cls-4" d="M57.2,202.87v3.21h-1.81v-1.39h-3.06v1.95h1.11v-.61h1.43v2.78h-1.43v-.61h-1.11v1.95h3.06v-1.39h1.81v3.21h-7.98v-1.82h.91v-5.46h-.91v-1.82h7.98Z"/>
    <path class="cls-4" d="M70.56,204.69h-.91v5.46h.91v1.82h-4.07v-1.82h1v-4.28l-2.21,6.1h-2.07l-2.22-6.11v4.29h1v1.82h-4.07v-1.82h.91v-5.46h-.91v-1.82h3.95l2.37,6.45,2.38-6.45h3.94v1.82Z"/>
    <path class="cls-4" d="M80.01,210.15h.73v1.82h-4.08v-1.82h1.09l-.23-.7h-3.16l-.25.7h1.1v1.82h-4.09v-1.82h.73l2.7-7.32h2.76l2.7,7.32ZM74.9,207.84h2.07l-1.04-3.06-1.03,3.06Z"/>
    <path class="cls-4" d="M89.87,204.69l-2.5,2.41,2.6,3.05h.65v1.82h-4.45v-1.82h1.13l-1.69-2-1.21,1.08v.92h.83v1.82h-3.95v-1.82h.91v-5.46h-.91v-1.82h3.95v1.82h-.83v2.41l2.57-2.41h-.79v-1.82h4.43v1.82h-.75Z"/>
    <path class="cls-4" d="M99.19,202.87v3.21h-1.81v-1.39h-3.05v1.95h1.11v-.61h1.43v2.78h-1.43v-.61h-1.11v1.95h3.05v-1.39h1.81v3.21h-7.98v-1.82h.91v-5.46h-.91v-1.82h7.98Z"/>
    <path class="cls-4" d="M107.89,210.31c.16,0,.33-.03.53-.08v1.75c-.38.09-.75.13-1.11.13-1.14,0-1.99-.56-2.53-1.68l-.75-1.57h-1.01v1.29h.84v1.82h-3.95v-1.82h.9v-5.46h-.9v-1.82h4.32c1.21,0,2.14.27,2.81.8s1.01,1.27,1.01,2.22c0,1.3-.61,2.18-1.83,2.65l.44.91c.27.57.68.86,1.23.86ZM103.02,204.69v2.48h1.25c.49,0,.86-.11,1.12-.34.26-.23.4-.54.4-.94s-.13-.68-.39-.89c-.26-.21-.64-.32-1.13-.32h-1.25Z"/>
    <path class="cls-4" d="M111.3,205.47c0,.19.07.35.2.47s.32.23.57.3c.25.07.5.13.76.18.26.04.57.1.95.16s.69.12.94.19c1.49.34,2.24,1.17,2.24,2.5,0,.88-.31,1.57-.94,2.08s-1.5.77-2.63.77-2-.35-2.56-1.04v.9h-1.79v-3.22h1.87c.23,1.03.94,1.55,2.16,1.55.53,0,.94-.08,1.25-.25.3-.17.46-.41.46-.72,0-.22-.1-.41-.31-.55s-.48-.24-.81-.3-.7-.12-1.1-.17c-.4-.05-.81-.13-1.21-.24-.4-.11-.77-.25-1.1-.43-.33-.18-.6-.45-.81-.81s-.31-.8-.31-1.32c0-.88.3-1.57.91-2.06s1.44-.73,2.51-.73c1.14,0,2,.31,2.56.94v-.78h1.79v3.21h-1.91c-.1-.53-.32-.92-.65-1.17-.33-.25-.8-.38-1.42-.38-1.07,0-1.6.31-1.6.94Z"/>
  </g>
  <path class="cls-3" d="M91.71,81.47l-.69,1.99-.67,1.95s-.36-.4-.91-.67c-.41-.2-.65-.24-.74-.24-.03,0-.05,0-.05,0l1.51-4.01c.48.21.92.47,1.31.76-1.87-1.52-4.39-1.37-4.39-1.37l-2.09,4.43s.51.64.22,1.31c-.06.14-.36.83-.78,1.83-.05.12-.11.25-.17.39-1.65,3.85-4.87,11.37-5.26,12.1-.52.95-4.5,1.09-7.22,3.78-1.35,1.34-2.77,4.66-4.13,8.32-.04-.02-.77,1.91-.77,1.91l-8.2,19.77-4.28,11.92c-.37.12-.77,2.14-.77,2.14-2.35,5.82-4.72,11.68-6.65,16.46-.51,1.25-.98,2.43-1.42,3.51,1.43,1.11,3.48,2.24,6.31,3.51,4.28,1.94,6.32,1.78,8.87,1.71,2.55-.07,3.37-1.89,3.88-2.91.16-.31,2.07-4.95,4.71-11.39.32-.78.65-1.58.99-2.41,0,0,0,0,0,0,.55-1.35,1.3-3.17,2.12-5.19,0,0,0,0,0,0,.14-.33.27-.67.41-1,0,0,0,0,0,0,.84-2.05,1.74-4.25,2.59-6.33,0,0,0,0,0,0,.34-.84.68-1.67,1.03-2.51,0,0,0,0,0,0,1.56-3.82,2.78-6.8,2.85-6.97.5-1.23.99-2.43,1.47-3.59.94-2.31,1.83-4.46,2.61-6.37,1.51-3.69,2.65-6.45,3.13-7.6,2.41-5.76.61-10.74-.4-11.85-1.01-1.11-1.3-2.17-1-3.15.24-.78,3.3-7.74,4.67-10.91.33-.77.56-1.32.63-1.5.35-.93,1.03-1.35,1.2-1.69.17-.34.63-1.46,1.23-3.16.14-.4.17-.78.1-1.15-.31-.77-.75-1.36-1.25-1.83Z"/>
  <path class="cls-4" d="M91.63,81.49l-.69,1.99-.67,1.95s-.36-.4-.91-.67c-.41-.2-.65-.24-.74-.24-.03,0-.05,0-.05,0l1.4-3.73c-1.19-.34-2.41-.33-3.49.19l-1.58,3.35s.51.64.22,1.31c-.06.14-.36.83-.78,1.83-.05.12-.11.25-.17.39-1.65,3.85-4.87,11.37-5.26,12.1-.52.95-4.5,1.09-7.22,3.78-1.35,1.34-2.77,4.66-4.13,8.32,1.17.62,3.44,1.81,5.79,2.97l3.78-9.62s.83,0,1.71.9c.89.9,3.61,3.59,3.18,5.78-.08.39-.86,2.52-2.1,5.77,2.53.87,4.49,1.34,4.49,1.34l-6.45,15.01-1.15,2.69c.48-.45,1.15-.81,1.79-1.08.21-.52.42-1.03.63-1.53.5-1.23.99-2.43,1.47-3.59.94-2.31,1.83-4.46,2.61-6.37,1.51-3.69,2.65-6.45,3.13-7.6,2.41-5.76.61-10.74-.4-11.85-1.01-1.11-1.3-2.17-1-3.15.24-.78,3.3-7.74,4.67-10.91.33-.77.56-1.32.63-1.5.35-.93,1.03-1.35,1.2-1.69.33-.64.54-1.36.79-2.05.13-.36.26-.72.45-1.05.16-.29.44-.53.52-.86.01-.05.02-.11.05-.15.11-.17.04-.38.18-.53.15-.16-1.71-1.38-1.91-1.49ZM89.55,85.85s-.68,1.73-1.56,3.94c-1.33,3.35-3.09,7.82-3.6,9.04-.84,2.03-2.3,1.56-3.01,1.29-.71-.27-1.64-1.27-.69-.95.95.32,1.85.07,2.17-.62.2-.44,2.18-5.75,3.6-9.58.82-2.22,1.46-3.95,1.46-3.95,0,0,.48-.2,1.11.18.63.38.51.65.51.65Z"/>
  <path class="cls-4" d="M75.91,140.11c-.06-.27-.09-.57-.08-.87l-.52,1.21-.45,1.04-.99,2.32c.35,0,.68,0,.94-.02.18-.01.33-.02.47-.02.03,0,.07,0,.1,0,.34-.84.68-1.67,1.03-2.51-.04-.06-.09-.13-.13-.2-.16-.26-.28-.58-.36-.94Z"/>
  <path class="cls-4" d="M71.52,149.27l-.74,1.73c.29-.06.6-.07.92-.01.25.05.47.08.68.1.14-.33.27-.67.41-1-.23-.05-.45-.13-.62-.23-.24-.14-.45-.34-.64-.58Z"/>
  <path class="cls-4" d="M69.59,155.78c-.53-.56-.68-1.41-.63-2.21-.62.06-1.63.07-2.96-.14-1.01,2.55-1.97,4.97-2.84,7.17-2.71,6.83-4.6,11.59-4.6,11.59,0,0-3.09-.56-4.26-.85-1.18-.29-2.26-1.06-2.41-1.73l2.73-6.95,4.57-11.63c-2.56-1.27-4.48-2.45-5.65-3.23-2.35,5.82-4.72,11.68-6.65,16.46-.51,1.25-.98,2.43-1.42,3.51,1.43,1.11,3.48,2.24,6.31,3.51,4.28,1.94,6.32,1.78,8.87,1.71,2.55-.07,3.37-1.89,3.88-2.91.16-.31,2.07-4.95,4.71-11.39.32-.78.65-1.58.99-2.41-.25-.15-.48-.31-.65-.5Z"/>
  <g>
    <path class="cls-6" d="M89.97,80.79l-1.4,3.73s.01,0,.05,0c.09,0,.33.05.74.24.55.26.91.67.91.67l.67-1.95.7-2.03c-.45-.36-1.09-.4-1.67-.66Z"/>
    <path class="cls-6" d="M89.03,85.2c-.63-.38-1.11-.18-1.11-.18,0,0-.64,1.73-1.46,3.95-1.42,3.83-3.4,9.14-3.6,9.58-.32.7-1.22.95-2.17.62-.95-.32-.02.68.69.95.71.27,2.17.74,3.01-1.29.51-1.23,2.27-5.69,3.6-9.04.87-2.21,1.56-3.94,1.56-3.94,0,0,.11-.27-.51-.65Z"/>
    <path class="cls-6" d="M77.14,105.41l-3.78,9.62c.85.42,1.71.83,2.53,1.22,1.38.64,2.78,1.18,4.05,1.62,1.24-3.24,2.02-5.38,2.1-5.77.43-2.2-2.3-4.89-3.18-5.78-.89-.9-1.71-.9-1.71-.9Z"/>
    <path class="cls-6" d="M59.2,151.02l-4.57,11.63-2.73,6.95c.16.67,1.23,1.44,2.41,1.73,1.18.29,4.26.85,4.26.85,0,0,1.89-4.75,4.6-11.59.87-2.2,1.83-4.63,2.84-7.17-1.38-.22-3.11-.69-5.14-1.61-.59-.27-1.14-.53-1.67-.79Z"/>
    <path class="cls-6" d="M75.02,118.12c-.79-.37-1.61-.77-2.42-1.17-2.74-1.35-5.31-2.72-5.74-2.96-.04-.02-.07-.03-.07-.03l-8.2,19.77-4.78,11.53s.2.15.59.4c.92.6,2.87,1.81,5.65,3.17.53.26,1.08.52,1.66.79,2.11.96,3.87,1.37,5.19,1.53,1.79.21,2.77-.05,2.77-.05l1.26-2.93c-.19-.58-.26-1.2-.18-1.76.18-1.25.88-1.71,1.39-2.21.15-.15.37-.24.62-.29l4.18-9.72,5.76-13.4s-1.49-.35-3.5-1.02c-1.27-.42-2.75-.97-4.19-1.64Z"/>
  </g>
  <path class="cls-5" d="M83.33,124.32c-.78,1.9-1.66,4.06-2.61,6.37.6-.25,1.43-.55,1.73-.62.36-.09,2.02.08,3.76-.6,1.73-.68.76-3.14-.03-4.1-.58-.71-2.11-.96-2.85-1.04Z"/>
  <path class="cls-5" d="M86.99,79.9c-1.39-.04-2.63.2-2.83.59-.34.68-1.68,3.77-1.68,3.77,0,0,.21.72-.09,1.44-.07.18-.26.61-.5,1.19-.21.5-.47,1.11-.74,1.74-.68,1.61-1.45,3.38-1.78,4.02-.6,1.19-2.21,5.92-2.85,6.38-.64.46-2.98.79-4.98,1.59-2,.8-4.9,3.5-6.2,6.55-.35.83-2.08,5.02-4.43,10.72-.04-.74-.3-1.44-.98-1.83-1.14-.66-1.54-.62-2.44.64-.91,1.26-1.57,3.08-3.07,3.63-1.05.39-1.99.65-2.64,1.04,0,0,0,0,0,0-.06.03-.12.07-.19.12-.19.14-.35.29-.47.48,0,0,0,0,0,0-.49.59-1.02,1.47-1.39,2.09-.54.93-1.83,3.41-2.81,4.97-.98,1.56-2.37,3.25-2.83,4.62-.47,1.37-1.29,3.57-1.81,4.66-.52,1.09-1.9,5.24-2.26,5.83-.3.49-14.62,9.74-19.5,12.88,4.12,7.4,10.07,13.58,17.17,17.99,1.97-2.34,4.18-4.88,5.71-7.29.28-.44.54-.81.78-1.15.36.4.79.79,1.3,1.19.44-1.08.91-2.26,1.42-3.51,1.93-4.78,4.3-10.64,6.65-16.46,1.17.78,3.08,1.97,5.65,3.23.53.26,1.09.53,1.67.79,2.03.92,3.76,1.39,5.14,1.61,1.33.21,2.33.2,2.96.14-.06.8.1,1.65.63,2.21.17.19.4.35.65.5-.34.83-.67,1.63-.99,2.41,1.22-.92,3.09-1.32,3.83-1.18.77.14,2.77-.91,3.15-1.78,0,0,0,0,0,0,.09-.13.18-.28.26-.45.64-1.24,0-3.01-.31-3.54-.3-.68-.83-.85-1.3-.88-.47-.04-1.79.05-1.79.05,0,0-1.16.13-.3-.18.66-.24,3.3-.41,4.43-.47.19,0,.36,0,.53-.03,0,0,0,0,0,0h0c1.43-.21,1.96-1.47,2.35-2.59.45-1.29-.42-3.08-1.26-3.81-.84-.73-2.12-.36-2.52-.2-.29.12-.56.11-.96.12-.03,0-.06,0-.1,0-.14,0-.3.01-.47.02-.26.02-.59.02-.94.02l.99-2.32.45-1.04.52-1.21c0,.31.02.6.08.87.08.36.2.68.36.94.04.07.09.13.13.2.54.78,1.21,1.23,1.83,1.21.67-.03,2.07-.54,2.87-.79.8-.25,2.19-1,2.36-1.69.17-.69.37-1.77-.12-2.94-.34-.8-.57-1.35-.87-1.68h0c-.4-.67-2.28-.98-3.22-1.09-.21.51-.42,1.02-.63,1.53-.64.27-1.31.63-1.79,1.08l1.15-2.69,6.45-15.01s-1.96-.46-4.49-1.34c-1.27-.44-2.68-.98-4.05-1.62-.82-.38-1.68-.8-2.53-1.22-2.36-1.16-4.62-2.35-5.79-2.97,1.36-3.67,2.77-6.99,4.13-8.32,2.72-2.69,6.71-2.83,7.22-3.78.39-.72,3.61-8.25,5.26-12.1.06-.13.11-.26.17-.39.43-1,.72-1.69.78-1.83.29-.67-.22-1.31-.22-1.31l2.09-4.43ZM57.49,125.52c.14-.22.54-.9,1.01-1.73-1.24,3.02-2.57,6.24-3.9,9.46-.4-.13-.7-.32-.82-.62-.26-.68.46-1.88,1.21-3.46.28-.6.63-1.6.91-2.66.7-.27,1.37-.65,1.58-.99ZM72.15,149.86c.18.11.39.18.62.23-.14.34-.27.67-.41,1-.21-.02-.43-.06-.68-.1-.32-.06-.63-.05-.92.01l.74-1.73c.19.24.4.44.64.58ZM72.6,116.96c.81.4,1.64.8,2.42,1.17,1.44.67,2.92,1.22,4.19,1.64,2.01.67,3.5,1.02,3.5,1.02l-5.76,13.4-4.18,9.72c-.26.06-.48.15-.62.29-.51.51-1.21.96-1.39,2.21-.08.56,0,1.18.18,1.76l-1.26,2.93s-.99.26-2.77.05c-1.32-.16-3.07-.57-5.19-1.53-.58-.27-1.14-.53-1.66-.79-2.78-1.36-4.73-2.57-5.65-3.17-.39-.26-.59-.4-.59-.4l4.78-11.53,8.2-19.77s.02.01.07.03c.43.23,3,1.6,5.74,2.96Z"/>
  <g>
    <path class="cls-2" d="M51.23,57.84c1.33.66.92,1.93-.62,1.9s-3.16,1.16-4.1,1.91-1.84,1.98-1.84,1.98c0,0,6.64,3.61,8.46,4.3s3.5.89,4.43.3,1.88-1.49,1.88-1.49c0,0-.29,1.84.64,2.55s3.14-.92,3.75-2.74.83-3.83.83-3.83c0,0-1.95.03-2.71-.67s-.87-1.25-.27-2.04,2.66.26,2.85.92,1.95,1.13,3.02-.39c1.08-1.52,3.22-5.66,1.99-6.56s-3.63-.23-3.73-1.09c-.1-.87-.35-4.37-3.07-6.01s-5.8-2.83-5.8-2.83c0,0,.12,2.92.35,4.32s-.75,3.84-1.39,2.58-1.84-3.85-3.6-4.29-2.94.37-4.83-.49-4.15-2.06-4.78-1.22,2.59,9.49,3.87,11.04,3.32,1.2,4.65,1.86Z"/>
    <path class="cls-2" d="M29.98,45.07c-2.36.14-5.86,2.63-5.86,2.63,0,0,3.42,2.39,7.1,3.65s5.06-.99,5.12-3.35-4-3.07-6.36-2.93Z"/>
    <path class="cls-2" d="M96.96,74.26c-.43-1.09,1.56-2.27,2.02-3.37.46-1.1.75-2.27.55-2.65-.2-.39-.97.02-1.8-1.77-.83-1.79-2.25-3.02-2.86-4.26-.61-1.24-1.17-2.16-1.17-2.16,0,0-2.08,2.89-2.23,3.88-.14.99-.48,2.48-1.44,2.66-.96.18-1.83,1.24-2.2.71-.38-.53.57-4.04-.14-5.43-.71-1.39-1.29-2.31-1.78-2.34-.49-.03-1.41.55-2.14-.27-.73-.82-4.9-5.11-5.5-5.46s-.8,3.41-1.04,4.25c-.24.84-2,2.72-2.42,4.22s-.72,5.76,0,6.58c.73.82,3.5,2.49,3.53,3.63.03,1.13-1.39,1.52-2.96.46-1.57-1.06-3.31.17-5.14.59s-3.69.45-3.69.45c0,0,2.82,3.05,3.1,4.24.28,1.19,1.83,2.82,2.58,3.07.76.25.95,1.37,1.68,2.19.02.03.05.05.08.08.79.79,2.87,1.41,4.1,1.13.11-.02.22-.05.33-.07,1.18-.22,2.41-.19,2.41-.19,0,0-.24.35-.57.76-.36.44-.82.94-1.19,1.11-.7.31-.6,1.36,1.13,1.59.56.08,1.18.06,1.83-.05.27-.63.52-1.24.74-1.74.24-.58.43-1.01.5-1.19.3-.72.09-1.44.09-1.44,0,0,1.33-3.09,1.68-3.77.2-.39,1.44-.63,2.83-.59,0,0,2.52-.16,4.39,1.37.08.06.18.12.26.18v.04c.49.46.93,1.05,1.24,1.83,1.26-.19,2.63-.59,3.43-1.4,1.77-1.8,3.08-5.38,3.08-5.38,0,0-2.88-.36-3.31-1.46Z"/>
  </g>
</svg>