<?xml version="1.0" encoding="UTF-8"?>
<svg id="Layer_1" data-name="Layer 1" xmlns="http://www.w3.org/2000/svg" viewBox="0 0 313.91 451.37">
  <defs>
    <style>
      .cls-1 {
        fill: #21b501;
      }

      .cls-2 {
        fill: #dbbb00;
      }

      .cls-3 {
        fill: #233260;
      }
    </style>
  </defs>
  <g>
    <path class="cls-1" d="M302.35,110.55c-1.17-4.11,6.45-7.62,8.5-11.44,2.05-3.81,3.52-7.92,2.93-9.38-.59-1.47-3.52-.29-5.86-7.04-2.35-6.74-7.04-11.73-8.8-16.42-1.76-4.69-3.45-8.21-3.45-8.21,0,0-8.57,9.68-9.45,13.2-.88,3.52-2.64,8.8-6.16,9.09-3.52.29-7.04,3.81-8.21,1.76-1.17-2.05,3.52-14.37,1.47-19.65-2.05-5.28-3.81-8.8-5.57-9.09-1.76-.29-5.28,1.47-7.62-1.76-2.35-3.23-15.83-20.23-17.89-21.7-2.05-1.47-4.11,12.02-5.28,14.95-1.17,2.93-8.21,9.09-10.26,14.37-2.05,5.28-4.69,20.53-2.35,23.75,2.35,3.23,11.73,10.26,11.44,14.37-.29,4.11-5.57,4.98-10.85.59-5.28-4.4-12.02-.59-18.77.29-6.74.88-13.49.29-13.49.29,0,0,9.09,12.02,9.68,16.42.59,4.4,5.57,10.85,8.21,12.02,2.64,1.17,2.93,5.28,5.28,8.5.07.1.17.2.25.3,2.58,3.12,9.87,6.13,14.41,5.56.4-.05.81-.09,1.21-.12,4.34-.35,8.76.19,8.76.19,0,0-1.01,1.19-2.34,2.53-1.46,1.46-3.32,3.1-4.69,3.56-2.64.88-2.64,4.69,3.52,6.16,2.01.48,4.24.64,6.62.48,1.2-2.19,2.34-4.28,3.28-6.01,1.08-1.99,1.9-3.51,2.23-4.12,1.35-2.49.86-5.18.86-5.18,0,0,5.93-10.68,7.42-13.01.87-1.35,5.42-1.74,10.43-1.11l-9.14,15.26s1.6,2.49.3,4.8c-.27.49-1.58,2.86-3.49,6.32-.24.43-.48.88-.74,1.34-7.33,13.3-21.68,39.3-23.36,41.78-2.2,3.25-16.63,2.31-27.43,11.04-5.37,4.34-11.68,15.81-17.9,28.56,3.99,2.65,11.75,7.76,19.84,12.8l17.12-33.36s2.99.32,5.87,3.87c2.88,3.56,11.74,14.26,9.41,22.03-.41,1.37-4.01,8.79-9.65,20.06,8.81,4.07,15.74,6.45,15.74,6.45l-28.69,51.87-5.13,9.28c1.88-1.47,4.45-2.52,6.85-3.26.95-1.79,1.89-3.56,2.82-5.31,2.26-4.25,4.46-8.4,6.59-12.42,4.24-8,8.2-15.45,11.71-22.05,6.8-12.79,11.89-22.34,14.03-26.3,10.78-19.93,6.09-38.56,2.84-42.93-3.26-4.37-3.92-8.32-2.48-11.73,1.16-2.74,14.72-26.75,20.8-37.71,1.48-2.66,2.51-4.56,2.82-5.2,1.58-3.24,4.2-4.51,4.94-5.68.74-1.16,2.79-5.05,5.58-10.95.65-1.38.88-2.76.77-4.12,4.62-.23,9.71-1.17,12.91-3.83,7.04-5.86,13.05-18.33,13.05-18.33,0,0-10.26-2.35-11.44-6.45ZM274.87,147.12s-3.09,6-7.04,13.67c-6,11.63-13.99,27.11-16.26,31.35-3.77,7.04-8.87,4.79-11.33,3.57-2.46-1.22-5.46-5.19-2.14-3.68,3.33,1.51,6.64.93,8.06-1.47.9-1.52,9.94-19.97,16.46-33.29,3.78-7.72,6.7-13.72,6.7-13.72,0,0,1.8-.55,3.93,1.05,2.13,1.6,1.62,2.52,1.62,2.52ZM280.77,139.05l-3.14,6.81s-1.16-1.59-3.06-2.74c-1.42-.87-2.27-1.09-2.6-1.15-.11-.02-.16-.02-.16-.02l6.9-13.93c2.02,1.14,3.84,2.48,5.32,3.96l-3.26,7.08Z"/>
    <path class="cls-1" d="M135.79,51.32c4.98,2.05,3.81,6.74-1.76,7.04-5.57.29-11.14,4.98-14.37,7.92s-6.16,7.62-6.16,7.62c0,0,24.92,11.44,31.67,13.49,6.74,2.05,12.9,2.35,16.13,0,3.23-2.35,6.45-5.86,6.45-5.86,0,0-.59,6.74,2.93,9.09,3.52,2.35,11.14-4.11,12.9-10.85,1.76-6.74,2.05-14.08,2.05-14.08,0,0-7.04.59-9.97-1.76-2.93-2.35-3.45-4.33-1.47-7.33,1.98-3.01,9.68.29,10.56,2.64.88,2.35,7.33,3.59,10.85-2.16,3.52-5.76,10.26-21.3,5.57-24.23-4.69-2.93-13.2.07-13.78-3.04-.59-3.11-2.35-15.72-12.61-21-10.26-5.28-21.7-8.8-21.7-8.8,0,0,1.17,10.56,2.35,15.54,1.17,4.98-1.76,14.08-4.4,9.68-2.64-4.4-7.62-13.49-14.08-14.66-6.45-1.17-10.56,2.05-17.59-.59-7.04-2.64-15.54-6.45-17.59-3.23-2.05,3.23,11.73,33.72,16.71,39,4.98,5.28,12.32,3.52,17.3,5.57Z"/>
    <path class="cls-1" d="M50.46,5.57c-8.21,2.49-18.47,14.22-18.47,14.22,0,0,14.08,5.57,28.15,6.89,14.08,1.32,17.01-7.77,15.25-16.13-1.76-8.36-16.71-7.48-24.92-4.98Z"/>
    <path class="cls-1" d="M206.03,338.13c-.12-1.01-.12-2.08.02-3.18l-2.32,4.19-1.98,3.58-4.42,8c1.25.1,2.46.24,3.39.26.64.01,1.2.05,1.71.08.12,0,.24.02.35.03,1.54-2.9,3.08-5.79,4.61-8.69-.14-.25-.27-.5-.4-.76-.48-.99-.82-2.2-.97-3.51Z"/>
    <path class="cls-1" d="M186.88,369.62l-3.3,5.97c1.07-.12,2.19-.04,3.32.29.87.26,1.67.45,2.4.61.61-1.15,1.23-2.31,1.85-3.47-.83-.28-1.56-.62-2.17-1.07-.81-.6-1.51-1.4-2.09-2.34Z"/>
    <path class="cls-1" d="M177.59,392.43c-1.7-2.22-1.95-5.35-1.46-8.21-2.27-.03-5.9-.34-10.63-1.59-4.56,8.84-8.89,17.23-12.85,24.88-12.25,23.7-20.79,40.18-20.79,40.18,0,0-10.94-3.13-15.09-4.62-4.14-1.48-7.76-4.66-8.08-7.13l12.38-24.11,20.71-40.34c-8.79-5.5-15.28-10.46-19.22-13.71-10.58,20.16-21.24,40.47-29.93,57.04-2.28,4.34-4.42,8.42-6.38,12.17,4.76,4.52,11.75,9.33,21.5,14.97,14.75,8.53,22.17,8.7,31.39,9.36,9.23.66,12.84-5.62,15.06-9.1.69-1.07,9.27-17.14,21.12-39.43,1.43-2.69,2.91-5.47,4.43-8.33-.86-.62-1.61-1.29-2.17-2.03Z"/>
  </g>
  <g>
    <path class="cls-2" d="M278.71,128.02l-6.9,13.93s.05,0,.16.02c.33.06,1.18.28,2.6,1.15,1.89,1.15,3.06,2.74,3.06,2.74l3.14-6.81,3.26-7.08c-1.48-1.48-3.3-2.82-5.32-3.96Z"/>
    <path class="cls-2" d="M273.25,144.6c-2.13-1.6-3.93-1.05-3.93-1.05,0,0-2.93,6-6.7,13.72-6.52,13.33-15.57,31.77-16.46,33.29-1.42,2.41-4.73,2.99-8.06,1.47-3.33-1.51-.32,2.46,2.14,3.68,2.46,1.22,7.57,3.47,11.33-3.57,2.27-4.24,10.27-19.72,16.26-31.35,3.96-7.67,7.04-13.67,7.04-13.67,0,0,.51-.92-1.62-2.52Z"/>
    <path class="cls-2" d="M223.01,213.26l-17.12,33.36c2.91,1.82,5.87,3.62,8.7,5.3,4.73,2.8,9.62,5.26,14.04,7.3,5.64-11.27,9.24-18.69,9.65-20.06,2.33-7.77-6.53-18.47-9.41-22.03-2.88-3.56-5.87-3.87-5.87-3.87Z"/>
    <path class="cls-2" d="M141.78,371.5l-20.71,40.34-12.38,24.11c.32,2.47,3.93,5.64,8.08,7.13,4.14,1.48,15.09,4.62,15.09,4.62,0,0,8.55-16.48,20.79-40.18,3.95-7.65,8.29-16.04,12.85-24.88-4.9-1.3-10.97-3.6-17.96-7.67-2.02-1.17-3.93-2.33-5.75-3.47Z"/>
    <path class="cls-2" d="M210.78,258.41c-2.72-1.61-5.55-3.34-8.33-5.08-9.39-5.87-18.17-11.75-19.64-12.74-.14-.1-.22-.15-.22-.15l-36.73,68.42-21.41,39.89s.69.6,2,1.67c3.09,2.5,9.7,7.58,19.24,13.5,1.81,1.12,3.71,2.27,5.72,3.44,7.29,4.24,13.47,6.35,18.17,7.39,6.37,1.4,10.04.83,10.04.83l5.61-10.14c-.47-2.15-.5-4.43-.01-6.41,1.1-4.46,3.78-5.84,5.8-7.49.58-.47,1.41-.72,2.36-.84l18.59-33.59,25.62-46.3s-5.26-1.81-12.27-4.94c-4.44-1.99-9.58-4.5-14.53-7.43Z"/>
  </g>
  <g>
    <path class="cls-3" d="M238.53,283.78c-3.51,6.6-7.47,14.05-11.71,22.05,2.24-.7,5.37-1.46,6.47-1.62,1.33-.19,7.28,1.03,13.78-.81,6.5-1.84,3.86-11.07,1.39-14.82-1.85-2.79-7.27-4.24-9.92-4.8Z"/>
    <path class="cls-3" d="M267.8,124.71c-5.01-.63-9.57-.24-10.43,1.11-1.48,2.32-7.42,13.01-7.42,13.01,0,0,.49,2.69-.86,5.18-.33.61-1.15,2.12-2.23,4.12-.94,1.73-2.08,3.83-3.28,6.01-3.05,5.56-6.46,11.69-7.87,13.89-2.6,4.06-10.11,20.58-12.59,22.02-2.48,1.44-11.03,1.79-18.54,3.94-7.51,2.15-18.97,10.86-24.73,21.4-1.57,2.87-9.33,17.37-19.86,37.1.13-2.68-.56-5.29-2.86-6.96-3.89-2.81-5.33-2.78-9.06,1.42-3.72,4.21-6.78,10.54-12.41,12.01-3.92,1.03-7.43,1.62-9.92,2.78,0,0,0,0-.01,0-.23.09-.47.22-.72.38-.75.43-1.38.93-1.87,1.55,0,0-.01.02-.02.02-1.99,1.97-4.21,4.93-5.76,7.06-2.3,3.17-7.84,11.64-11.95,16.92-4.11,5.28-9.71,10.87-11.89,15.64-2.18,4.77-5.95,12.41-8.2,16.17-2.26,3.75-8.75,18.22-10.26,20.24-1.25,1.68-56.29,29.88-75.04,39.46,12.21,28.2,31.45,52.65,55.51,71.15,7.94-7.73,16.85-16.12,23.25-24.25,1.16-1.47,2.23-2.75,3.23-3.87,1.15,1.56,2.56,3.14,4.26,4.75,1.97-3.75,4.11-7.83,6.38-12.17,8.69-16.57,19.35-36.88,29.93-57.04,3.94,3.25,10.43,8.21,19.22,13.71,1.82,1.14,3.74,2.3,5.75,3.47,6.99,4.07,13.07,6.37,17.96,7.67,4.73,1.25,8.36,1.56,10.63,1.59-.49,2.86-.24,5.98,1.46,8.21.56.73,1.31,1.41,2.17,2.03-1.52,2.86-3,5.64-4.43,8.33,4.73-2.89,11.63-3.64,14.26-2.88,2.73.78,10.32-2.3,12.02-5.28,0,0,0,0,0,0,.37-.45.75-.96,1.12-1.52,2.77-4.23,1.1-10.85.17-12.88-.82-2.57-2.69-3.36-4.38-3.66-1.69-.3-6.48-.45-6.48-.45,0,0-4.22.04-1.03-.76,2.48-.63,12.05-.29,16.17-.11.68.09,1.31.12,1.91.09,0,0,0,0,0,0h0c5.25-.23,7.59-4.59,9.42-8.5,2.1-4.5-.4-11.27-3.17-14.2-2.77-2.94-7.52-2.08-9.03-1.63-1.07.31-2.08.21-3.53.1-.12,0-.23-.02-.35-.03-.51-.04-1.07-.07-1.71-.08-.93-.02-2.13-.16-3.39-.26l4.42-8,1.98-3.58,2.32-4.19c-.14,1.1-.14,2.17-.02,3.18.15,1.31.49,2.52.97,3.51.13.26.26.52.4.76,1.65,3.01,3.94,4.88,6.16,5.01,2.41.15,7.68-1.2,10.66-1.81,2.98-.61,8.26-2.81,9.12-5.24.87-2.43,1.99-6.24.63-10.65-.93-3.01-1.55-5.09-2.54-6.37h0c-1.2-2.56-7.89-4.36-11.22-5.1-.93,1.76-1.87,3.53-2.82,5.31-2.4.74-4.96,1.79-6.85,3.26l5.13-9.28,28.69-51.87s-6.92-2.38-15.74-6.45c-4.42-2.04-9.31-4.5-14.04-7.3-2.84-1.68-5.79-3.49-8.7-5.3-8.09-5.04-15.85-10.15-19.84-12.8,6.22-12.75,12.53-24.22,17.9-28.56,10.8-8.74,25.23-7.79,27.43-11.04,1.68-2.48,16.03-28.47,23.36-41.78.26-.46.5-.91.74-1.34,1.91-3.46,3.21-5.83,3.49-6.32,1.29-2.3-.3-4.8-.3-4.8l9.14-15.26ZM144.8,278.79c.57-.76,2.26-3.06,4.29-5.89-5.58,10.45-11.52,21.59-17.48,32.76-1.38-.62-2.43-1.41-2.73-2.53-.68-2.56,2.34-6.61,5.62-12.04,1.24-2.05,2.84-5.54,4.23-9.29,2.63-.72,5.2-1.83,6.07-3.01ZM188.98,371.96c.61.45,1.34.79,2.17,1.07-.62,1.16-1.23,2.32-1.85,3.47-.74-.16-1.53-.36-2.4-.61-1.13-.33-2.25-.42-3.32-.29l3.3-5.97c.58.94,1.28,1.74,2.09,2.34ZM202.44,253.33c2.78,1.74,5.62,3.48,8.33,5.08,4.95,2.93,10.09,5.45,14.53,7.43,7.01,3.13,12.27,4.94,12.27,4.94l-25.62,46.3-18.59,33.59c-.95.12-1.78.36-2.36.84-2.02,1.64-4.71,3.02-5.8,7.49-.48,1.98-.46,4.27.01,6.41l-5.61,10.14s-3.67.58-10.04-.83c-4.71-1.04-10.89-3.15-18.17-7.39-2.01-1.17-3.92-2.32-5.72-3.44-9.54-5.92-16.15-11-19.24-13.5-1.31-1.06-2-1.67-2-1.67l21.41-39.89,36.73-68.42s.08.05.22.15c1.47.99,10.25,6.87,19.64,12.74Z"/>
  </g>
</svg>