<?xml version="1.0" encoding="UTF-8"?>
<svg id="Layer_1" xmlns="http://www.w3.org/2000/svg" width="300mm" height="177.4mm" version="1.1" viewBox="0 0 850.4 502.9">
  <!-- Generator: Adobe Illustrator 30.2.1, SVG Export Plug-In . SVG Version: 2.1.1 Build 1)  -->
  <g>
    <path d="M123.8,54.2v18.9h-9.7v75.6h-26.7l-40.6-62.4v43.5h11.4v18.9H13.5v-18.9h9.7v-56.7h-9.7v-18.9h36.6l40.4,62v-43.1h-11.5v-18.9h44.9Z" fill="#25335e"/>
    <path d="M201.1,130.9h8.1v17.8h-27.5v-7c-5.4,5.8-12.7,8.6-22,8.6s-18.5-3.3-25-9.9c-6.5-6.6-9.7-15.1-9.7-25.5s3.2-18.9,9.7-25.5c6.5-6.6,14.8-9.9,25-9.9s16.6,2.9,22,8.6v-7h19.5v49.7ZM148.2,114.9c0,4.3,1.4,7.9,4.3,10.7,2.9,2.8,6.5,4.2,11,4.2s8.1-1.4,10.8-4.2c2.9-2.8,4.3-6.3,4.3-10.7s-1.4-7.9-4.3-10.7c-2.8-2.8-6.4-4.2-10.8-4.2s-8.1,1.4-11,4.2c-2.9,2.8-4.3,6.3-4.3,10.7Z" fill="#25335e"/>
    <path d="M258.2,99h-15.6v24.3c0,5.9,3.1,8.8,9.4,8.8s4-.3,6-.9v17.8c-4.1.9-8.1,1.4-12.1,1.4-8.1,0-14.4-1.9-19-5.8-4.6-3.9-6.9-9.6-6.9-17.3v-28.2h-8.1v-17.8h8.1v-14.5h22.5v14.5h15.6v17.8Z" fill="#25335e"/>
    <path d="M343.1,130.9h8.2v17.8h-28.1v-5.7c-5.3,4.9-12.1,7.3-20.4,7.3s-16.9-2.9-21.8-8.7c-4.9-5.8-7.4-14-7.4-24.6v-18h-8.1v-17.8h30.6v34.8c0,4.3,1.1,7.7,3.2,10.1,2.1,2.4,5,3.6,8.6,3.6s7.1-1.3,9.4-4c2.3-2.7,3.4-6.5,3.4-11.5v-15.3h-11v-17.8h33.4v49.7Z" fill="#25335e"/>
    <path d="M407.8,79.6c2.2,0,4.6.3,7.1.8v19.4c-1.9-.6-3.7-.9-5.6-.9-5.4,0-10,2.2-13.9,6.5-3.8,4.2-5.7,9.8-5.7,16.7v8.8h15v17.8h-45.6v-17.8h8.1v-31.9h-8.1v-17.8h26.4v11.1c5.3-8.5,12.7-12.7,22.2-12.7Z" fill="#25335e"/>
    <path d="M496.1,130.9h8.1v17.8h-27.5v-7c-5.4,5.8-12.7,8.6-22,8.6s-18.5-3.3-25-9.9c-6.5-6.6-9.7-15.1-9.7-25.5s3.2-18.9,9.7-25.5c6.5-6.6,14.8-9.9,25-9.9s16.6,2.9,22,8.6v-7h19.5v49.7ZM443.2,114.9c0,4.3,1.4,7.9,4.3,10.7,2.9,2.8,6.5,4.2,11,4.2s8.1-1.4,10.8-4.2c2.9-2.8,4.3-6.3,4.3-10.7s-1.4-7.9-4.3-10.7c-2.8-2.8-6.4-4.2-10.8-4.2s-8.1,1.4-11,4.2c-2.9,2.8-4.3,6.3-4.3,10.7Z" fill="#25335e"/>
    <path d="M541.7,130.9h8.2v17.8h-38.8v-17.8h8.1v-58.9h-8.1v-17.8h30.6v76.7Z" fill="#25335e"/>
    <path d="M154.8,163.8v18.9h-8.2l-21,75.9h-26.5l-16.1-61.2-16.3,61.2h-26.5l-21-75.9h-8.1v-18.9h42.9v18.9h-12l12.1,47.3,17.9-66.2h21.7l17.8,66.2,12.1-47.3h-11.8v-18.9h42.9Z" fill="#25335e"/>
    <path d="M187.1,240.5h8.2v17.8h-38.8v-17.8h8.1v-31.9h-8.1v-17.8h30.6v49.7ZM185,176.5c-2.5,2.4-5.6,3.6-9.2,3.6s-6.7-1.2-9.3-3.6c-2.5-2.5-3.8-5.5-3.8-9s1.2-6.5,3.8-8.9c2.6-2.5,5.7-3.8,9.3-3.8s6.7,1.3,9.2,3.8c2.6,2.4,3.9,5.4,3.9,8.9s-1.3,6.5-3.9,9Z" fill="#25335e"/>
    <path d="M280.6,240.5h8.2v17.8h-38.8v-17.8h8.2v-17c0-4.3-1.1-7.7-3.2-10.1s-5.1-3.6-8.8-3.6-7.1,1.3-9.3,4.1c-2.2,2.7-3.3,6.5-3.3,11.5v15.3h8.2v17.8h-38.8v-17.8h8.1v-31.9h-8.1v-17.8h28.1v5.7c5.1-4.9,11.9-7.3,20.3-7.3s16.9,2.9,21.8,8.7c4.9,5.8,7.4,14,7.4,24.6v18Z" fill="#25335e"/>
    <path d="M370.1,224.6c0,1.8-.2,4.1-.7,7h-54.8c2.8,7.5,8.7,11.2,17.6,11.2s12.2-2.4,15.8-7.3h20.7c-2.3,7.6-6.7,13.5-13.3,17.9-6.5,4.4-14.3,6.5-23.4,6.5s-21.5-3.2-28.8-9.7c-7.2-6.7-10.8-15.2-10.8-25.7s3.6-19,10.8-25.5c7.3-6.6,16.9-9.9,28.8-9.9s20.5,3.3,27.4,9.9c7,6.6,10.6,15.1,10.6,25.5ZM331.9,206.4c-4.1,0-7.7,1-10.8,3-3.1,2-5.3,4.8-6.5,8.4h34.2c-1.2-3.6-3.3-6.4-6.3-8.4-3-2-6.5-3-10.7-3Z" fill="#25335e"/>
    <path d="M98.8,273.5v33.4h-19.3v-14.4h-32.7v22.8h14.5v-6.3h15.3v28.9h-15.3v-6.3h-14.5v17.7h18.5v18.9H13.5v-18.9h9.7v-56.7h-9.7v-18.9h85.3Z" fill="#25335e"/>
    <path d="M174.3,334.3c0,1.8-.2,4.1-.7,7h-54.8c2.8,7.5,8.7,11.2,17.6,11.2s12.2-2.4,15.8-7.3h20.7c-2.3,7.6-6.7,13.5-13.3,17.9-6.5,4.4-14.3,6.5-23.4,6.5s-21.5-3.2-28.8-9.7c-7.2-6.7-10.8-15.2-10.8-25.7s3.6-19,10.8-25.5c7.3-6.6,16.9-9.9,28.8-9.9s20.5,3.3,27.4,9.9c7,6.6,10.6,15.1,10.6,25.5ZM136.1,316c-4.1,0-7.7,1-10.8,3-3.1,2-5.3,4.8-6.5,8.4h34.2c-1.2-3.6-3.3-6.4-6.3-8.4-3-2-6.5-3-10.7-3Z" fill="#25335e"/>
    <path d="M204,319.8c0,2,1.6,3.3,4.7,4.1,3.1.7,6.9,1.2,11.4,1.5,4.4.3,8.9.8,13.3,1.7,4.4.9,8.2,2.9,11.4,6,3.1,3.2,4.7,7.6,4.7,13.2s-2.5,13.2-7.4,17.3c-5,4.1-11.9,6.1-20.8,6.1s-18.4-2.9-23.9-8.8v7.2h-16.8v-24.6h16.8c1.5,6.8,7.6,10.3,18.2,10.3s11-1.8,11-5.4-.8-2.5-2.5-3.3c-1.7-.8-3.8-1.3-6.5-1.6-2.7-.3-5.6-.6-8.8-.9-3.2-.3-6.4-.9-9.7-1.6-3.2-.8-6.2-1.8-8.9-3.2-2.7-1.4-4.9-3.5-6.5-6.2-1.7-2.7-2.5-6.1-2.5-10.1,0-7.9,2.7-13.6,8-17.1,5.3-3.5,12.3-5.3,20.9-5.3s16.1,2.6,20.8,7.8v-6.2h16.8v24.6h-16.4c-1.1-3.9-3-6.5-5.7-8-2.7-1.5-6.5-2.2-11.4-2.2s-10.3,1.7-10.3,5Z" fill="#25335e"/>
    <path d="M302.6,318.3h-15.6v24.3c0,5.9,3.1,8.8,9.4,8.8s4-.3,6-.9v17.8c-4.1.9-8.1,1.4-12.1,1.4-8.1,0-14.4-1.9-19-5.8-4.6-3.9-6.9-9.6-6.9-17.3v-28.2h-8.1v-17.8h8.1v-14.5h22.5v14.5h15.6v17.8Z" fill="#25335e"/>
    <path d="M341.2,350.2h8.2v17.8h-38.8v-17.8h8.1v-31.9h-8.1v-17.8h30.6v49.7ZM339.1,286.2c-2.5,2.4-5.6,3.6-9.2,3.6s-6.7-1.2-9.3-3.6c-2.5-2.5-3.8-5.5-3.8-9s1.2-6.5,3.8-8.9c2.6-2.5,5.7-3.8,9.3-3.8s6.7,1.3,9.2,3.8c2.6,2.4,3.9,5.4,3.9,8.9s-1.3,6.5-3.9,9Z" fill="#25335e"/>
    <path d="M431.9,300.5v17.8h-7.9l-21.7,49.7h-23.1l-21.7-49.7h-7.9v-17.8h37.7v17.8h-7.1l10.6,27,10.6-27h-7.1v-17.8h37.7Z" fill="#25335e"/>
    <path d="M511.3,350.2h8.1v17.8h-27.5v-7c-5.4,5.8-12.7,8.6-22,8.6s-18.5-3.3-25-9.9c-6.5-6.6-9.7-15.1-9.7-25.5s3.2-18.9,9.7-25.5c6.5-6.6,14.8-9.9,25-9.9s16.6,2.9,22,8.6v-7h19.5v49.7ZM458.3,334.3c0,4.3,1.4,7.9,4.3,10.7,2.9,2.8,6.5,4.2,11,4.2s8.1-1.4,10.8-4.2c2.9-2.8,4.3-6.3,4.3-10.7s-1.4-7.9-4.3-10.7c-2.8-2.8-6.4-4.2-10.8-4.2s-8.1,1.4-11,4.2c-2.9,2.8-4.3,6.3-4.3,10.7Z" fill="#25335e"/>
    <path d="M556.9,350.2h8.2v17.8h-38.8v-17.8h8.1v-58.9h-8.1v-17.8h30.6v76.7Z" fill="#25335e"/>
    <path d="M106.2,458.8h7.8v18.9h-43.6v-18.9h11.7l-2.5-7.3h-33.8l-2.6,7.3h11.8v18.9H11.1v-18.9h7.8l28.9-76h29.5l28.9,76ZM51.6,434.7h22.1l-11.1-31.7-11,31.7Z" fill="#25335e"/>
    <path d="M144.5,383.2l-13.8,42.4h-17.5l7.2-42.4h24Z" fill="#25335e"/>
    <path d="M217.5,459.9h8.1v17.8h-27.5v-7c-5.4,5.8-12.7,8.6-22,8.6s-18.5-3.3-25-9.9c-6.5-6.6-9.7-15.1-9.7-25.5s3.2-18.9,9.7-25.5c6.5-6.6,14.8-9.9,25-9.9s13.8,2,18.9,5.9v-13.5h-10.4v-17.8h32.9v76.7ZM164.6,443.9c0,4.3,1.4,7.9,4.3,10.7,2.9,2.8,6.5,4.2,11,4.2s8.1-1.4,10.8-4.2c2.9-2.8,4.3-6.3,4.3-10.7s-1.4-7.9-4.3-10.7c-2.8-2.8-6.4-4.2-10.8-4.2s-8.1,1.4-11,4.2c-2.9,2.8-4.3,6.3-4.3,10.7Z" fill="#25335e"/>
    <path d="M306.9,459.9h8.1v17.8h-27.5v-7c-5.4,5.8-12.7,8.6-22,8.6s-18.5-3.3-25-9.9c-6.5-6.6-9.7-15.1-9.7-25.5s3.2-18.9,9.7-25.5c6.5-6.6,14.8-9.9,25-9.9s16.6,2.9,22,8.6v-7h19.5v49.7ZM253.9,443.9c0,4.3,1.4,7.9,4.3,10.7,2.9,2.8,6.5,4.2,11,4.2s8.1-1.4,10.8-4.2c2.9-2.8,4.3-6.3,4.3-10.7s-1.4-7.9-4.3-10.7c-2.8-2.8-6.4-4.2-10.8-4.2s-8.1,1.4-11,4.2c-2.9,2.8-4.3,6.3-4.3,10.7Z" fill="#25335e"/>
    <path d="M443.9,459.9h8.1v17.8h-38.6v-17.8h8.1v-17c0-4.3-1-7.7-3.1-10.1-2.1-2.4-4.7-3.6-7.9-3.6s-6.7,1.2-8.8,3.7c-2,2.5-3.1,6-3.1,10.6v16.5h8.1v17.8h-38.8v-17.8h8.2v-17c0-4.2-1-7.6-3.1-10.1-2-2.5-4.7-3.7-7.9-3.7-7.9,0-11.8,5.2-11.8,15.5v15.3h8.2v17.8h-38.8v-17.8h8.1v-31.9h-8.1v-17.8h28.1v5.8c5.1-5,11.6-7.4,19.5-7.4s17.5,3.5,22.4,10.5c5.3-7,12.9-10.5,22.9-10.5s16.3,2.9,21.1,8.8c4.8,5.9,7.2,14,7.2,24.6v18Z" fill="#25335e"/>
  </g>
  <g>
    <g>
      <path d="M826.7,126.5c-1.3-4.5,7-8.3,9.2-12.4,2.2-4.1,3.8-8.6,3.2-10.2-.6-1.6-3.8-.3-6.4-7.6-2.5-7.3-7.6-12.7-9.5-17.8s-3.7-8.9-3.7-8.9c0,0-9.3,10.5-10.3,14.3-1,3.8-2.9,9.5-6.7,9.9-3.8.3-7.6,4.1-8.9,1.9-1.3-2.2,3.8-15.6,1.6-21.3-2.2-5.7-4.1-9.5-6-9.9s-5.7,1.6-8.3-1.9c-2.5-3.5-17.2-22-19.4-23.5-2.2-1.6-4.5,13-5.7,16.2-1.3,3.2-8.9,9.9-11.1,15.6-2.2,5.7-5.1,22.3-2.5,25.8,2.5,3.5,12.7,11.1,12.4,15.6-.3,4.5-6,5.4-11.8.6-5.7-4.8-13-.6-20.4.3-7.3,1-14.6.3-14.6.3,0,0,9.9,13,10.5,17.8.6,4.8,6,11.8,8.9,13,2.9,1.3,3.2,5.7,5.7,9.2,0,.1.2.2.3.3,2.8,3.4,10.7,6.7,15.6,6,.4,0,.9,0,1.3-.1,4.7-.4,9.5.2,9.5.2,0,0-1.1,1.3-2.5,2.7-1.6,1.6-3.6,3.4-5.1,3.9-2.9,1-2.9,5.1,3.8,6.7,2.2.5,4.6.7,7.2.5,1.3-2.4,2.5-4.6,3.6-6.5,1.2-2.2,2.1-3.8,2.4-4.5,1.5-2.7.9-5.6.9-5.6,0,0,6.4-11.6,8-14.1.9-1.5,5.9-1.9,11.3-1.2l-9.9,16.6s1.7,2.7.3,5.2c-.3.5-1.7,3.1-3.8,6.9-.3.5-.5,1-.8,1.5-8,14.4-23.5,42.6-25.3,45.3-2.4,3.5-18,2.5-29.8,12-5.8,4.7-12.7,17.2-19.4,31,4.3,2.9,12.8,8.4,21.5,13.9l18.6-36.2s3.2.3,6.4,4.2c3.1,3.9,12.7,15.5,10.2,23.9-.4,1.5-4.4,9.5-10.5,21.8,9.6,4.4,17.1,7,17.1,7l-31.1,56.3-5.6,10.1c2-1.6,4.8-2.7,7.4-3.5,1-1.9,2-3.9,3.1-5.8,2.4-4.6,4.8-9.1,7.2-13.5,4.6-8.7,8.9-16.8,12.7-23.9,7.4-13.9,12.9-24.2,15.2-28.5,11.7-21.6,6.6-41.8,3.1-46.6-3.5-4.7-4.3-9-2.7-12.7,1.3-3,16-29,22.6-40.9,1.6-2.9,2.7-5,3.1-5.6,1.7-3.5,4.6-4.9,5.4-6.2.8-1.3,3-5.5,6.1-11.9.7-1.5,1-3,.8-4.5,5-.3,10.5-1.3,14-4.2,7.6-6.4,14.2-19.9,14.2-19.9,0,0-11.1-2.5-12.4-7ZM796.9,166.2s-3.3,6.5-7.6,14.8c-6.5,12.6-15.2,29.4-17.6,34-4.1,7.6-9.6,5.2-12.3,3.9-2.7-1.3-5.9-5.6-2.3-4,3.6,1.6,7.2,1,8.7-1.6,1-1.7,10.8-21.7,17.9-36.1,4.1-8.4,7.3-14.9,7.3-14.9,0,0,2-.6,4.3,1.1,2.3,1.7,1.8,2.7,1.8,2.7ZM803.3,157.5l-3.4,7.4s-1.3-1.7-3.3-3c-1.5-.9-2.5-1.2-2.8-1.2-.1,0-.2,0-.2,0l7.5-15.1c2.2,1.2,4.2,2.7,5.8,4.3l-3.5,7.7Z" fill="#3fa948"/>
      <path d="M646,62.3c5.4,2.2,4.1,7.3-1.9,7.6-6,.3-12.1,5.4-15.6,8.6-3.5,3.2-6.7,8.3-6.7,8.3,0,0,27,12.4,34.4,14.6,7.3,2.2,14,2.5,17.5,0,3.5-2.5,7-6.4,7-6.4,0,0-.6,7.3,3.2,9.9,3.8,2.5,12.1-4.5,14-11.8,1.9-7.3,2.2-15.3,2.2-15.3,0,0-7.6.6-10.8-1.9-3.2-2.5-3.7-4.7-1.6-8,2.1-3.3,10.5.3,11.5,2.9,1,2.5,8,3.9,11.8-2.3,3.8-6.2,11.1-23.1,6-26.3-5.1-3.2-14.3,0-15-3.3-.6-3.4-2.5-17.1-13.7-22.8-11.1-5.7-23.5-9.5-23.5-9.5,0,0,1.3,11.5,2.5,16.9,1.3,5.4-1.9,15.3-4.8,10.5-2.9-4.8-8.3-14.6-15.3-15.9-7-1.3-11.5,2.2-19.1-.6-7.6-2.9-16.9-7-19.1-3.5-2.2,3.5,12.7,36.6,18.1,42.3,5.4,5.7,13.4,3.8,18.8,6Z" fill="#42aa48"/>
      <path d="M553.4,12.6c-8.9,2.7-20,15.4-20,15.4,0,0,15.3,6,30.5,7.5,15.3,1.4,18.5-8.4,16.5-17.5-1.9-9.1-18.1-8.1-27-5.4Z" fill="#3fa948"/>
      <path d="M722.2,373.5c-.1-1.1-.1-2.3,0-3.5l-2.5,4.5-2.2,3.9-4.8,8.7c1.4.1,2.7.3,3.7.3.7,0,1.3,0,1.9,0,.1,0,.3,0,.4,0,1.7-3.1,3.3-6.3,5-9.4-.1-.3-.3-.5-.4-.8-.5-1.1-.9-2.4-1.1-3.8Z" fill="#3fa948"/>
      <path d="M701.4,407.6l-3.6,6.5c1.2-.1,2.4,0,3.6.3.9.3,1.8.5,2.6.7.7-1.3,1.3-2.5,2-3.8-.9-.3-1.7-.7-2.4-1.2-.9-.6-1.6-1.5-2.3-2.5Z" fill="#3fa948"/>
      <path d="M691.4,432.4c-1.8-2.4-2.1-5.8-1.6-8.9-2.5,0-6.4-.4-11.5-1.7-4.9,9.6-9.7,18.7-13.9,27-13.3,25.7-22.6,43.6-22.6,43.6,0,0-11.9-3.4-16.4-5-4.5-1.6-8.4-5.1-8.8-7.7l13.4-26.2,22.5-43.8c-9.5-6-16.6-11.4-20.9-14.9-11.5,21.9-23,43.9-32.5,61.9-2.5,4.7-4.8,9.1-6.9,13.2,5.2,4.9,12.8,10.1,23.3,16.2,16,9.3,24.1,9.4,34.1,10.2,10,.7,13.9-6.1,16.3-9.9.7-1.2,10.1-18.6,22.9-42.8,1.6-2.9,3.2-5.9,4.8-9-.9-.7-1.7-1.4-2.4-2.2Z" fill="#3fa948"/>
    </g>
    <g>
      <path d="M801.1,145.5l-7.5,15.1s0,0,.2,0c.4,0,1.3.3,2.8,1.2,2.1,1.2,3.3,3,3.3,3l3.4-7.4,3.5-7.7c-1.6-1.6-3.6-3.1-5.8-4.3Z" fill="#dcb828"/>
      <path d="M795.1,163.5c-2.3-1.7-4.3-1.1-4.3-1.1,0,0-3.2,6.5-7.3,14.9-7.1,14.5-16.9,34.5-17.9,36.1-1.5,2.6-5.1,3.2-8.7,1.6-3.6-1.6-.3,2.7,2.3,4,2.7,1.3,8.2,3.8,12.3-3.9,2.5-4.6,11.1-21.4,17.6-34,4.3-8.3,7.6-14.8,7.6-14.8,0,0,.6-1-1.8-2.7Z" fill="#dcb828"/>
      <path d="M740.6,238l-18.6,36.2c3.2,2,6.4,3.9,9.4,5.8,5.1,3,10.4,5.7,15.2,7.9,6.1-12.2,10-20.3,10.5-21.8,2.5-8.4-7.1-20-10.2-23.9-3.1-3.9-6.4-4.2-6.4-4.2Z" fill="#dcb828"/>
      <path d="M652.5,409.7l-22.5,43.8-13.4,26.2c.3,2.7,4.3,6.1,8.8,7.7,4.5,1.6,16.4,5,16.4,5,0,0,9.3-17.9,22.6-43.6,4.3-8.3,9-17.4,13.9-27-5.3-1.4-11.9-3.9-19.5-8.3-2.2-1.3-4.3-2.5-6.2-3.8Z" fill="#dcb828"/>
      <path d="M727.4,287c-2.9-1.7-6-3.6-9-5.5-10.2-6.4-19.7-12.8-21.3-13.8-.2-.1-.2-.2-.2-.2l-39.9,74.2-23.2,43.3s.7.7,2.2,1.8c3.4,2.7,10.5,8.2,20.9,14.6,2,1.2,4,2.5,6.2,3.7,7.9,4.6,14.6,6.9,19.7,8,6.9,1.5,10.9.9,10.9.9l6.1-11c-.5-2.3-.5-4.8,0-7,1.2-4.8,4.1-6.3,6.3-8.1.6-.5,1.5-.8,2.6-.9l20.2-36.4,27.8-50.2s-5.7-2-13.3-5.4c-4.8-2.2-10.4-4.9-15.8-8.1Z" fill="#dcb828"/>
    </g>
    <g>
      <path d="M757.5,314.5c-3.8,7.2-8.1,15.2-12.7,23.9,2.4-.8,5.8-1.6,7-1.8,1.4-.2,7.9,1.1,15-.9,7.1-2,4.2-12,1.5-16.1-2-3-7.9-4.6-10.8-5.2Z" fill="#25335e"/>
      <path d="M789.2,141.9c-5.4-.7-10.4-.3-11.3,1.2-1.6,2.5-8,14.1-8,14.1,0,0,.5,2.9-.9,5.6-.4.7-1.2,2.3-2.4,4.5-1,1.9-2.3,4.2-3.6,6.5-3.3,6-7,12.7-8.5,15.1-2.8,4.4-11,22.3-13.7,23.9-2.7,1.6-12,1.9-20.1,4.3-8.1,2.3-20.6,11.8-26.8,23.2-1.7,3.1-10.1,18.9-21.6,40.3.1-2.9-.6-5.7-3.1-7.5-4.2-3-5.8-3-9.8,1.5-4,4.6-7.4,11.4-13.5,13-4.3,1.1-8.1,1.8-10.8,3,0,0,0,0,0,0-.2,0-.5.2-.8.4-.8.5-1.5,1-2,1.7,0,0,0,0,0,0-2.2,2.1-4.6,5.3-6.3,7.7-2.5,3.4-8.5,12.6-13,18.4-4.5,5.7-10.5,11.8-12.9,17-2.4,5.2-6.5,13.5-8.9,17.5-2.4,4.1-9.5,19.8-11.1,22-1.4,1.8-61.1,32.4-81.4,42.8,13.3,30.6,34.1,57.1,60.2,77.2,8.6-8.4,18.3-17.5,25.2-26.3,1.3-1.6,2.4-3,3.5-4.2,1.3,1.7,2.8,3.4,4.6,5.2,2.1-4.1,4.5-8.5,6.9-13.2,9.4-18,21-40,32.5-61.9,4.3,3.5,11.3,8.9,20.9,14.9,2,1.2,4.1,2.5,6.2,3.8,7.6,4.4,14.2,6.9,19.5,8.3,5.1,1.4,9.1,1.7,11.5,1.7-.5,3.1-.3,6.5,1.6,8.9.6.8,1.4,1.5,2.4,2.2-1.6,3.1-3.3,6.1-4.8,9,5.1-3.1,12.6-3.9,15.5-3.1,3,.8,11.2-2.5,13-5.7,0,0,0,0,0,0,.4-.5.8-1,1.2-1.7,3-4.6,1.2-11.8.2-14-.9-2.8-2.9-3.6-4.8-4-1.8-.3-7-.5-7-.5,0,0-4.6,0-1.1-.8,2.7-.7,13.1-.3,17.5-.1.7,0,1.4.1,2.1,0,0,0,0,0,0,0h0c5.7-.2,8.2-5,10.2-9.2,2.3-4.9-.4-12.2-3.4-15.4-3-3.2-8.2-2.3-9.8-1.8-1.2.3-2.3.2-3.8.1-.1,0-.2,0-.4,0-.6,0-1.2,0-1.9,0-1,0-2.3-.2-3.7-.3l4.8-8.7,2.2-3.9,2.5-4.5c-.2,1.2-.2,2.4,0,3.5.2,1.4.5,2.7,1.1,3.8.1.3.3.6.4.8,1.8,3.3,4.3,5.3,6.7,5.4,2.6.2,8.3-1.3,11.6-2,3.2-.7,9-3.1,9.9-5.7.9-2.6,2.2-6.8.7-11.6-1-3.3-1.7-5.5-2.8-6.9h0c-1.3-2.8-8.6-4.7-12.2-5.5-1,1.9-2,3.8-3.1,5.8-2.6.8-5.4,1.9-7.4,3.5l5.6-10.1,31.1-56.3s-7.5-2.6-17.1-7c-4.8-2.2-10.1-4.9-15.2-7.9-3.1-1.8-6.3-3.8-9.4-5.8-8.8-5.5-17.2-11-21.5-13.9,6.7-13.8,13.6-26.3,19.4-31,11.7-9.5,27.4-8.5,29.8-12,1.8-2.7,17.4-30.9,25.3-45.3.3-.5.5-1,.8-1.5,2.1-3.8,3.5-6.3,3.8-6.9,1.4-2.5-.3-5.2-.3-5.2l9.9-16.6ZM655.8,309.1c.6-.8,2.5-3.3,4.7-6.4-6.1,11.3-12.5,23.4-19,35.5-1.5-.7-2.6-1.5-3-2.8-.7-2.8,2.5-7.2,6.1-13.1,1.3-2.2,3.1-6,4.6-10.1,2.8-.8,5.6-2,6.6-3.3ZM703.7,410.2c.7.5,1.5.9,2.4,1.2-.7,1.3-1.3,2.5-2,3.8-.8-.2-1.7-.4-2.6-.7-1.2-.4-2.4-.5-3.6-.3l3.6-6.5c.6,1,1.4,1.9,2.3,2.5ZM718.3,281.5c3,1.9,6.1,3.8,9,5.5,5.4,3.2,10.9,5.9,15.8,8.1,7.6,3.4,13.3,5.4,13.3,5.4l-27.8,50.2-20.2,36.4c-1,.1-1.9.4-2.6.9-2.2,1.8-5.1,3.3-6.3,8.1-.5,2.1-.5,4.6,0,7l-6.1,11s-4,.6-10.9-.9c-5.1-1.1-11.8-3.4-19.7-8-2.2-1.3-4.2-2.5-6.2-3.7-10.3-6.4-17.5-11.9-20.9-14.6-1.4-1.2-2.2-1.8-2.2-1.8l23.2-43.3,39.9-74.2s0,0,.2.2c1.6,1.1,11.1,7.5,21.3,13.8Z" fill="#25335e"/>
    </g>
  </g>
</svg>