<?xml version="1.0" encoding="UTF-8"?>
<svg id="Green_Is_Golden_icon_-_church_logo" data-name="Green Is Golden / icon - church logo" xmlns="http://www.w3.org/2000/svg" viewBox="0 0 261.44 261.44">
  <defs>
    <style>
      .cls-1 {
        fill: #21b501;
      }

      .cls-2 {
        fill: #dbbb00;
      }

      .cls-3 {
        fill: #233260;
      }
    </style>
  </defs>
  <g>
    <path class="cls-1" d="M149.86,208.59c.4,5.68.81,6.16,1.96,7.53,5.57,6.58,11.96,15.26,11.96,24.07v17.03c18.79-4.9,35.93-13.87,50.43-25.92l-36.09-36c-8.47,6.27-18.1,10.77-28.26,13.29Z"/>
    <path class="cls-1" d="M47.22,231.29c14.5,12.05,31.64,21.03,50.44,25.93v-17.03c0-8.8,6.39-17.48,11.96-24.06,1.16-1.37,1.57-1.86,1.96-7.53-10.17-2.52-19.8-7.02-28.27-13.29l-36.09,36Z"/>
    <path class="cls-1" d="M189.11,56.88c-13.3-10.47-29.46-17.45-47.1-19.55v15.04c13.29,1.89,25.76,7.05,36.5,15.12l10.6-10.6Z"/>
    <path class="cls-1" d="M119.42,52.36v-15.04c-17.24,2.06-33.07,8.77-46.19,18.84l10.63,10.63c10.53-7.67,22.68-12.6,35.56-14.43Z"/>
    <path class="cls-1" d="M51.83,142.54h-15.73v67.94l31.14-31.06c-8.23-10.83-13.5-23.42-15.41-36.88Z"/>
    <path class="cls-1" d="M224.64,119.95c-2.11-17.64-9.09-33.8-19.55-47.1l-10.6,10.6c8.07,10.74,13.23,23.21,15.12,36.5h15.04Z"/>
    <path class="cls-1" d="M209.6,142.54c-1.91,13.45-7.17,26.05-15.41,36.88l31.15,31.07v-67.95h-15.74Z"/>
    <path class="cls-1" d="M67.65,82.53l-10.59-10.59c-10.87,13.47-18.11,29.96-20.27,48.01h15.04c1.94-13.69,7.35-26.48,15.82-37.42Z"/>
    <polygon class="cls-1" points="151.05 172.13 160.74 166.54 166.5 163.22 173.06 159.44 167.76 154.78 168.4 149.64 179.16 139.2 176.59 137.11 176.8 134.46 177.31 128.03 178.04 118.96 174.99 120.25 173.54 99.85 154.94 112.38 154.94 111.57 154.94 102.48 154.94 97.44 150.89 98.25 141.9 84.11 137.56 83.79 133.93 78.17 130.72 73.19 127.51 78.17 123.87 83.79 119.54 84.11 110.54 98.25 106.5 97.44 106.5 100.86 106.5 109.95 106.5 112.38 87.9 99.85 86.45 120.25 83.4 118.96 84.12 128.03 84.63 134.46 84.85 137.11 82.28 139.2 93.68 154.78 88.38 159.44 94.93 163.21 100.69 166.54 110.38 172.13 110.38 174.54 127.51 155.2 127.51 172.86 127.51 177.77 127.51 178.41 130.66 178.42 130.68 178.42 130.76 178.42 130.76 178.42 133.93 178.44 133.93 177.77 133.93 172.86 133.93 155.2 151.05 174.54 151.05 172.13"/>
  </g>
  <g>
    <path class="cls-3" d="M29.84,128.03h29.36c.78-17.76,8.04-33.83,19.46-45.92l-16.24-16.24-4.52-4.52s.09-.09.13-.13l-21.28-21.35C14.58,62.78.72,93.79.03,128.03h29.8ZM52.52,67.4l4.55,4.55,10.59,10.59c-8.47,10.94-13.88,23.73-15.82,37.42h-21.43c2.21-19.82,10.14-37.9,22.12-52.55Z"/>
    <path class="cls-3" d="M231.68,134.46h-29.44c-.77,17.52-7.85,33.41-19.01,45.45l41.61,41.51c.16-.17.33-.34.5-.51.57-.59,1.12-1.2,1.68-1.8,1.11-1.21,2.19-2.44,3.26-3.69l-4.94-4.93-31.15-31.07c8.24-10.83,13.5-23.43,15.41-36.88h22.08v71.21c17.85-21.68,28.85-49.22,29.7-79.29h-29.7Z"/>
    <path class="cls-3" d="M119.55,210.13c.11-1.39.22-3.01.32-4.91.05-.98.11-2.03.16-3.16-1.06-.16-2.1-.35-3.15-.55-1.64-.32-3.26-.7-4.86-1.13-11.03-2.98-21.02-8.52-29.26-15.95l-41.61,41.51c.77.73,1.55,1.44,2.34,2.15,1.22,1.1,2.46,2.17,3.73,3.22l36.09-36c8.47,6.27,18.1,10.78,28.27,13.29-.4,5.68-.81,6.17-1.96,7.53-5.57,6.58-11.96,15.26-11.96,24.06v17.03c1.62.42,3.26.81,4.91,1.17,1.05.23,2.11.45,3.17.65v-18.86c0-6.18,5.37-13.31,10.04-18.84,2.33-2.75,3.16-3.74,3.76-11.22Z"/>
    <path class="cls-3" d="M149.41,200.37c-1.6.43-3.22.81-4.86,1.13-1.04.2-2.09.39-3.15.55.06,1.13.11,2.19.16,3.16.11,1.9.21,3.51.32,4.91.6,7.47,1.43,8.46,3.77,11.22,4.67,5.53,10.04,12.66,10.04,18.84v18.86c1.06-.21,2.12-.42,3.17-.65,1.65-.36,3.29-.75,4.91-1.17v-17.03c0-8.8-6.39-17.48-11.96-24.07-1.16-1.37-1.57-1.86-1.96-7.53,10.16-2.52,19.79-7.02,28.26-13.29l36.09,36c1.26-1.05,2.5-2.12,3.73-3.22.79-.71,1.57-1.42,2.34-2.15l-41.61-41.51c-8.24,7.44-18.22,12.97-29.25,15.95Z"/>
    <path class="cls-3" d="M59.19,134.46H.06c.85,30.08,11.85,57.61,29.7,79.29v-71.21h22.08c1.91,13.45,7.17,26.05,15.41,36.88l-31.14,31.06-4.94,4.93c1.06,1.25,2.15,2.48,3.26,3.69.56.61,1.12,1.21,1.69,1.81.16.17.33.33.49.5l41.62-41.51c-11.16-12.04-18.23-27.92-19.01-45.44Z"/>
    <path class="cls-3" d="M195.27,62.15l4.52-4.52s.03.03.05.04l21.35-21.32C198.41,14.53,167.77.86,133.93.04v59.68c17.35.77,33.1,7.7,45.09,18.67l16.24-16.24ZM193.66,52.33l-4.55,4.55-10.6,10.6c-10.74-8.07-23.21-13.23-36.5-15.12v-21.43c19.41,2.16,37.15,9.83,51.65,21.4Z"/>
    <path class="cls-3" d="M199.85,66.74l-16.25,16.23c10.96,11.99,17.88,27.73,18.64,45.06h59.16c-.68-33.72-14.12-64.3-35.7-87.11l-21.33,21.3-4.52,4.51ZM231.04,119.95h-21.43c-1.89-13.29-7.05-25.76-15.12-36.5l10.6-10.6,4.55-4.55c11.58,14.49,19.24,32.23,21.4,51.65Z"/>
    <path class="cls-3" d="M67.12,61.24l16.25,16.31c11.87-10.48,27.24-17.08,44.13-17.83V.04c-33.31.8-63.53,14.07-86.18,35.31l21.29,21.36,4.51,4.52ZM119.42,30.93v21.44c-12.89,1.83-25.03,6.76-35.56,14.43l-10.63-10.63-4.55-4.55c14.32-11.18,31.73-18.57,50.74-20.69Z"/>
    <path class="cls-3" d="M138.29,210.56c-.13-1.57-.25-3.21-.36-4.89-.07-1.04-.13-2.1-.18-3.16-.06-1.06-.11-2.12-.15-3.18-.07-1.67-.13-3.32-.19-4.92-.19-5.61-.26-10.61-.29-13.46-.02-1.56-.02-2.49-.02-2.49v-14.89l8.24,9.3,2.85,3.22,6.04,6.82v-8.94l8.84-5.1,5.76-3.32,9.64-5.56-7.36-6.47.3-2.37,12.52-12.15-4.05-3.29.1-1.24.51-6.42,1.12-14.01-3.78,1.59-1.52-21.45-12.15,8.19-6.05,4.08v-12.84l-5.71,1.13-8.68-13.64-4.35-.32-5.44-8.42-3-4.65-.21-.33-.21.33-3,4.65-5.44,8.43-4.35.32-8.69,13.64-5.71-1.13v12.84l-1.09-.73-17.11-11.53-1.52,21.45-3.78-1.59,1.12,14.01.51,6.42.1,1.24-3.61,2.94,11.47,15.67-6.44,5.66,9.64,5.56,5.76,3.32,8.84,5.1v8.94l6.03-6.81,2.86-3.23,8.23-9.3v14.83s0,.95-.02,2.55c-.03,2.87-.1,7.86-.29,13.46-.05,1.61-.11,3.25-.19,4.92-.05,1.06-.1,2.12-.15,3.18-.06,1.06-.12,2.12-.18,3.16-.11,1.68-.23,3.32-.36,4.89-.54,6.34-1.33,11.47-2.48,12.84-3.59,4.24-9.29,11.41-9.29,16.79v19.82c.24.04.48.07.72.1,1.05.15,2.11.29,3.17.41,5.07.6,10.23.91,15.46.91s10.39-.32,15.47-.92c1.06-.13,2.12-.26,3.17-.41.24-.03.48-.06.72-.1v-19.82c0-5.38-5.71-12.55-9.3-16.79-1.15-1.36-1.94-6.5-2.49-12.84ZM127.51,177.77v-22.58l-17.12,19.34v-2.41l-9.69-5.59-5.76-3.32-6.55-3.78,5.3-4.66-11.4-15.58,2.57-2.09-.21-2.66-.51-6.42-.72-9.07,3.05,1.28,1.44-20.4,18.6,12.53v-14.94l4.05.81,8.99-14.13,4.34-.32,3.63-5.62,3.21-4.97,3.21,4.97,3.63,5.62,4.34.32,8.99,14.13,4.05-.81v14.94l18.6-12.53,1.45,20.4,3.05-1.28-.72,9.07-.51,6.42-.21,2.66,2.57,2.09-10.76,10.44-.64,5.14,5.3,4.66-6.55,3.78-5.76,3.32-9.69,5.59v2.41l-17.12-19.34v23.24h-3.17s0-.01,0-.01h-.08s-.02,0-.02,0h-3.16v-.65Z"/>
  </g>
  <g>
    <path class="cls-2" d="M119.42,37.32v-6.4c-19.01,2.12-36.42,9.52-50.74,20.69l4.55,4.55c13.13-10.07,28.95-16.78,46.19-18.84Z"/>
    <path class="cls-2" d="M225.34,210.49l4.94,4.93c.47-.55.94-1.11,1.41-1.67v-71.21h-6.34v67.95Z"/>
    <path class="cls-2" d="M205.09,72.85c10.47,13.3,17.45,29.46,19.55,47.1h6.4c-2.16-19.41-9.83-37.15-21.4-51.65l-4.55,4.55Z"/>
    <path class="cls-2" d="M57.06,71.94l-4.55-4.55c-11.98,14.65-19.91,32.74-22.12,52.55h6.4c2.16-18.04,9.4-34.54,20.27-48.01Z"/>
    <path class="cls-2" d="M29.76,213.75c.46.56.93,1.11,1.4,1.66l4.94-4.93v-67.94h-6.34v71.21Z"/>
    <path class="cls-2" d="M193.66,52.33c-14.49-11.57-32.23-19.24-51.65-21.4v6.4c17.64,2.11,33.8,9.09,47.1,19.55l4.55-4.55Z"/>
    <path class="cls-2" d="M261.4,128.03h-59.16c-.77-17.34-7.69-33.07-18.64-45.06l16.25-16.23,4.52-4.51,21.33-21.3c-1.47-1.56-2.98-3.08-4.53-4.56l-21.35,21.32s-.03-.03-.05-.04l-4.52,4.52-16.24,16.24c-12-10.97-27.74-17.91-45.09-18.67V.04c-1.07-.03-2.14-.04-3.21-.04s-2.14.01-3.21.04v59.68c-16.9.75-32.26,7.35-44.13,17.83l-16.25-16.31-4.51-4.52-21.29-21.36c-1.56,1.47-3.09,2.97-4.58,4.51l21.28,21.35s-.09.09-.13.13l4.52,4.52,16.24,16.24c-11.42,12.1-18.68,28.17-19.46,45.92H.03c-.02.89-.03,1.79-.03,2.68,0,1.25.02,2.5.06,3.74h59.14c.77,17.52,7.84,33.4,19.01,45.44l-41.62,41.51c.73.76,1.48,1.51,2.23,2.26.02.02.04.04.06.06.75.74,1.51,1.48,2.28,2.2l41.61-41.51c8.24,7.44,18.22,12.98,29.26,15.95,1.6.43,3.22.81,4.86,1.13,1.04.2,2.09.39,3.15.55-.06,1.13-.11,2.19-.16,3.16-.11,1.9-.21,3.51-.32,4.91-.6,7.48-1.43,8.46-3.76,11.22-4.68,5.53-10.04,12.66-10.04,18.84v18.86c1.86.36,3.74.69,5.63.97v-19.82c0-5.38,5.71-12.55,9.29-16.79,1.15-1.36,1.94-6.5,2.48-12.84.13-1.57.25-3.21.36-4.89.07-1.04.13-2.1.18-3.16.06-1.06.11-2.12.15-3.18.07-1.67.13-3.32.19-4.92.19-5.6.26-10.59.29-13.46.02-1.6.02-2.55.02-2.55v-14.83l-8.23,9.3-2.86,3.23-6.03,6.81v-8.94l-8.84-5.1-5.76-3.32-9.64-5.56,6.44-5.66-11.47-15.67,3.61-2.94-.1-1.24-.51-6.42-1.12-14.01,3.78,1.59,1.52-21.45,17.11,11.53,1.09.73v-12.84l5.71,1.13,8.69-13.64,4.35-.32,5.44-8.43,3-4.65.21-.33.21.33,3,4.65,5.44,8.42,4.35.32,8.68,13.64,5.71-1.13v12.84l6.05-4.08,12.15-8.19,1.52,21.45,3.78-1.59-1.12,14.01-.51,6.42-.1,1.24,4.05,3.29-12.52,12.15-.3,2.37,7.36,6.47-9.64,5.56-5.76,3.32-8.84,5.1v8.94l-6.04-6.82-2.85-3.22-8.24-9.3v14.89s0,.93.02,2.49c.03,2.85.1,7.85.29,13.46.05,1.61.11,3.25.19,4.92.05,1.06.1,2.12.15,3.18.06,1.06.12,2.12.18,3.16.11,1.68.23,3.32.36,4.89.54,6.34,1.33,11.47,2.49,12.84,3.59,4.24,9.3,11.41,9.3,16.79v19.82c1.89-.28,3.76-.61,5.63-.97v-18.86c0-6.18-5.37-13.32-10.04-18.84-2.33-2.76-3.16-3.74-3.77-11.22-.11-1.39-.22-3.01-.32-4.91-.05-.98-.11-2.03-.16-3.16,1.06-.16,2.11-.35,3.15-.55,1.64-.32,3.26-.7,4.86-1.13,11.03-2.98,21.01-8.51,29.25-15.95l41.61,41.51s0,0,0,0c.77-.72,1.53-1.46,2.28-2.2.02-.02.04-.04.06-.06.75-.74,1.5-1.5,2.23-2.26h0l-41.61-41.51c11.16-12.04,18.23-27.92,19.01-45.45h59.14c.03-1.24.06-2.49.06-3.74,0-.9-.02-1.79-.03-2.68Z"/>
  </g>
</svg>